<?xml version="1.0" encoding="utf-8" standalone="no"?>
<!DOCTYPE svg PUBLIC "-//W3C//DTD SVG 1.1//EN"
  "http://www.w3.org/Graphics/SVG/1.1/DTD/svg11.dtd">
<svg xmlns:xlink="http://www.w3.org/1999/xlink" width="460.8pt" height="345.6pt" viewBox="0 0 460.8 345.6" xmlns="http://www.w3.org/2000/svg" version="1.1">
 <metadata>
  <rdf:RDF xmlns:dc="http://purl.org/dc/elements/1.1/" xmlns:cc="http://creativecommons.org/ns#" xmlns:rdf="http://www.w3.org/1999/02/22-rdf-syntax-ns#">
   <cc:Work>
    <dc:type rdf:resource="http://purl.org/dc/dcmitype/StillImage"/>
    <dc:date>2023-03-26T13:49:54.533463</dc:date>
    <dc:format>image/svg+xml</dc:format>
    <dc:creator>
     <cc:Agent>
      <dc:title>Matplotlib v3.7.1, https://matplotlib.org/</dc:title>
     </cc:Agent>
    </dc:creator>
   </cc:Work>
  </rdf:RDF>
 </metadata>
 <defs>
  <style type="text/css">*{stroke-linejoin: round; stroke-linecap: butt}</style>
 </defs>
 <g id="figure_1">
  <g id="patch_1">
   <path d="M 0 345.6 
L 460.8 345.6 
L 460.8 0 
L 0 0 
z
" style="fill: #ffffff"/>
  </g>
  <g id="axes_1">
   <g id="patch_2">
    <path d="M 309.45679 285.910769 
Q 361.415536 254.954595 412.413793 224.570665 
" clip-path="url(#pf51296aeb0)" style="fill: none; stroke: #000000; stroke-linecap: round"/>
    <path d="M 407.953786 224.899811 
L 412.413793 224.570665 
L 410.001106 228.336158 
z
" clip-path="url(#pf51296aeb0)" style="stroke: #000000; stroke-linecap: round"/>
   </g>
   <g id="patch_3">
    <path d="M 302.089948 281.683122 
Q 302.915453 187.912248 303.731115 95.259365 
" clip-path="url(#pf51296aeb0)" style="fill: none; stroke: #000000; stroke-linecap: round"/>
    <path d="M 301.695981 99.241604 
L 303.731115 95.259365 
L 305.695826 99.276816 
z
" clip-path="url(#pf51296aeb0)" style="stroke: #000000; stroke-linecap: round"/>
   </g>
   <g id="patch_4">
    <path d="M 415.120164 213.041752 
Q 362.315966 152.524202 310.246825 92.849083 
" clip-path="url(#pf51296aeb0)" style="fill: none; stroke: #000000; stroke-linecap: round"/>
    <path d="M 311.369661 97.177967 
L 310.246825 92.849083 
L 314.383634 94.548144 
z
" clip-path="url(#pf51296aeb0)" style="stroke: #000000; stroke-linecap: round"/>
   </g>
   <g id="patch_5">
    <path d="M 295.72583 82.38637 
Q 231.256376 57.735266 167.831218 33.483469 
" clip-path="url(#pf51296aeb0)" style="fill: none; stroke: #000000; stroke-linecap: round"/>
    <path d="M 170.853105 36.780164 
L 167.831218 33.483469 
L 172.281706 33.043976 
z
" clip-path="url(#pf51296aeb0)" style="stroke: #000000; stroke-linecap: round"/>
   </g>
   <g id="patch_6">
    <path d="M 45.364659 173.0118 
Q 99.339951 104.895568 152.620881 37.655614 
" clip-path="url(#pf51296aeb0)" style="fill: none; stroke: #000000; stroke-linecap: round"/>
    <path d="M 148.569124 39.548566 
L 152.620881 37.655614 
L 151.704188 42.032791 
z
" clip-path="url(#pf51296aeb0)" style="stroke: #000000; stroke-linecap: round"/>
   </g>
   <g id="patch_7">
    <path d="M 44.851047 186.966768 
Q 86.068426 247.70598 126.658012 307.520056 
" clip-path="url(#pf51296aeb0)" style="fill: none; stroke: #000000; stroke-linecap: round"/>
    <path d="M 126.066883 303.08716 
L 126.658012 307.520056 
L 122.757018 305.333221 
z
" clip-path="url(#pf51296aeb0)" style="stroke: #000000; stroke-linecap: round"/>
   </g>
   <g id="patch_8">
    <path d="M 140.714148 314.335812 
Q 217.078909 302.977851 292.3378 291.78437 
" clip-path="url(#pf51296aeb0)" style="fill: none; stroke: #000000; stroke-linecap: round"/>
    <path d="M 288.087093 290.39459 
L 292.3378 291.78437 
L 288.675552 294.351067 
z
" clip-path="url(#pf51296aeb0)" style="stroke: #000000; stroke-linecap: round"/>
   </g>
   <g id="text_1">
    <g id="patch_9">
     <path d="M 359.959784 264.946786 
L 370.891664 258.433751 
Q 373.468924 256.898261 371.933435 254.321001 
L 366.979881 246.006651 
Q 365.444391 243.429391 362.867131 244.96488 
L 351.935251 251.477916 
Q 349.357991 253.013406 350.89348 255.590666 
L 355.847034 263.905016 
Q 357.382524 266.482276 359.959784 264.946786 
z
" clip-path="url(#pf51296aeb0)" style="fill: #ffffff; stroke: #ffffff; stroke-linejoin: miter"/>
    </g>
    <g clip-path="url(#pf51296aeb0)">
     <!-- 43 -->
     <g transform="translate(357.359848 260.582894) rotate(-30.785796) scale(0.1 -0.1)">
      <defs>
       <path id="DejaVuSans-34" d="M 2419 4116 
L 825 1625 
L 2419 1625 
L 2419 4116 
z
M 2253 4666 
L 3047 4666 
L 3047 1625 
L 3713 1625 
L 3713 1100 
L 3047 1100 
L 3047 0 
L 2419 0 
L 2419 1100 
L 313 1100 
L 313 1709 
L 2253 4666 
z
" transform="scale(0.015625)"/>
       <path id="DejaVuSans-33" d="M 2597 2516 
Q 3050 2419 3304 2112 
Q 3559 1806 3559 1356 
Q 3559 666 3084 287 
Q 2609 -91 1734 -91 
Q 1441 -91 1130 -33 
Q 819 25 488 141 
L 488 750 
Q 750 597 1062 519 
Q 1375 441 1716 441 
Q 2309 441 2620 675 
Q 2931 909 2931 1356 
Q 2931 1769 2642 2001 
Q 2353 2234 1838 2234 
L 1294 2234 
L 1294 2753 
L 1863 2753 
Q 2328 2753 2575 2939 
Q 2822 3125 2822 3475 
Q 2822 3834 2567 4026 
Q 2313 4219 1838 4219 
Q 1578 4219 1281 4162 
Q 984 4106 628 3988 
L 628 4550 
Q 988 4650 1302 4700 
Q 1616 4750 1894 4750 
Q 2613 4750 3031 4423 
Q 3450 4097 3450 3541 
Q 3450 3153 3228 2886 
Q 3006 2619 2597 2516 
z
" transform="scale(0.015625)"/>
      </defs>
      <use xlink:href="#DejaVuSans-34"/>
      <use xlink:href="#DejaVuSans-33" x="63.623047"/>
     </g>
    </g>
   </g>
   <g id="text_2">
    <g id="patch_10">
     <path d="M 310.698198 194.344013 
L 310.810217 181.619506 
Q 310.836626 178.619622 307.836742 178.593213 
L 298.158992 178.508016 
Q 295.159109 178.481607 295.132699 181.48149 
L 295.02068 194.205997 
Q 294.994271 197.205881 297.994155 197.23229 
L 307.671905 197.317488 
Q 310.671788 197.343897 310.698198 194.344013 
z
" clip-path="url(#pf51296aeb0)" style="fill: #ffffff; stroke: #ffffff; stroke-linejoin: miter"/>
    </g>
    <g clip-path="url(#pf51296aeb0)">
     <!-- 14 -->
     <g transform="translate(305.618707 194.299296) rotate(-89.495614) scale(0.1 -0.1)">
      <defs>
       <path id="DejaVuSans-31" d="M 794 531 
L 1825 531 
L 1825 4091 
L 703 3866 
L 703 4441 
L 1819 4666 
L 2450 4666 
L 2450 531 
L 3481 531 
L 3481 0 
L 794 0 
L 794 531 
z
" transform="scale(0.015625)"/>
      </defs>
      <use xlink:href="#DejaVuSans-31"/>
      <use xlink:href="#DejaVuSans-34" x="63.623047"/>
     </g>
    </g>
   </g>
   <g id="text_3">
    <g id="patch_11">
     <path d="M 352.225472 152.883076 
L 360.591595 162.471277 
Q 362.563962 164.731757 364.824442 162.75939 
L 372.116844 156.396452 
Q 374.377323 154.424085 372.404956 152.163605 
L 364.038833 142.575404 
Q 362.066466 140.314924 359.805986 142.287291 
L 352.513585 148.650229 
Q 350.253105 150.622596 352.225472 152.883076 
z
" clip-path="url(#pf51296aeb0)" style="fill: #ffffff; stroke: #ffffff; stroke-linejoin: miter"/>
    </g>
    <g clip-path="url(#pf51296aeb0)">
     <!-- 23 -->
     <g transform="translate(356.052982 149.543406) rotate(-311.106115) scale(0.1 -0.1)">
      <defs>
       <path id="DejaVuSans-32" d="M 1228 531 
L 3431 531 
L 3431 0 
L 469 0 
L 469 531 
Q 828 903 1448 1529 
Q 2069 2156 2228 2338 
Q 2531 2678 2651 2914 
Q 2772 3150 2772 3378 
Q 2772 3750 2511 3984 
Q 2250 4219 1831 4219 
Q 1534 4219 1204 4116 
Q 875 4013 500 3803 
L 500 4441 
Q 881 4594 1212 4672 
Q 1544 4750 1819 4750 
Q 2544 4750 2975 4387 
Q 3406 4025 3406 3419 
Q 3406 3131 3298 2873 
Q 3191 2616 2906 2266 
Q 2828 2175 2409 1742 
Q 1991 1309 1228 531 
z
" transform="scale(0.015625)"/>
      </defs>
      <use xlink:href="#DejaVuSans-32"/>
      <use xlink:href="#DejaVuSans-33" x="63.623047"/>
     </g>
    </g>
   </g>
   <g id="text_4">
    <g id="patch_12">
     <path d="M 222.513529 62.784854 
L 234.399276 67.329592 
Q 237.201416 68.401043 238.272867 65.598902 
L 241.729413 56.559079 
Q 242.800864 53.756939 239.998723 52.685488 
L 228.112976 48.140749 
Q 225.310835 47.069298 224.239384 49.871439 
L 220.782839 58.911262 
Q 219.711388 61.713403 222.513529 62.784854 
z
" clip-path="url(#pf51296aeb0)" style="fill: #ffffff; stroke: #ffffff; stroke-linejoin: miter"/>
    </g>
    <g clip-path="url(#pf51296aeb0)">
     <!-- 42 -->
     <g transform="translate(224.327741 58.040187) rotate(-339.074709) scale(0.1 -0.1)">
      <use xlink:href="#DejaVuSans-34"/>
      <use xlink:href="#DejaVuSans-32" x="63.623047"/>
     </g>
    </g>
   </g>
   <g id="text_5">
    <g id="patch_13">
     <path d="M 101.533433 114.749565 
L 109.436373 104.776141 
Q 111.299541 102.424843 108.948243 100.561675 
L 101.362857 94.551016 
Q 99.011558 92.687847 97.14839 95.039146 
L 89.245451 105.012569 
Q 87.382282 107.363867 89.733581 109.227036 
L 97.318967 115.237695 
Q 99.670265 117.100863 101.533433 114.749565 
z
" clip-path="url(#pf51296aeb0)" style="fill: #ffffff; stroke: #ffffff; stroke-linejoin: miter"/>
    </g>
    <g clip-path="url(#pf51296aeb0)">
     <!-- 24 -->
     <g transform="translate(97.552147 111.594794) rotate(-51.6067) scale(0.1 -0.1)">
      <use xlink:href="#DejaVuSans-32"/>
      <use xlink:href="#DejaVuSans-34" x="63.623047"/>
     </g>
    </g>
   </g>
   <g id="text_6">
    <g id="patch_14">
     <path d="M 76.008066 246.841271 
L 83.153348 257.370781 
Q 84.837894 259.85318 87.320293 258.168634 
L 95.328616 252.734219 
Q 97.811015 251.049673 96.126469 248.567274 
L 88.981187 238.037765 
Q 87.296642 235.555365 84.814242 237.239911 
L 76.805919 242.674326 
Q 74.32352 244.358872 76.008066 246.841271 
z
" clip-path="url(#pf51296aeb0)" style="fill: #ffffff; stroke: #ffffff; stroke-linejoin: miter"/>
    </g>
    <g clip-path="url(#pf51296aeb0)">
     <!-- 35 -->
     <g transform="translate(80.211337 243.988949) rotate(-304.160654) scale(0.1 -0.1)">
      <defs>
       <path id="DejaVuSans-35" d="M 691 4666 
L 3169 4666 
L 3169 4134 
L 1269 4134 
L 1269 2991 
Q 1406 3038 1543 3061 
Q 1681 3084 1819 3084 
Q 2600 3084 3056 2656 
Q 3513 2228 3513 1497 
Q 3513 744 3044 326 
Q 2575 -91 1722 -91 
Q 1428 -91 1123 -41 
Q 819 9 494 109 
L 494 744 
Q 775 591 1075 516 
Q 1375 441 1709 441 
Q 2250 441 2565 725 
Q 2881 1009 2881 1497 
Q 2881 1984 2565 2268 
Q 2250 2553 1709 2553 
Q 1456 2553 1204 2497 
Q 953 2441 691 2322 
L 691 4666 
z
" transform="scale(0.015625)"/>
      </defs>
      <use xlink:href="#DejaVuSans-33"/>
      <use xlink:href="#DejaVuSans-35" x="63.623047"/>
     </g>
    </g>
   </g>
   <g id="text_7">
    <g id="patch_15">
     <path d="M 211.940694 311.667368 
L 224.527239 309.795333 
Q 227.494597 309.353989 227.053253 306.38663 
L 225.629459 296.813809 
Q 225.188115 293.846451 222.220756 294.287795 
L 209.634211 296.159829 
Q 206.666853 296.601174 207.108197 299.568532 
L 208.531992 309.141353 
Q 208.973336 312.108712 211.940694 311.667368 
z
" clip-path="url(#pf51296aeb0)" style="fill: #ffffff; stroke: #ffffff; stroke-linejoin: miter"/>
    </g>
    <g clip-path="url(#pf51296aeb0)">
     <!-- 34 -->
     <g transform="translate(211.193398 306.64295) rotate(-8.459757) scale(0.1 -0.1)">
      <use xlink:href="#DejaVuSans-33"/>
      <use xlink:href="#DejaVuSans-34" x="63.623047"/>
     </g>
    </g>
   </g>
   <g id="PathCollection_1">
    <defs>
     <path id="m62d1dd8bf4" d="M 0 8.660254 
C 2.296726 8.660254 4.499694 7.747755 6.123724 6.123724 
C 7.747755 4.499694 8.660254 2.296726 8.660254 0 
C 8.660254 -2.296726 7.747755 -4.499694 6.123724 -6.123724 
C 4.499694 -7.747755 2.296726 -8.660254 0 -8.660254 
C -2.296726 -8.660254 -4.499694 -7.747755 -6.123724 -6.123724 
C -7.747755 -4.499694 -8.660254 -2.296726 -8.660254 0 
C -8.660254 2.296726 -7.747755 4.499694 -6.123724 6.123724 
C -4.499694 7.747755 -2.296726 8.660254 0 8.660254 
z
" style="stroke: #ff0000"/>
    </defs>
    <g clip-path="url(#pf51296aeb0)">
     <use xlink:href="#m62d1dd8bf4" x="302.013692" y="290.345245" style="fill: #ff0000; stroke: #ff0000"/>
     <use xlink:href="#m62d1dd8bf4" x="420.813223" y="219.566422" style="fill: #ff0000; stroke: #ff0000"/>
     <use xlink:href="#m62d1dd8bf4" x="303.817205" y="85.480259" style="fill: #ff0000; stroke: #ff0000"/>
     <use xlink:href="#m62d1dd8bf4" x="158.695047" y="29.990083" style="fill: #ff0000; stroke: #ff0000"/>
     <use xlink:href="#m62d1dd8bf4" x="39.986777" y="179.798628" style="fill: #ff0000; stroke: #ff0000"/>
     <use xlink:href="#m62d1dd8bf4" x="132.147758" y="315.609917" style="fill: #ff0000; stroke: #ff0000"/>
    </g>
   </g>
   <g id="text_8">
    <g clip-path="url(#pf51296aeb0)">
     <!-- 0 -->
     <g style="fill: #ffffff" transform="translate(298.196192 293.656495) scale(0.12 -0.12)">
      <defs>
       <path id="DejaVuSans-30" d="M 2034 4250 
Q 1547 4250 1301 3770 
Q 1056 3291 1056 2328 
Q 1056 1369 1301 889 
Q 1547 409 2034 409 
Q 2525 409 2770 889 
Q 3016 1369 3016 2328 
Q 3016 3291 2770 3770 
Q 2525 4250 2034 4250 
z
M 2034 4750 
Q 2819 4750 3233 4129 
Q 3647 3509 3647 2328 
Q 3647 1150 3233 529 
Q 2819 -91 2034 -91 
Q 1250 -91 836 529 
Q 422 1150 422 2328 
Q 422 3509 836 4129 
Q 1250 4750 2034 4750 
z
" transform="scale(0.015625)"/>
      </defs>
      <use xlink:href="#DejaVuSans-30"/>
     </g>
    </g>
   </g>
   <g id="text_9">
    <g clip-path="url(#pf51296aeb0)">
     <!-- 1 -->
     <g style="fill: #ffffff" transform="translate(416.995723 222.877672) scale(0.12 -0.12)">
      <use xlink:href="#DejaVuSans-31"/>
     </g>
    </g>
   </g>
   <g id="text_10">
    <g clip-path="url(#pf51296aeb0)">
     <!-- 3 -->
     <g style="fill: #ffffff" transform="translate(299.999705 88.791509) scale(0.12 -0.12)">
      <use xlink:href="#DejaVuSans-33"/>
     </g>
    </g>
   </g>
   <g id="text_11">
    <g clip-path="url(#pf51296aeb0)">
     <!-- 4 -->
     <g style="fill: #ffffff" transform="translate(154.877547 33.301333) scale(0.12 -0.12)">
      <use xlink:href="#DejaVuSans-34"/>
     </g>
    </g>
   </g>
   <g id="text_12">
    <g clip-path="url(#pf51296aeb0)">
     <!-- 2 -->
     <g style="fill: #ffffff" transform="translate(36.169277 183.109878) scale(0.12 -0.12)">
      <use xlink:href="#DejaVuSans-32"/>
     </g>
    </g>
   </g>
   <g id="text_13">
    <g clip-path="url(#pf51296aeb0)">
     <!-- 5 -->
     <g style="fill: #ffffff" transform="translate(128.330258 318.921167) scale(0.12 -0.12)">
      <use xlink:href="#DejaVuSans-35"/>
     </g>
    </g>
   </g>
  </g>
 </g>
 <defs>
  <clipPath id="pf51296aeb0">
   <rect x="0" y="0" width="460.8" height="345.6"/>
  </clipPath>
 </defs>
</svg>
