<?xml version="1.0" encoding="utf-8" standalone="no"?>
<!DOCTYPE svg PUBLIC "-//W3C//DTD SVG 1.1//EN"
  "http://www.w3.org/Graphics/SVG/1.1/DTD/svg11.dtd">
<svg xmlns:xlink="http://www.w3.org/1999/xlink" width="460.8pt" height="345.6pt" viewBox="0 0 460.8 345.6" xmlns="http://www.w3.org/2000/svg" version="1.1">
 <metadata>
  <rdf:RDF xmlns:dc="http://purl.org/dc/elements/1.1/" xmlns:cc="http://creativecommons.org/ns#" xmlns:rdf="http://www.w3.org/1999/02/22-rdf-syntax-ns#">
   <cc:Work>
    <dc:type rdf:resource="http://purl.org/dc/dcmitype/StillImage"/>
    <dc:date>2023-04-02T21:36:47.927639</dc:date>
    <dc:format>image/svg+xml</dc:format>
    <dc:creator>
     <cc:Agent>
      <dc:title>Matplotlib v3.7.1, https://matplotlib.org/</dc:title>
     </cc:Agent>
    </dc:creator>
   </cc:Work>
  </rdf:RDF>
 </metadata>
 <defs>
  <style type="text/css">*{stroke-linejoin: round; stroke-linecap: butt}</style>
 </defs>
 <g id="figure_1">
  <g id="patch_1">
   <path d="M 0 345.6 
L 460.8 345.6 
L 460.8 0 
L 0 0 
z
" style="fill: #ffffff"/>
  </g>
  <g id="axes_1">
   <g id="patch_2">
    <path d="M 44.79098 165.593695 
Q 87.590594 101.394274 129.770035 38.125113 
" clip-path="url(#p7202734e9a)" style="fill: none; stroke: #000000; stroke-linecap: round"/>
    <path d="M 125.887134 40.343914 
L 129.770035 38.125113 
L 129.215335 42.562714 
z
" clip-path="url(#p7202734e9a)" style="stroke: #000000; stroke-linecap: round"/>
   </g>
   <g id="patch_3">
    <path d="M 47.729868 168.928454 
Q 87.587321 148.999728 126.444774 129.571001 
" clip-path="url(#p7202734e9a)" style="fill: none; stroke: #000000; stroke-linecap: round"/>
    <path d="M 121.972638 129.571001 
L 126.444774 129.571001 
L 123.761492 133.14871 
z
" clip-path="url(#p7202734e9a)" style="stroke: #000000; stroke-linecap: round"/>
   </g>
   <g id="patch_4">
    <path d="M 47.729868 176.671546 
Q 87.587321 196.600272 126.444774 216.028999 
" clip-path="url(#p7202734e9a)" style="fill: none; stroke: #000000; stroke-linecap: round"/>
    <path d="M 123.761492 212.45129 
L 126.444774 216.028999 
L 121.972638 216.028999 
z
" clip-path="url(#p7202734e9a)" style="stroke: #000000; stroke-linecap: round"/>
   </g>
   <g id="patch_5">
    <path d="M 44.79098 180.006305 
Q 87.590594 244.205726 129.770035 307.474887 
" clip-path="url(#p7202734e9a)" style="fill: none; stroke: #000000; stroke-linecap: round"/>
    <path d="M 129.215335 303.037286 
L 129.770035 307.474887 
L 125.887134 305.256086 
z
" clip-path="url(#p7202734e9a)" style="stroke: #000000; stroke-linecap: round"/>
   </g>
   <g id="patch_6">
    <path d="M 142.93648 33.861628 
Q 182.793933 53.790355 221.651386 73.219081 
" clip-path="url(#p7202734e9a)" style="fill: none; stroke: #000000; stroke-linecap: round"/>
    <path d="M 218.968104 69.641372 
L 221.651386 73.219081 
L 217.17925 73.219081 
z
" clip-path="url(#p7202734e9a)" style="stroke: #000000; stroke-linecap: round"/>
   </g>
   <g id="patch_7">
    <path d="M 139.997592 37.196388 
Q 182.797206 101.395809 224.976647 164.66497 
" clip-path="url(#p7202734e9a)" style="fill: none; stroke: #000000; stroke-linecap: round"/>
    <path d="M 224.421946 160.227368 
L 224.976647 164.66497 
L 221.093745 162.446169 
z
" clip-path="url(#p7202734e9a)" style="stroke: #000000; stroke-linecap: round"/>
   </g>
   <g id="patch_8">
    <path d="M 138.408297 38.027353 
Q 182.796231 148.997188 226.768937 258.928954 
" clip-path="url(#p7202734e9a)" style="fill: none; stroke: #000000; stroke-linecap: round"/>
    <path d="M 227.140328 254.472266 
L 226.768937 258.928954 
L 223.426421 255.957829 
z
" clip-path="url(#p7202734e9a)" style="stroke: #000000; stroke-linecap: round"/>
   </g>
   <g id="patch_9">
    <path d="M 142.93648 121.325149 
Q 182.793933 101.396422 221.651386 81.967696 
" clip-path="url(#p7202734e9a)" style="fill: none; stroke: #000000; stroke-linecap: round"/>
    <path d="M 217.17925 81.967696 
L 221.651386 81.967696 
L 218.968104 85.545404 
z
" clip-path="url(#p7202734e9a)" style="stroke: #000000; stroke-linecap: round"/>
   </g>
   <g id="patch_10">
    <path d="M 142.93648 129.06824 
Q 182.793933 148.996966 221.651386 168.425693 
" clip-path="url(#p7202734e9a)" style="fill: none; stroke: #000000; stroke-linecap: round"/>
    <path d="M 218.968104 164.847984 
L 221.651386 168.425693 
L 217.17925 168.425693 
z
" clip-path="url(#p7202734e9a)" style="stroke: #000000; stroke-linecap: round"/>
   </g>
   <g id="patch_11">
    <path d="M 142.93648 224.274851 
Q 182.793933 244.203578 221.651386 263.632304 
" clip-path="url(#p7202734e9a)" style="fill: none; stroke: #000000; stroke-linecap: round"/>
    <path d="M 218.968104 260.054596 
L 221.651386 263.632304 
L 217.17925 263.632304 
z
" clip-path="url(#p7202734e9a)" style="stroke: #000000; stroke-linecap: round"/>
   </g>
   <g id="patch_12">
    <path d="M 139.997592 308.403612 
Q 182.797206 244.204191 224.976647 180.93503 
" clip-path="url(#p7202734e9a)" style="fill: none; stroke: #000000; stroke-linecap: round"/>
    <path d="M 221.093745 183.153831 
L 224.976647 180.93503 
L 224.421946 185.372632 
z
" clip-path="url(#p7202734e9a)" style="stroke: #000000; stroke-linecap: round"/>
   </g>
   <g id="patch_13">
    <path d="M 142.93648 311.738372 
Q 182.793933 291.809645 221.651386 272.380919 
" clip-path="url(#p7202734e9a)" style="fill: none; stroke: #000000; stroke-linecap: round"/>
    <path d="M 217.17925 272.380919 
L 221.651386 272.380919 
L 218.968104 275.958628 
z
" clip-path="url(#p7202734e9a)" style="stroke: #000000; stroke-linecap: round"/>
   </g>
   <g id="patch_14">
    <path d="M 239.061222 77.593388 
Q 278.003742 77.593388 315.828228 77.593388 
" clip-path="url(#p7202734e9a)" style="fill: none; stroke: #000000; stroke-linecap: round"/>
    <path d="M 311.828228 75.593388 
L 315.828228 77.593388 
L 311.828228 79.593388 
z
" clip-path="url(#p7202734e9a)" style="stroke: #000000; stroke-linecap: round"/>
   </g>
   <g id="patch_15">
    <path d="M 236.521836 83.715225 
Q 278.001663 125.195051 318.69092 165.884309 
" clip-path="url(#p7202734e9a)" style="fill: none; stroke: #000000; stroke-linecap: round"/>
    <path d="M 317.276707 161.641668 
L 318.69092 165.884309 
L 314.448279 164.470095 
z
" clip-path="url(#p7202734e9a)" style="stroke: #000000; stroke-linecap: round"/>
   </g>
   <g id="patch_16">
    <path d="M 236.521836 166.678164 
Q 278.001663 125.198337 318.69092 84.50908 
" clip-path="url(#p7202734e9a)" style="fill: none; stroke: #000000; stroke-linecap: round"/>
    <path d="M 314.448279 85.923293 
L 318.69092 84.50908 
L 317.276707 88.751721 
z
" clip-path="url(#p7202734e9a)" style="stroke: #000000; stroke-linecap: round"/>
   </g>
   <g id="patch_17">
    <path d="M 239.061222 172.8 
Q 278.003742 172.8 315.828228 172.8 
" clip-path="url(#p7202734e9a)" style="fill: none; stroke: #000000; stroke-linecap: round"/>
    <path d="M 311.828228 170.8 
L 315.828228 172.8 
L 311.828228 174.8 
z
" clip-path="url(#p7202734e9a)" style="stroke: #000000; stroke-linecap: round"/>
   </g>
   <g id="patch_18">
    <path d="M 236.521836 261.884775 
Q 278.001663 220.404949 318.69092 179.715691 
" clip-path="url(#p7202734e9a)" style="fill: none; stroke: #000000; stroke-linecap: round"/>
    <path d="M 314.448279 181.129905 
L 318.69092 179.715691 
L 317.276707 183.958332 
z
" clip-path="url(#p7202734e9a)" style="stroke: #000000; stroke-linecap: round"/>
   </g>
   <g id="patch_19">
    <path d="M 239.061222 268.006612 
Q 278.003742 268.006612 315.828228 268.006612 
" clip-path="url(#p7202734e9a)" style="fill: none; stroke: #000000; stroke-linecap: round"/>
    <path d="M 311.828228 266.006612 
L 315.828228 268.006612 
L 311.828228 270.006612 
z
" clip-path="url(#p7202734e9a)" style="stroke: #000000; stroke-linecap: round"/>
   </g>
   <g id="patch_20">
    <path d="M 331.728448 83.715225 
Q 373.208274 125.195051 413.897532 165.884309 
" clip-path="url(#p7202734e9a)" style="fill: none; stroke: #000000; stroke-linecap: round"/>
    <path d="M 412.483318 161.641668 
L 413.897532 165.884309 
L 409.654891 164.470095 
z
" clip-path="url(#p7202734e9a)" style="stroke: #000000; stroke-linecap: round"/>
   </g>
   <g id="patch_21">
    <path d="M 334.267833 172.8 
Q 373.210353 172.8 411.03484 172.8 
" clip-path="url(#p7202734e9a)" style="fill: none; stroke: #000000; stroke-linecap: round"/>
    <path d="M 407.03484 170.8 
L 411.03484 172.8 
L 407.03484 174.8 
z
" clip-path="url(#p7202734e9a)" style="stroke: #000000; stroke-linecap: round"/>
   </g>
   <g id="patch_22">
    <path d="M 331.728448 261.884775 
Q 373.208274 220.404949 413.897532 179.715691 
" clip-path="url(#p7202734e9a)" style="fill: none; stroke: #000000; stroke-linecap: round"/>
    <path d="M 409.654891 181.129905 
L 413.897532 179.715691 
L 412.483318 183.958332 
z
" clip-path="url(#p7202734e9a)" style="stroke: #000000; stroke-linecap: round"/>
   </g>
   <g id="patch_23">
    <path d="M 44.79098 165.593695 
Q 87.590594 101.394274 129.770035 38.125113 
" clip-path="url(#p7202734e9a)" style="fill: none; stroke: #0000ff; stroke-linecap: round"/>
    <path d="M 125.887134 40.343914 
L 129.770035 38.125113 
L 129.215335 42.562714 
z
" clip-path="url(#p7202734e9a)" style="fill: #0000ff; stroke: #0000ff; stroke-linecap: round"/>
   </g>
   <g id="patch_24">
    <path d="M 139.997592 37.196388 
Q 182.797206 101.395809 224.976647 164.66497 
" clip-path="url(#p7202734e9a)" style="fill: none; stroke: #0000ff; stroke-linecap: round"/>
    <path d="M 224.421946 160.227368 
L 224.976647 164.66497 
L 221.093745 162.446169 
z
" clip-path="url(#p7202734e9a)" style="fill: #0000ff; stroke: #0000ff; stroke-linecap: round"/>
   </g>
   <g id="patch_25">
    <path d="M 239.061222 172.8 
Q 278.003742 172.8 315.828228 172.8 
" clip-path="url(#p7202734e9a)" style="fill: none; stroke: #0000ff; stroke-linecap: round"/>
    <path d="M 311.828228 170.8 
L 315.828228 172.8 
L 311.828228 174.8 
z
" clip-path="url(#p7202734e9a)" style="fill: #0000ff; stroke: #0000ff; stroke-linecap: round"/>
   </g>
   <g id="patch_26">
    <path d="M 334.267833 172.8 
Q 373.210353 172.8 411.03484 172.8 
" clip-path="url(#p7202734e9a)" style="fill: none; stroke: #0000ff; stroke-linecap: round"/>
    <path d="M 407.03484 170.8 
L 411.03484 172.8 
L 407.03484 174.8 
z
" clip-path="url(#p7202734e9a)" style="fill: #0000ff; stroke: #0000ff; stroke-linecap: round"/>
   </g>
   <g id="text_1">
    <g id="patch_27">
     <path d="M 106.628929 86.968843 
L 110.158209 81.674923 
Q 111.822309 79.178772 109.326158 77.514672 
L 101.273472 72.146214 
Q 98.777321 70.482113 97.11322 72.978264 
L 93.58394 78.272184 
Q 91.91984 80.768335 94.41599 82.432436 
L 102.468677 87.800894 
Q 104.964828 89.464994 106.628929 86.968843 
z
" clip-path="url(#p7202734e9a)" style="fill: #ffffff; stroke: #ffffff; stroke-linejoin: miter"/>
    </g>
    <g clip-path="url(#p7202734e9a)">
     <!-- 9 -->
     <g transform="translate(102.402373 84.15114) rotate(-56.309932) scale(0.1 -0.1)">
      <defs>
       <path id="DejaVuSans-39" d="M 703 97 
L 703 672 
Q 941 559 1184 500 
Q 1428 441 1663 441 
Q 2288 441 2617 861 
Q 2947 1281 2994 2138 
Q 2813 1869 2534 1725 
Q 2256 1581 1919 1581 
Q 1219 1581 811 2004 
Q 403 2428 403 3163 
Q 403 3881 828 4315 
Q 1253 4750 1959 4750 
Q 2769 4750 3195 4129 
Q 3622 3509 3622 2328 
Q 3622 1225 3098 567 
Q 2575 -91 1691 -91 
Q 1453 -91 1209 -44 
Q 966 3 703 97 
z
M 1959 2075 
Q 2384 2075 2632 2365 
Q 2881 2656 2881 3163 
Q 2881 3666 2632 3958 
Q 2384 4250 1959 4250 
Q 1534 4250 1286 3958 
Q 1038 3666 1038 3163 
Q 1038 2656 1286 2365 
Q 1534 2075 1959 2075 
z
" transform="scale(0.015625)"/>
      </defs>
      <use xlink:href="#DejaVuSans-39"/>
     </g>
    </g>
   </g>
   <g id="text_2">
    <g id="patch_28">
     <path d="M 102.531413 150.29202 
L 108.222206 147.446624 
Q 110.905488 146.104983 109.563847 143.421701 
L 105.235658 134.765323 
Q 103.894017 132.082042 101.210736 133.423682 
L 95.519943 136.269079 
Q 92.836661 137.61072 94.178302 140.294001 
L 98.506491 148.950379 
Q 99.848132 151.633661 102.531413 150.29202 
z
" clip-path="url(#p7202734e9a)" style="fill: #ffffff; stroke: #ffffff; stroke-linejoin: miter"/>
    </g>
    <g clip-path="url(#p7202734e9a)">
     <!-- 7 -->
     <g transform="translate(100.259708 145.74861) rotate(-26.565051) scale(0.1 -0.1)">
      <defs>
       <path id="DejaVuSans-37" d="M 525 4666 
L 3525 4666 
L 3525 4397 
L 1831 0 
L 1172 0 
L 2766 4134 
L 525 4134 
L 525 4666 
z
" transform="scale(0.015625)"/>
      </defs>
      <use xlink:href="#DejaVuSans-37"/>
     </g>
    </g>
   </g>
   <g id="text_3">
    <g id="patch_29">
     <path d="M 95.519943 209.330921 
L 101.210736 212.176318 
Q 103.894017 213.517958 105.235658 210.834677 
L 109.563847 202.178299 
Q 110.905488 199.495017 108.222206 198.153376 
L 102.531413 195.30798 
Q 99.848132 193.966339 98.506491 196.649621 
L 94.178302 205.305999 
Q 92.836661 207.98928 95.519943 209.330921 
z
" clip-path="url(#p7202734e9a)" style="fill: #ffffff; stroke: #ffffff; stroke-linejoin: miter"/>
    </g>
    <g clip-path="url(#p7202734e9a)">
     <!-- 3 -->
     <g transform="translate(97.791648 204.787511) rotate(-333.434949) scale(0.1 -0.1)">
      <defs>
       <path id="DejaVuSans-33" d="M 2597 2516 
Q 3050 2419 3304 2112 
Q 3559 1806 3559 1356 
Q 3559 666 3084 287 
Q 2609 -91 1734 -91 
Q 1441 -91 1130 -33 
Q 819 25 488 141 
L 488 750 
Q 750 597 1062 519 
Q 1375 441 1716 441 
Q 2309 441 2620 675 
Q 2931 909 2931 1356 
Q 2931 1769 2642 2001 
Q 2353 2234 1838 2234 
L 1294 2234 
L 1294 2753 
L 1863 2753 
Q 2328 2753 2575 2939 
Q 2822 3125 2822 3475 
Q 2822 3834 2567 4026 
Q 2313 4219 1838 4219 
Q 1578 4219 1281 4162 
Q 984 4106 628 3988 
L 628 4550 
Q 988 4650 1302 4700 
Q 1616 4750 1894 4750 
Q 2613 4750 3031 4423 
Q 3450 4097 3450 3541 
Q 3450 3153 3228 2886 
Q 3006 2619 2597 2516 
z
" transform="scale(0.015625)"/>
      </defs>
      <use xlink:href="#DejaVuSans-33"/>
     </g>
    </g>
   </g>
   <g id="text_4">
    <g id="patch_30">
     <path d="M 93.58394 267.327816 
L 97.11322 272.621736 
Q 98.777321 275.117887 101.273472 273.453786 
L 109.326158 268.085328 
Q 111.822309 266.421228 110.158209 263.925077 
L 106.628929 258.631157 
Q 104.964828 256.135006 102.468677 257.799106 
L 94.41599 263.167564 
Q 91.91984 264.831665 93.58394 267.327816 
z
" clip-path="url(#p7202734e9a)" style="fill: #ffffff; stroke: #ffffff; stroke-linejoin: miter"/>
    </g>
    <g clip-path="url(#p7202734e9a)">
     <!-- 2 -->
     <g transform="translate(97.810496 264.510112) rotate(-303.690068) scale(0.1 -0.1)">
      <defs>
       <path id="DejaVuSans-32" d="M 1228 531 
L 3431 531 
L 3431 0 
L 469 0 
L 469 531 
Q 828 903 1448 1529 
Q 2069 2156 2228 2338 
Q 2531 2678 2651 2914 
Q 2772 3150 2772 3378 
Q 2772 3750 2511 3984 
Q 2250 4219 1831 4219 
Q 1534 4219 1204 4116 
Q 875 4013 500 3803 
L 500 4441 
Q 881 4594 1212 4672 
Q 1544 4750 1819 4750 
Q 2544 4750 2975 4387 
Q 3406 4025 3406 3419 
Q 3406 3131 3298 2873 
Q 3191 2616 2906 2266 
Q 2828 2175 2409 1742 
Q 1991 1309 1228 531 
z
" transform="scale(0.015625)"/>
      </defs>
      <use xlink:href="#DejaVuSans-32"/>
     </g>
    </g>
   </g>
   <g id="text_5">
    <g id="patch_31">
     <path d="M 190.726554 66.521004 
L 196.417347 69.3664 
Q 199.100629 70.708041 200.442269 68.02476 
L 204.770459 59.368381 
Q 206.112099 56.6851 203.428818 55.343459 
L 197.738025 52.498063 
Q 195.054743 51.156422 193.713102 53.839703 
L 189.384913 62.496081 
Q 188.043273 65.179363 190.726554 66.521004 
z
" clip-path="url(#p7202734e9a)" style="fill: #ffffff; stroke: #ffffff; stroke-linejoin: miter"/>
    </g>
    <g clip-path="url(#p7202734e9a)">
     <!-- 4 -->
     <g transform="translate(192.998259 61.977593) rotate(-333.434949) scale(0.1 -0.1)">
      <defs>
       <path id="DejaVuSans-34" d="M 2419 4116 
L 825 1625 
L 2419 1625 
L 2419 4116 
z
M 2253 4666 
L 3047 4666 
L 3047 1625 
L 3713 1625 
L 3713 1100 
L 3047 1100 
L 3047 0 
L 2419 0 
L 2419 1100 
L 313 1100 
L 313 1709 
L 2253 4666 
z
" transform="scale(0.015625)"/>
      </defs>
      <use xlink:href="#DejaVuSans-34"/>
     </g>
    </g>
   </g>
   <g id="text_6">
    <g id="patch_32">
     <path d="M 188.790552 124.517898 
L 192.319832 129.811818 
Q 193.983932 132.307969 196.480083 130.643869 
L 204.53277 125.275411 
Q 207.028921 123.61131 205.36482 121.115159 
L 201.83554 115.821239 
Q 200.17144 113.325089 197.675289 114.989189 
L 189.622602 120.357647 
Q 187.126451 122.021748 188.790552 124.517898 
z
" clip-path="url(#p7202734e9a)" style="fill: #ffffff; stroke: #ffffff; stroke-linejoin: miter"/>
    </g>
    <g clip-path="url(#p7202734e9a)">
     <!-- 2 -->
     <g transform="translate(193.017107 121.700195) rotate(-303.690068) scale(0.1 -0.1)">
      <use xlink:href="#DejaVuSans-32"/>
     </g>
    </g>
   </g>
   <g id="text_7">
    <g id="patch_33">
     <path d="M 188.617813 184.658465 
L 190.980786 190.565898 
Q 192.094958 193.351328 194.880388 192.237156 
L 203.866301 188.64279 
Q 206.651731 187.528618 205.537559 184.743188 
L 203.174586 178.835755 
Q 202.060414 176.050325 199.274984 177.164497 
L 190.289071 180.758863 
Q 187.503641 181.873035 188.617813 184.658465 
z
" clip-path="url(#p7202734e9a)" style="fill: #ffffff; stroke: #ffffff; stroke-linejoin: miter"/>
    </g>
    <g clip-path="url(#p7202734e9a)">
     <!-- 1 -->
     <g transform="translate(193.334184 182.771916) rotate(-291.801409) scale(0.1 -0.1)">
      <defs>
       <path id="DejaVuSans-31" d="M 794 531 
L 1825 531 
L 1825 4091 
L 703 3866 
L 703 4441 
L 1819 4666 
L 2450 4666 
L 2450 531 
L 3481 531 
L 3481 0 
L 794 0 
L 794 531 
z
" transform="scale(0.015625)"/>
      </defs>
      <use xlink:href="#DejaVuSans-31"/>
     </g>
    </g>
   </g>
   <g id="text_8">
    <g id="patch_34">
     <path d="M 197.738025 102.688714 
L 203.428818 99.843318 
Q 206.112099 98.501677 204.770459 95.818395 
L 200.442269 87.162017 
Q 199.100629 84.478736 196.417347 85.820377 
L 190.726554 88.665773 
Q 188.043273 90.007414 189.384913 92.690695 
L 193.713102 101.347074 
Q 195.054743 104.030355 197.738025 102.688714 
z
" clip-path="url(#p7202734e9a)" style="fill: #ffffff; stroke: #ffffff; stroke-linejoin: miter"/>
    </g>
    <g clip-path="url(#p7202734e9a)">
     <!-- 2 -->
     <g transform="translate(195.466319 98.145304) rotate(-26.565051) scale(0.1 -0.1)">
      <use xlink:href="#DejaVuSans-32"/>
     </g>
    </g>
   </g>
   <g id="text_9">
    <g id="patch_35">
     <path d="M 190.726554 161.727615 
L 196.417347 164.573012 
Q 199.100629 165.914653 200.442269 163.231371 
L 204.770459 154.574993 
Q 206.112099 151.891711 203.428818 150.550071 
L 197.738025 147.704674 
Q 195.054743 146.363033 193.713102 149.046315 
L 189.384913 157.702693 
Q 188.043273 160.385975 190.726554 161.727615 
z
" clip-path="url(#p7202734e9a)" style="fill: #ffffff; stroke: #ffffff; stroke-linejoin: miter"/>
    </g>
    <g clip-path="url(#p7202734e9a)">
     <!-- 7 -->
     <g transform="translate(192.998259 157.184205) rotate(-333.434949) scale(0.1 -0.1)">
      <use xlink:href="#DejaVuSans-37"/>
     </g>
    </g>
   </g>
   <g id="text_10">
    <g id="patch_36">
     <path d="M 187.881158 255.511529 
L 199.262744 261.202322 
Q 201.946025 262.543962 203.287666 259.860681 
L 207.615855 251.204303 
Q 208.957496 248.521021 206.274214 247.17938 
L 194.892628 241.488587 
Q 192.209347 240.146947 190.867706 242.830228 
L 186.539517 251.486606 
Q 185.197876 254.169888 187.881158 255.511529 
z
" clip-path="url(#p7202734e9a)" style="fill: #ffffff; stroke: #ffffff; stroke-linejoin: miter"/>
    </g>
    <g clip-path="url(#p7202734e9a)">
     <!-- 11 -->
     <g transform="translate(190.152863 250.968118) rotate(-333.434949) scale(0.1 -0.1)">
      <use xlink:href="#DejaVuSans-31"/>
      <use xlink:href="#DejaVuSans-31" x="63.623047"/>
     </g>
    </g>
   </g>
   <g id="text_11">
    <g id="patch_37">
     <path d="M 200.0709 232.425721 
L 207.12946 221.837881 
Q 208.793561 219.34173 206.29741 217.677629 
L 198.244723 212.309171 
Q 195.748572 210.645071 194.084472 213.141222 
L 187.025912 223.729062 
Q 185.361811 226.225212 187.857962 227.889313 
L 195.910649 233.257771 
Q 198.4068 234.921871 200.0709 232.425721 
z
" clip-path="url(#p7202734e9a)" style="fill: #ffffff; stroke: #ffffff; stroke-linejoin: miter"/>
    </g>
    <g clip-path="url(#p7202734e9a)">
     <!-- 11 -->
     <g transform="translate(195.844345 229.608017) rotate(-56.309932) scale(0.1 -0.1)">
      <use xlink:href="#DejaVuSans-31"/>
      <use xlink:href="#DejaVuSans-31" x="63.623047"/>
     </g>
    </g>
   </g>
   <g id="text_12">
    <g id="patch_38">
     <path d="M 197.738025 293.101937 
L 203.428818 290.256541 
Q 206.112099 288.9149 204.770459 286.231619 
L 200.442269 277.57524 
Q 199.100629 274.891959 196.417347 276.2336 
L 190.726554 279.078996 
Q 188.043273 280.420637 189.384913 283.103919 
L 193.713102 291.760297 
Q 195.054743 294.443578 197.738025 293.101937 
z
" clip-path="url(#p7202734e9a)" style="fill: #ffffff; stroke: #ffffff; stroke-linejoin: miter"/>
    </g>
    <g clip-path="url(#p7202734e9a)">
     <!-- 8 -->
     <g transform="translate(195.466319 288.558527) rotate(-26.565051) scale(0.1 -0.1)">
      <defs>
       <path id="DejaVuSans-38" d="M 2034 2216 
Q 1584 2216 1326 1975 
Q 1069 1734 1069 1313 
Q 1069 891 1326 650 
Q 1584 409 2034 409 
Q 2484 409 2743 651 
Q 3003 894 3003 1313 
Q 3003 1734 2745 1975 
Q 2488 2216 2034 2216 
z
M 1403 2484 
Q 997 2584 770 2862 
Q 544 3141 544 3541 
Q 544 4100 942 4425 
Q 1341 4750 2034 4750 
Q 2731 4750 3128 4425 
Q 3525 4100 3525 3541 
Q 3525 3141 3298 2862 
Q 3072 2584 2669 2484 
Q 3125 2378 3379 2068 
Q 3634 1759 3634 1313 
Q 3634 634 3220 271 
Q 2806 -91 2034 -91 
Q 1263 -91 848 271 
Q 434 634 434 1313 
Q 434 1759 690 2068 
Q 947 2378 1403 2484 
z
M 1172 3481 
Q 1172 3119 1398 2916 
Q 1625 2713 2034 2713 
Q 2441 2713 2670 2916 
Q 2900 3119 2900 3481 
Q 2900 3844 2670 4047 
Q 2441 4250 2034 4250 
Q 1625 4250 1398 4047 
Q 1172 3844 1172 3481 
z
" transform="scale(0.015625)"/>
      </defs>
      <use xlink:href="#DejaVuSans-38"/>
     </g>
    </g>
   </g>
   <g id="text_13">
    <g id="patch_39">
     <path d="M 289.103048 85.432451 
L 295.465548 85.432451 
Q 298.465548 85.432451 298.465548 82.432451 
L 298.465548 72.754326 
Q 298.465548 69.754326 295.465548 69.754326 
L 289.103048 69.754326 
Q 286.103048 69.754326 286.103048 72.754326 
L 286.103048 82.432451 
Q 286.103048 85.432451 289.103048 85.432451 
z
" clip-path="url(#p7202734e9a)" style="fill: #ffffff; stroke: #ffffff; stroke-linejoin: miter"/>
    </g>
    <g clip-path="url(#p7202734e9a)">
     <!-- 6 -->
     <g transform="translate(289.103048 80.352763) scale(0.1 -0.1)">
      <defs>
       <path id="DejaVuSans-36" d="M 2113 2584 
Q 1688 2584 1439 2293 
Q 1191 2003 1191 1497 
Q 1191 994 1439 701 
Q 1688 409 2113 409 
Q 2538 409 2786 701 
Q 3034 994 3034 1497 
Q 3034 2003 2786 2293 
Q 2538 2584 2113 2584 
z
M 3366 4563 
L 3366 3988 
Q 3128 4100 2886 4159 
Q 2644 4219 2406 4219 
Q 1781 4219 1451 3797 
Q 1122 3375 1075 2522 
Q 1259 2794 1537 2939 
Q 1816 3084 2150 3084 
Q 2853 3084 3261 2657 
Q 3669 2231 3669 1497 
Q 3669 778 3244 343 
Q 2819 -91 2113 -91 
Q 1303 -91 875 529 
Q 447 1150 447 2328 
Q 447 3434 972 4092 
Q 1497 4750 2381 4750 
Q 2619 4750 2861 4703 
Q 3103 4656 3366 4563 
z
" transform="scale(0.015625)"/>
      </defs>
      <use xlink:href="#DejaVuSans-36"/>
     </g>
    </g>
   </g>
   <g id="text_14">
    <g id="patch_40">
     <path d="M 284.49176 142.771257 
L 288.990727 147.270224 
Q 291.112047 149.391544 293.233367 147.270224 
L 300.076835 140.426756 
Q 302.198156 138.305435 300.076835 136.184115 
L 295.577868 131.685148 
Q 293.456548 129.563828 291.335228 131.685148 
L 284.49176 138.528616 
Q 282.370439 140.649936 284.49176 142.771257 
z
" clip-path="url(#p7202734e9a)" style="fill: #ffffff; stroke: #ffffff; stroke-linejoin: miter"/>
    </g>
    <g clip-path="url(#p7202734e9a)">
     <!-- 5 -->
     <g transform="translate(288.083641 139.179375) rotate(-315) scale(0.1 -0.1)">
      <defs>
       <path id="DejaVuSans-35" d="M 691 4666 
L 3169 4666 
L 3169 4134 
L 1269 4134 
L 1269 2991 
Q 1406 3038 1543 3061 
Q 1681 3084 1819 3084 
Q 2600 3084 3056 2656 
Q 3513 2228 3513 1497 
Q 3513 744 3044 326 
Q 2575 -91 1722 -91 
Q 1428 -91 1123 -41 
Q 819 9 494 109 
L 494 744 
Q 775 591 1075 516 
Q 1375 441 1709 441 
Q 2250 441 2565 725 
Q 2881 1009 2881 1497 
Q 2881 1984 2565 2268 
Q 2250 2553 1709 2553 
Q 1456 2553 1204 2497 
Q 953 2441 691 2322 
L 691 4666 
z
" transform="scale(0.015625)"/>
      </defs>
      <use xlink:href="#DejaVuSans-35"/>
     </g>
    </g>
   </g>
   <g id="text_15">
    <g id="patch_41">
     <path d="M 295.577868 118.70824 
L 300.076835 114.209273 
Q 302.198156 112.087953 300.076835 109.966633 
L 293.233367 103.123165 
Q 291.112047 101.001844 288.990727 103.123165 
L 284.49176 107.622132 
Q 282.370439 109.743452 284.49176 111.864772 
L 291.335228 118.70824 
Q 293.456548 120.829561 295.577868 118.70824 
z
" clip-path="url(#p7202734e9a)" style="fill: #ffffff; stroke: #ffffff; stroke-linejoin: miter"/>
    </g>
    <g clip-path="url(#p7202734e9a)">
     <!-- 4 -->
     <g transform="translate(291.985987 115.116359) rotate(-45) scale(0.1 -0.1)">
      <use xlink:href="#DejaVuSans-34"/>
     </g>
    </g>
   </g>
   <g id="text_16">
    <g id="patch_42">
     <path d="M 289.103048 180.639062 
L 295.465548 180.639062 
Q 298.465548 180.639062 298.465548 177.639062 
L 298.465548 167.960938 
Q 298.465548 164.960938 295.465548 164.960938 
L 289.103048 164.960938 
Q 286.103048 164.960938 286.103048 167.960938 
L 286.103048 177.639062 
Q 286.103048 180.639062 289.103048 180.639062 
z
" clip-path="url(#p7202734e9a)" style="fill: #ffffff; stroke: #ffffff; stroke-linejoin: miter"/>
    </g>
    <g clip-path="url(#p7202734e9a)">
     <!-- 3 -->
     <g transform="translate(289.103048 175.559375) scale(0.1 -0.1)">
      <use xlink:href="#DejaVuSans-33"/>
     </g>
    </g>
   </g>
   <g id="text_17">
    <g id="patch_43">
     <path d="M 295.577868 213.914852 
L 300.076835 209.415885 
Q 302.198156 207.294565 300.076835 205.173244 
L 293.233367 198.329776 
Q 291.112047 196.208456 288.990727 198.329776 
L 284.49176 202.828743 
Q 282.370439 204.950064 284.49176 207.071384 
L 291.335228 213.914852 
Q 293.456548 216.036172 295.577868 213.914852 
z
" clip-path="url(#p7202734e9a)" style="fill: #ffffff; stroke: #ffffff; stroke-linejoin: miter"/>
    </g>
    <g clip-path="url(#p7202734e9a)">
     <!-- 5 -->
     <g transform="translate(291.985987 210.32297) rotate(-45) scale(0.1 -0.1)">
      <use xlink:href="#DejaVuSans-35"/>
     </g>
    </g>
   </g>
   <g id="text_18">
    <g id="patch_44">
     <path d="M 289.103048 275.845674 
L 295.465548 275.845674 
Q 298.465548 275.845674 298.465548 272.845674 
L 298.465548 263.167549 
Q 298.465548 260.167549 295.465548 260.167549 
L 289.103048 260.167549 
Q 286.103048 260.167549 286.103048 263.167549 
L 286.103048 272.845674 
Q 286.103048 275.845674 289.103048 275.845674 
z
" clip-path="url(#p7202734e9a)" style="fill: #ffffff; stroke: #ffffff; stroke-linejoin: miter"/>
    </g>
    <g clip-path="url(#p7202734e9a)">
     <!-- 6 -->
     <g transform="translate(289.103048 270.765987) scale(0.1 -0.1)">
      <use xlink:href="#DejaVuSans-36"/>
     </g>
    </g>
   </g>
   <g id="text_19">
    <g id="patch_45">
     <path d="M 379.698371 142.771257 
L 384.197338 147.270224 
Q 386.318659 149.391544 388.439979 147.270224 
L 395.283447 140.426756 
Q 397.404767 138.305435 395.283447 136.184115 
L 390.78448 131.685148 
Q 388.66316 129.563828 386.541839 131.685148 
L 379.698371 138.528616 
Q 377.577051 140.649936 379.698371 142.771257 
z
" clip-path="url(#p7202734e9a)" style="fill: #ffffff; stroke: #ffffff; stroke-linejoin: miter"/>
    </g>
    <g clip-path="url(#p7202734e9a)">
     <!-- 4 -->
     <g transform="translate(383.290253 139.179375) rotate(-315) scale(0.1 -0.1)">
      <use xlink:href="#DejaVuSans-34"/>
     </g>
    </g>
   </g>
   <g id="text_20">
    <g id="patch_46">
     <path d="M 384.309659 180.639062 
L 390.672159 180.639062 
Q 393.672159 180.639062 393.672159 177.639062 
L 393.672159 167.960938 
Q 393.672159 164.960938 390.672159 164.960938 
L 384.309659 164.960938 
Q 381.309659 164.960938 381.309659 167.960938 
L 381.309659 177.639062 
Q 381.309659 180.639062 384.309659 180.639062 
z
" clip-path="url(#p7202734e9a)" style="fill: #ffffff; stroke: #ffffff; stroke-linejoin: miter"/>
    </g>
    <g clip-path="url(#p7202734e9a)">
     <!-- 2 -->
     <g transform="translate(384.309659 175.559375) scale(0.1 -0.1)">
      <use xlink:href="#DejaVuSans-32"/>
     </g>
    </g>
   </g>
   <g id="text_21">
    <g id="patch_47">
     <path d="M 390.78448 213.914852 
L 395.283447 209.415885 
Q 397.404767 207.294565 395.283447 205.173244 
L 388.439979 198.329776 
Q 386.318659 196.208456 384.197338 198.329776 
L 379.698371 202.828743 
Q 377.577051 204.950064 379.698371 207.071384 
L 386.541839 213.914852 
Q 388.66316 216.036172 390.78448 213.914852 
z
" clip-path="url(#p7202734e9a)" style="fill: #ffffff; stroke: #ffffff; stroke-linejoin: miter"/>
    </g>
    <g clip-path="url(#p7202734e9a)">
     <!-- 5 -->
     <g transform="translate(387.192598 210.32297) rotate(-45) scale(0.1 -0.1)">
      <use xlink:href="#DejaVuSans-35"/>
     </g>
    </g>
   </g>
   <g id="PathCollection_1">
    <defs>
     <path id="mb9e984df71" d="M 0 8.660254 
C 2.296726 8.660254 4.499694 7.747755 6.123724 6.123724 
C 7.747755 4.499694 8.660254 2.296726 8.660254 0 
C 8.660254 -2.296726 7.747755 -4.499694 6.123724 -6.123724 
C 4.499694 -7.747755 2.296726 -8.660254 0 -8.660254 
C -2.296726 -8.660254 -4.499694 -7.747755 -6.123724 -6.123724 
C -7.747755 -4.499694 -8.660254 -2.296726 -8.660254 0 
C -8.660254 2.296726 -7.747755 4.499694 -6.123724 6.123724 
C -4.499694 7.747755 -2.296726 8.660254 0 8.660254 
z
" style="stroke: #1f78b4"/>
    </defs>
    <g clip-path="url(#p7202734e9a)">
     <use xlink:href="#mb9e984df71" x="39.986777" y="172.8" style="fill: #1f78b4; stroke: #1f78b4"/>
     <use xlink:href="#mb9e984df71" x="135.193388" y="29.990083" style="fill: #1f78b4; stroke: #1f78b4"/>
     <use xlink:href="#mb9e984df71" x="135.193388" y="125.196694" style="fill: #1f78b4; stroke: #1f78b4"/>
     <use xlink:href="#mb9e984df71" x="135.193388" y="220.403306" style="fill: #1f78b4; stroke: #1f78b4"/>
     <use xlink:href="#mb9e984df71" x="135.193388" y="315.609917" style="fill: #1f78b4; stroke: #1f78b4"/>
     <use xlink:href="#mb9e984df71" x="230.4" y="77.593388" style="fill: #1f78b4; stroke: #1f78b4"/>
     <use xlink:href="#mb9e984df71" x="230.4" y="172.8" style="fill: #1f78b4; stroke: #1f78b4"/>
     <use xlink:href="#mb9e984df71" x="230.4" y="268.006612" style="fill: #1f78b4; stroke: #1f78b4"/>
     <use xlink:href="#mb9e984df71" x="325.606612" y="77.593388" style="fill: #1f78b4; stroke: #1f78b4"/>
     <use xlink:href="#mb9e984df71" x="325.606612" y="172.8" style="fill: #1f78b4; stroke: #1f78b4"/>
     <use xlink:href="#mb9e984df71" x="325.606612" y="268.006612" style="fill: #1f78b4; stroke: #1f78b4"/>
     <use xlink:href="#mb9e984df71" x="420.813223" y="172.8" style="fill: #1f78b4; stroke: #1f78b4"/>
    </g>
   </g>
   <g id="text_22">
    <g clip-path="url(#p7202734e9a)">
     <!-- 0 -->
     <g transform="translate(36.169277 176.11125) scale(0.12 -0.12)">
      <defs>
       <path id="DejaVuSans-30" d="M 2034 4250 
Q 1547 4250 1301 3770 
Q 1056 3291 1056 2328 
Q 1056 1369 1301 889 
Q 1547 409 2034 409 
Q 2525 409 2770 889 
Q 3016 1369 3016 2328 
Q 3016 3291 2770 3770 
Q 2525 4250 2034 4250 
z
M 2034 4750 
Q 2819 4750 3233 4129 
Q 3647 3509 3647 2328 
Q 3647 1150 3233 529 
Q 2819 -91 2034 -91 
Q 1250 -91 836 529 
Q 422 1150 422 2328 
Q 422 3509 836 4129 
Q 1250 4750 2034 4750 
z
" transform="scale(0.015625)"/>
      </defs>
      <use xlink:href="#DejaVuSans-30"/>
     </g>
    </g>
   </g>
   <g id="text_23">
    <g clip-path="url(#p7202734e9a)">
     <!-- 1 -->
     <g transform="translate(131.375888 33.301333) scale(0.12 -0.12)">
      <use xlink:href="#DejaVuSans-31"/>
     </g>
    </g>
   </g>
   <g id="text_24">
    <g clip-path="url(#p7202734e9a)">
     <!-- 2 -->
     <g transform="translate(131.375888 128.507944) scale(0.12 -0.12)">
      <use xlink:href="#DejaVuSans-32"/>
     </g>
    </g>
   </g>
   <g id="text_25">
    <g clip-path="url(#p7202734e9a)">
     <!-- 3 -->
     <g transform="translate(131.375888 223.714556) scale(0.12 -0.12)">
      <use xlink:href="#DejaVuSans-33"/>
     </g>
    </g>
   </g>
   <g id="text_26">
    <g clip-path="url(#p7202734e9a)">
     <!-- 4 -->
     <g transform="translate(131.375888 318.921167) scale(0.12 -0.12)">
      <use xlink:href="#DejaVuSans-34"/>
     </g>
    </g>
   </g>
   <g id="text_27">
    <g clip-path="url(#p7202734e9a)">
     <!-- 5 -->
     <g transform="translate(226.5825 80.904638) scale(0.12 -0.12)">
      <use xlink:href="#DejaVuSans-35"/>
     </g>
    </g>
   </g>
   <g id="text_28">
    <g clip-path="url(#p7202734e9a)">
     <!-- 6 -->
     <g transform="translate(226.5825 176.11125) scale(0.12 -0.12)">
      <use xlink:href="#DejaVuSans-36"/>
     </g>
    </g>
   </g>
   <g id="text_29">
    <g clip-path="url(#p7202734e9a)">
     <!-- 7 -->
     <g transform="translate(226.5825 271.317862) scale(0.12 -0.12)">
      <use xlink:href="#DejaVuSans-37"/>
     </g>
    </g>
   </g>
   <g id="text_30">
    <g clip-path="url(#p7202734e9a)">
     <!-- 8 -->
     <g transform="translate(321.789112 80.904638) scale(0.12 -0.12)">
      <use xlink:href="#DejaVuSans-38"/>
     </g>
    </g>
   </g>
   <g id="text_31">
    <g clip-path="url(#p7202734e9a)">
     <!-- 9 -->
     <g transform="translate(321.789112 176.11125) scale(0.12 -0.12)">
      <use xlink:href="#DejaVuSans-39"/>
     </g>
    </g>
   </g>
   <g id="text_32">
    <g clip-path="url(#p7202734e9a)">
     <!-- 10 -->
     <g transform="translate(317.971612 271.317862) scale(0.12 -0.12)">
      <use xlink:href="#DejaVuSans-31"/>
      <use xlink:href="#DejaVuSans-30" x="63.623047"/>
     </g>
    </g>
   </g>
   <g id="text_33">
    <g clip-path="url(#p7202734e9a)">
     <!-- 11 -->
     <g transform="translate(413.178223 176.11125) scale(0.12 -0.12)">
      <use xlink:href="#DejaVuSans-31"/>
      <use xlink:href="#DejaVuSans-31" x="63.623047"/>
     </g>
    </g>
   </g>
  </g>
 </g>
 <defs>
  <clipPath id="p7202734e9a">
   <rect x="0" y="0" width="460.8" height="345.6"/>
  </clipPath>
 </defs>
</svg>
