<?xml version="1.0" encoding="utf-8" standalone="no"?>
<!DOCTYPE svg PUBLIC "-//W3C//DTD SVG 1.1//EN"
  "http://www.w3.org/Graphics/SVG/1.1/DTD/svg11.dtd">
<svg xmlns:xlink="http://www.w3.org/1999/xlink" width="460.8pt" height="345.6pt" viewBox="0 0 460.8 345.6" xmlns="http://www.w3.org/2000/svg" version="1.1">
 <metadata>
  <rdf:RDF xmlns:dc="http://purl.org/dc/elements/1.1/" xmlns:cc="http://creativecommons.org/ns#" xmlns:rdf="http://www.w3.org/1999/02/22-rdf-syntax-ns#">
   <cc:Work>
    <dc:type rdf:resource="http://purl.org/dc/dcmitype/StillImage"/>
    <dc:date>2023-08-24T14:35:46.686301</dc:date>
    <dc:format>image/svg+xml</dc:format>
    <dc:creator>
     <cc:Agent>
      <dc:title>Matplotlib v3.7.1, https://matplotlib.org/</dc:title>
     </cc:Agent>
    </dc:creator>
   </cc:Work>
  </rdf:RDF>
 </metadata>
 <defs>
  <style type="text/css">*{stroke-linejoin: round; stroke-linecap: butt}</style>
 </defs>
 <g id="figure_1">
  <g id="patch_1">
   <path d="M 0 345.6 
L 460.8 345.6 
L 460.8 0 
L 0 0 
z
" style="fill: #ffffff"/>
  </g>
  <g id="axes_1">
   <g id="LineCollection_1">
    <path d="M 420.813223 172.800004 
L 384.447535 84.538622 
" clip-path="url(#p68b7dd14f5)" style="fill: none; stroke: #000000"/>
    <path d="M 420.813223 172.800004 
L 289.240918 29.990083 
" clip-path="url(#p68b7dd14f5)" style="fill: none; stroke: #000000"/>
    <path d="M 420.813223 172.800004 
L 171.559071 29.990092 
" clip-path="url(#p68b7dd14f5)" style="fill: none; stroke: #000000"/>
    <path d="M 384.447535 84.538622 
L 289.240918 29.990083 
" clip-path="url(#p68b7dd14f5)" style="fill: none; stroke: #000000"/>
    <path d="M 384.447535 84.538622 
L 171.559071 29.990092 
" clip-path="url(#p68b7dd14f5)" style="fill: none; stroke: #000000"/>
    <path d="M 384.447535 84.538622 
L 76.352465 84.538622 
" clip-path="url(#p68b7dd14f5)" style="fill: none; stroke: #000000"/>
    <path d="M 384.447535 84.538622 
L 39.986777 172.800018 
" clip-path="url(#p68b7dd14f5)" style="fill: none; stroke: #000000"/>
    <path d="M 289.240918 29.990083 
L 76.352465 84.538622 
" clip-path="url(#p68b7dd14f5)" style="fill: none; stroke: #000000"/>
    <path d="M 289.240918 29.990083 
L 39.986777 172.800018 
" clip-path="url(#p68b7dd14f5)" style="fill: none; stroke: #000000"/>
    <path d="M 171.559071 29.990092 
L 76.352465 84.538622 
" clip-path="url(#p68b7dd14f5)" style="fill: none; stroke: #000000"/>
    <path d="M 171.559071 29.990092 
L 39.986777 172.800018 
" clip-path="url(#p68b7dd14f5)" style="fill: none; stroke: #000000"/>
    <path d="M 171.559071 29.990092 
L 76.352476 261.061396 
" clip-path="url(#p68b7dd14f5)" style="fill: none; stroke: #000000"/>
    <path d="M 76.352465 84.538622 
L 39.986777 172.800018 
" clip-path="url(#p68b7dd14f5)" style="fill: none; stroke: #000000"/>
    <path d="M 76.352465 84.538622 
L 76.352476 261.061396 
" clip-path="url(#p68b7dd14f5)" style="fill: none; stroke: #000000"/>
    <path d="M 76.352465 84.538622 
L 171.559054 315.609917 
" clip-path="url(#p68b7dd14f5)" style="fill: none; stroke: #000000"/>
    <path d="M 39.986777 172.800018 
L 76.352476 261.061396 
" clip-path="url(#p68b7dd14f5)" style="fill: none; stroke: #000000"/>
    <path d="M 39.986777 172.800018 
L 171.559054 315.609917 
" clip-path="url(#p68b7dd14f5)" style="fill: none; stroke: #000000"/>
    <path d="M 76.352476 261.061396 
L 171.559054 315.609917 
" clip-path="url(#p68b7dd14f5)" style="fill: none; stroke: #000000"/>
    <path d="M 76.352476 261.061396 
L 289.240946 315.609917 
" clip-path="url(#p68b7dd14f5)" style="fill: none; stroke: #000000"/>
    <path d="M 76.352476 261.061396 
L 384.447524 261.061396 
" clip-path="url(#p68b7dd14f5)" style="fill: none; stroke: #000000"/>
    <path d="M 171.559054 315.609917 
L 289.240946 315.609917 
" clip-path="url(#p68b7dd14f5)" style="fill: none; stroke: #000000"/>
    <path d="M 171.559054 315.609917 
L 384.447524 261.061396 
" clip-path="url(#p68b7dd14f5)" style="fill: none; stroke: #000000"/>
   </g>
   <g id="text_1">
    <g id="patch_2">
     <path d="M 394.170519 128.714268 
L 396.594337 134.596998 
Q 397.737198 137.370781 400.510981 136.22792 
L 409.459318 132.541002 
Q 412.2331 131.398141 411.090239 128.624358 
L 408.666421 122.741628 
Q 407.52356 119.967846 404.749778 121.110707 
L 395.80144 124.797625 
Q 393.027658 125.940486 394.170519 128.714268 
z
" clip-path="url(#p68b7dd14f5)" style="fill: #ffffff; stroke: #ffffff; stroke-linejoin: miter"/>
    </g>
    <g clip-path="url(#p68b7dd14f5)">
     <!-- 6 -->
     <g transform="translate(398.867168 126.779143) rotate(-292.39277) scale(0.1 -0.1)">
      <defs>
       <path id="DejaVuSans-36" d="M 2113 2584 
Q 1688 2584 1439 2293 
Q 1191 2003 1191 1497 
Q 1191 994 1439 701 
Q 1688 409 2113 409 
Q 2538 409 2786 701 
Q 3034 994 3034 1497 
Q 3034 2003 2786 2293 
Q 2538 2584 2113 2584 
z
M 3366 4563 
L 3366 3988 
Q 3128 4100 2886 4159 
Q 2644 4219 2406 4219 
Q 1781 4219 1451 3797 
Q 1122 3375 1075 2522 
Q 1259 2794 1537 2939 
Q 1816 3084 2150 3084 
Q 2853 3084 3261 2657 
Q 3669 2231 3669 1497 
Q 3669 778 3244 343 
Q 2819 -91 2113 -91 
Q 1303 -91 875 529 
Q 447 1150 447 2328 
Q 447 3434 972 4092 
Q 1497 4750 2381 4750 
Q 2619 4750 2861 4703 
Q 3103 4656 3366 4563 
z
" transform="scale(0.015625)"/>
      </defs>
      <use xlink:href="#DejaVuSans-36"/>
     </g>
    </g>
   </g>
   <g id="text_2">
    <g id="patch_3">
     <path d="M 347.106281 104.366971 
L 351.417374 109.046275 
Q 353.450109 111.252627 355.656461 109.219891 
L 362.774243 102.662203 
Q 364.980595 100.629468 362.947859 98.423116 
L 358.636767 93.743812 
Q 356.604032 91.53746 354.39768 93.570196 
L 347.279898 100.127884 
Q 345.073546 102.16062 347.106281 104.366971 
z
" clip-path="url(#p68b7dd14f5)" style="fill: #ffffff; stroke: #ffffff; stroke-linejoin: miter"/>
    </g>
    <g clip-path="url(#p68b7dd14f5)">
     <!-- 3 -->
     <g transform="translate(350.84214 100.925085) rotate(-312.654701) scale(0.1 -0.1)">
      <defs>
       <path id="DejaVuSans-33" d="M 2597 2516 
Q 3050 2419 3304 2112 
Q 3559 1806 3559 1356 
Q 3559 666 3084 287 
Q 2609 -91 1734 -91 
Q 1441 -91 1130 -33 
Q 819 25 488 141 
L 488 750 
Q 750 597 1062 519 
Q 1375 441 1716 441 
Q 2309 441 2620 675 
Q 2931 909 2931 1356 
Q 2931 1769 2642 2001 
Q 2353 2234 1838 2234 
L 1294 2234 
L 1294 2753 
L 1863 2753 
Q 2328 2753 2575 2939 
Q 2822 3125 2822 3475 
Q 2822 3834 2567 4026 
Q 2313 4219 1838 4219 
Q 1578 4219 1281 4162 
Q 984 4106 628 3988 
L 628 4550 
Q 988 4650 1302 4700 
Q 1616 4750 1894 4750 
Q 2613 4750 3031 4423 
Q 3450 4097 3450 3541 
Q 3450 3153 3228 2886 
Q 3006 2619 2597 2516 
z
" transform="scale(0.015625)"/>
      </defs>
      <use xlink:href="#DejaVuSans-33"/>
     </g>
    </g>
   </g>
   <g id="text_3">
    <g id="patch_4">
     <path d="M 289.528801 106.615296 
L 295.049378 109.778306 
Q 297.652401 111.269705 299.143801 108.666682 
L 303.955117 100.269222 
Q 305.446516 97.666199 302.843493 96.1748 
L 297.322916 93.01179 
Q 294.719893 91.520391 293.228493 94.123414 
L 288.417177 102.520874 
Q 286.925778 105.123897 289.528801 106.615296 
z
" clip-path="url(#p68b7dd14f5)" style="fill: #ffffff; stroke: #ffffff; stroke-linejoin: miter"/>
    </g>
    <g clip-path="url(#p68b7dd14f5)">
     <!-- 1 -->
     <g transform="translate(292.054082 102.207782) rotate(-330.189492) scale(0.1 -0.1)">
      <defs>
       <path id="DejaVuSans-31" d="M 794 531 
L 1825 531 
L 1825 4091 
L 703 3866 
L 703 4441 
L 1819 4666 
L 2450 4666 
L 2450 531 
L 3481 531 
L 3481 0 
L 794 0 
L 794 531 
z
" transform="scale(0.015625)"/>
      </defs>
      <use xlink:href="#DejaVuSans-31"/>
     </g>
    </g>
   </g>
   <g id="text_4">
    <g id="patch_5">
     <path d="M 330.18688 62.484601 
L 335.707457 65.64761 
Q 338.31048 67.13901 339.80188 64.535987 
L 344.613196 56.138527 
Q 346.104596 53.535504 343.501573 52.044104 
L 337.980995 48.881095 
Q 335.377973 47.389695 333.886573 49.992718 
L 329.075256 58.390178 
Q 327.583857 60.993201 330.18688 62.484601 
z
" clip-path="url(#p68b7dd14f5)" style="fill: #ffffff; stroke: #ffffff; stroke-linejoin: miter"/>
    </g>
    <g clip-path="url(#p68b7dd14f5)">
     <!-- 2 -->
     <g transform="translate(332.712161 58.077086) rotate(-330.189489) scale(0.1 -0.1)">
      <defs>
       <path id="DejaVuSans-32" d="M 1228 531 
L 3431 531 
L 3431 0 
L 469 0 
L 469 531 
Q 828 903 1448 1529 
Q 2069 2156 2228 2338 
Q 2531 2678 2651 2914 
Q 2772 3150 2772 3378 
Q 2772 3750 2511 3984 
Q 2250 4219 1831 4219 
Q 1534 4219 1204 4116 
Q 875 4013 500 3803 
L 500 4441 
Q 881 4594 1212 4672 
Q 1544 4750 1819 4750 
Q 2544 4750 2975 4387 
Q 3406 4025 3406 3419 
Q 3406 3131 3298 2873 
Q 3191 2616 2906 2266 
Q 2828 2175 2409 1742 
Q 1991 1309 1228 531 
z
" transform="scale(0.015625)"/>
      </defs>
      <use xlink:href="#DejaVuSans-32"/>
     </g>
    </g>
   </g>
   <g id="text_5">
    <g id="patch_6">
     <path d="M 272.975858 64.068477 
L 279.139249 65.647726 
Q 282.045366 66.392362 282.790002 63.486245 
L 285.192229 54.11099 
Q 285.936865 51.204873 283.030748 50.460237 
L 276.867357 48.880988 
Q 273.96124 48.136352 273.216604 51.042469 
L 270.814377 60.417724 
Q 270.069741 63.323841 272.975858 64.068477 
z
" clip-path="url(#p68b7dd14f5)" style="fill: #ffffff; stroke: #ffffff; stroke-linejoin: miter"/>
    </g>
    <g clip-path="url(#p68b7dd14f5)">
     <!-- 6 -->
     <g transform="translate(274.236698 59.147755) rotate(-345.628266) scale(0.1 -0.1)">
      <use xlink:href="#DejaVuSans-36"/>
     </g>
    </g>
   </g>
   <g id="text_6">
    <g id="patch_7">
     <path d="M 227.21875 92.377685 
L 233.58125 92.377685 
Q 236.58125 92.377685 236.58125 89.377685 
L 236.58125 79.69956 
Q 236.58125 76.69956 233.58125 76.69956 
L 227.21875 76.69956 
Q 224.21875 76.69956 224.21875 79.69956 
L 224.21875 89.377685 
Q 224.21875 92.377685 227.21875 92.377685 
z
" clip-path="url(#p68b7dd14f5)" style="fill: #ffffff; stroke: #ffffff; stroke-linejoin: miter"/>
    </g>
    <g clip-path="url(#p68b7dd14f5)">
     <!-- 3 -->
     <g transform="translate(227.21875 87.297997) scale(0.1 -0.1)">
      <use xlink:href="#DejaVuSans-33"/>
     </g>
    </g>
   </g>
   <g id="text_7">
    <g id="patch_8">
     <path d="M 211.081211 137.052689 
L 217.244601 135.47344 
Q 220.150718 134.728804 219.406082 131.822687 
L 217.003854 122.447432 
Q 216.259218 119.541314 213.353101 120.285951 
L 207.189711 121.8652 
Q 204.283594 122.609836 205.02823 125.515953 
L 207.430457 134.891208 
Q 208.175094 137.797325 211.081211 137.052689 
z
" clip-path="url(#p68b7dd14f5)" style="fill: #ffffff; stroke: #ffffff; stroke-linejoin: miter"/>
    </g>
    <g clip-path="url(#p68b7dd14f5)">
     <!-- 4 -->
     <g transform="translate(209.820371 132.131967) rotate(-14.371737) scale(0.1 -0.1)">
      <defs>
       <path id="DejaVuSans-34" d="M 2419 4116 
L 825 1625 
L 2419 1625 
L 2419 4116 
z
M 2253 4666 
L 3047 4666 
L 3047 1625 
L 3713 1625 
L 3713 1100 
L 3047 1100 
L 3047 0 
L 2419 0 
L 2419 1100 
L 313 1100 
L 313 1709 
L 2253 4666 
z
" transform="scale(0.015625)"/>
      </defs>
      <use xlink:href="#DejaVuSans-34"/>
     </g>
    </g>
   </g>
   <g id="text_8">
    <g id="patch_9">
     <path d="M 181.660746 65.647722 
L 187.824136 64.068473 
Q 190.730253 63.323836 189.985617 60.417719 
L 187.58339 51.042464 
Q 186.838754 48.136347 183.932637 48.880983 
L 177.769246 50.460232 
Q 174.863129 51.204869 175.607765 54.110986 
L 178.009993 63.486241 
Q 178.754629 66.392358 181.660746 65.647722 
z
" clip-path="url(#p68b7dd14f5)" style="fill: #ffffff; stroke: #ffffff; stroke-linejoin: miter"/>
    </g>
    <g clip-path="url(#p68b7dd14f5)">
     <!-- 4 -->
     <g transform="translate(180.399906 60.726999) rotate(-14.371737) scale(0.1 -0.1)">
      <use xlink:href="#DejaVuSans-34"/>
     </g>
    </g>
   </g>
   <g id="text_9">
    <g id="patch_10">
     <path d="M 165.750617 109.778308 
L 171.271194 106.615298 
Q 173.874217 105.123898 172.382817 102.520876 
L 167.5715 94.123416 
Q 166.080101 91.520393 163.477078 93.011793 
L 157.956501 96.174802 
Q 155.353478 97.666202 156.844877 100.269225 
L 161.656194 108.666685 
Q 163.147594 111.269707 165.750617 109.778308 
z
" clip-path="url(#p68b7dd14f5)" style="fill: #ffffff; stroke: #ffffff; stroke-linejoin: miter"/>
    </g>
    <g clip-path="url(#p68b7dd14f5)">
     <!-- 5 -->
     <g transform="translate(163.225335 105.370794) rotate(-29.810513) scale(0.1 -0.1)">
      <defs>
       <path id="DejaVuSans-35" d="M 691 4666 
L 3169 4666 
L 3169 4134 
L 1269 4134 
L 1269 2991 
Q 1406 3038 1543 3061 
Q 1681 3084 1819 3084 
Q 2600 3084 3056 2656 
Q 3513 2228 3513 1497 
Q 3513 744 3044 326 
Q 2575 -91 1722 -91 
Q 1428 -91 1123 -41 
Q 819 9 494 109 
L 494 744 
Q 775 591 1075 516 
Q 1375 441 1709 441 
Q 2250 441 2565 725 
Q 2881 1009 2881 1497 
Q 2881 1984 2565 2268 
Q 2250 2553 1709 2553 
Q 1456 2553 1204 2497 
Q 953 2441 691 2322 
L 691 4666 
z
" transform="scale(0.015625)"/>
      </defs>
      <use xlink:href="#DejaVuSans-35"/>
     </g>
    </g>
   </g>
   <g id="text_10">
    <g id="patch_11">
     <path d="M 125.092537 65.647615 
L 130.613114 62.484605 
Q 133.216137 60.993206 131.724738 58.390183 
L 126.913421 49.992723 
Q 125.422022 47.3897 122.818999 48.881099 
L 117.298421 52.044109 
Q 114.695399 53.535508 116.186798 56.138531 
L 120.998115 64.535991 
Q 122.489514 67.139014 125.092537 65.647615 
z
" clip-path="url(#p68b7dd14f5)" style="fill: #ffffff; stroke: #ffffff; stroke-linejoin: miter"/>
    </g>
    <g clip-path="url(#p68b7dd14f5)">
     <!-- 7 -->
     <g transform="translate(122.567256 61.2401) rotate(-29.810509) scale(0.1 -0.1)">
      <defs>
       <path id="DejaVuSans-37" d="M 525 4666 
L 3525 4666 
L 3525 4397 
L 1831 0 
L 1172 0 
L 2766 4134 
L 525 4134 
L 525 4666 
z
" transform="scale(0.015625)"/>
      </defs>
      <use xlink:href="#DejaVuSans-37"/>
     </g>
    </g>
   </g>
   <g id="text_11">
    <g id="patch_12">
     <path d="M 109.382621 109.046286 
L 113.693713 104.366982 
Q 115.726448 102.16063 113.520096 100.127895 
L 106.402314 93.570207 
Q 104.195962 91.537472 102.163227 93.743823 
L 97.852135 98.423127 
Q 95.8194 100.629479 98.025751 102.662214 
L 105.143534 109.219903 
Q 107.349885 111.252638 109.382621 109.046286 
z
" clip-path="url(#p68b7dd14f5)" style="fill: #ffffff; stroke: #ffffff; stroke-linejoin: miter"/>
    </g>
    <g clip-path="url(#p68b7dd14f5)">
     <!-- 8 -->
     <g transform="translate(105.646762 105.6044) rotate(-47.345302) scale(0.1 -0.1)">
      <defs>
       <path id="DejaVuSans-38" d="M 2034 2216 
Q 1584 2216 1326 1975 
Q 1069 1734 1069 1313 
Q 1069 891 1326 650 
Q 1584 409 2034 409 
Q 2484 409 2743 651 
Q 3003 894 3003 1313 
Q 3003 1734 2745 1975 
Q 2488 2216 2034 2216 
z
M 1403 2484 
Q 997 2584 770 2862 
Q 544 3141 544 3541 
Q 544 4100 942 4425 
Q 1341 4750 2034 4750 
Q 2731 4750 3128 4425 
Q 3525 4100 3525 3541 
Q 3525 3141 3298 2862 
Q 3072 2584 2669 2484 
Q 3125 2378 3379 2068 
Q 3634 1759 3634 1313 
Q 3634 634 3220 271 
Q 2806 -91 2034 -91 
Q 1263 -91 848 271 
Q 434 634 434 1313 
Q 434 1759 690 2068 
Q 947 2378 1403 2484 
z
M 1172 3481 
Q 1172 3119 1398 2916 
Q 1625 2713 2034 2713 
Q 2441 2713 2670 2916 
Q 2900 3119 2900 3481 
Q 2900 3844 2670 4047 
Q 2441 4250 2034 4250 
Q 1625 4250 1398 4047 
Q 1172 3844 1172 3481 
z
" transform="scale(0.015625)"/>
      </defs>
      <use xlink:href="#DejaVuSans-38"/>
     </g>
    </g>
   </g>
   <g id="text_12">
    <g id="patch_13">
     <path d="M 129.991816 151.453428 
L 132.415634 145.570698 
Q 133.558495 142.796916 130.784712 141.654055 
L 121.836375 137.967138 
Q 119.062592 136.824277 117.919731 139.598059 
L 115.495914 145.480789 
Q 114.353053 148.254572 117.126835 149.397433 
L 126.075173 153.08435 
Q 128.848955 154.227211 129.991816 151.453428 
z
" clip-path="url(#p68b7dd14f5)" style="fill: #ffffff; stroke: #ffffff; stroke-linejoin: miter"/>
    </g>
    <g clip-path="url(#p68b7dd14f5)">
     <!-- 9 -->
     <g transform="translate(125.295167 149.518303) rotate(-67.607233) scale(0.1 -0.1)">
      <defs>
       <path id="DejaVuSans-39" d="M 703 97 
L 703 672 
Q 941 559 1184 500 
Q 1428 441 1663 441 
Q 2288 441 2617 861 
Q 2947 1281 2994 2138 
Q 2813 1869 2534 1725 
Q 2256 1581 1919 1581 
Q 1219 1581 811 2004 
Q 403 2428 403 3163 
Q 403 3881 828 4315 
Q 1253 4750 1959 4750 
Q 2769 4750 3195 4129 
Q 3622 3509 3622 2328 
Q 3622 1225 3098 567 
Q 2575 -91 1691 -91 
Q 1453 -91 1209 -44 
Q 966 3 703 97 
z
M 1959 2075 
Q 2384 2075 2632 2365 
Q 2881 2656 2881 3163 
Q 2881 3666 2632 3958 
Q 2384 4250 1959 4250 
Q 1534 4250 1286 3958 
Q 1038 3666 1038 3163 
Q 1038 2656 1286 2365 
Q 1534 2075 1959 2075 
z
" transform="scale(0.015625)"/>
      </defs>
      <use xlink:href="#DejaVuSans-39"/>
     </g>
    </g>
   </g>
   <g id="text_13">
    <g id="patch_14">
     <path d="M 64.205663 134.597005 
L 66.629481 128.714274 
Q 67.772342 125.940492 64.99856 124.797631 
L 56.050222 121.110714 
Q 53.27644 119.967853 52.133579 122.741635 
L 49.709761 128.624365 
Q 48.5669 131.398148 51.340682 132.541009 
L 60.28902 136.227926 
Q 63.062802 137.370787 64.205663 134.597005 
z
" clip-path="url(#p68b7dd14f5)" style="fill: #ffffff; stroke: #ffffff; stroke-linejoin: miter"/>
    </g>
    <g clip-path="url(#p68b7dd14f5)">
     <!-- 6 -->
     <g transform="translate(59.509014 132.661879) rotate(-67.607233) scale(0.1 -0.1)">
      <use xlink:href="#DejaVuSans-36"/>
     </g>
    </g>
   </g>
   <g id="text_14">
    <g id="patch_15">
     <path d="M 68.513408 169.618759 
L 68.513408 175.981259 
Q 68.513409 178.981259 71.513409 178.981259 
L 81.191534 178.981259 
Q 84.191534 178.981258 84.191533 175.981258 
L 84.191533 169.618758 
Q 84.191533 166.618758 81.191533 166.618759 
L 71.513408 166.618759 
Q 68.513408 166.618759 68.513408 169.618759 
z
" clip-path="url(#p68b7dd14f5)" style="fill: #ffffff; stroke: #ffffff; stroke-linejoin: miter"/>
    </g>
    <g clip-path="url(#p68b7dd14f5)">
     <!-- 9 -->
     <g transform="translate(73.593095 169.618759) rotate(-270.000004) scale(0.1 -0.1)">
      <use xlink:href="#DejaVuSans-39"/>
     </g>
    </g>
   </g>
   <g id="text_15">
    <g id="patch_16">
     <path d="M 115.495899 200.119224 
L 117.919717 206.001954 
Q 119.062578 208.775737 121.83636 207.632876 
L 130.784698 203.945959 
Q 133.55848 202.803098 132.415619 200.029315 
L 129.991802 194.146585 
Q 128.848941 191.372803 126.075158 192.515664 
L 117.126821 196.202581 
Q 114.353038 197.345442 115.495899 200.119224 
z
" clip-path="url(#p68b7dd14f5)" style="fill: #ffffff; stroke: #ffffff; stroke-linejoin: miter"/>
    </g>
    <g clip-path="url(#p68b7dd14f5)">
     <!-- 9 -->
     <g transform="translate(120.192549 198.184099) rotate(-292.392767) scale(0.1 -0.1)">
      <use xlink:href="#DejaVuSans-39"/>
     </g>
    </g>
   </g>
   <g id="text_16">
    <g id="patch_17">
     <path d="M 49.709767 216.975663 
L 52.133585 222.858392 
Q 53.276447 225.632175 56.050229 224.489313 
L 64.998566 220.802394 
Q 67.772348 219.659533 66.629487 216.885751 
L 64.205668 211.003021 
Q 63.062806 208.229239 60.289024 209.3721 
L 51.340687 213.059019 
Q 48.566905 214.20188 49.709767 216.975663 
z
" clip-path="url(#p68b7dd14f5)" style="fill: #ffffff; stroke: #ffffff; stroke-linejoin: miter"/>
    </g>
    <g clip-path="url(#p68b7dd14f5)">
     <!-- 8 -->
     <g transform="translate(54.406415 215.040536) rotate(-292.392777) scale(0.1 -0.1)">
      <use xlink:href="#DejaVuSans-38"/>
     </g>
    </g>
   </g>
   <g id="text_17">
    <g id="patch_18">
     <path d="M 97.852126 247.176895 
L 102.163219 251.856199 
Q 104.195954 254.062551 106.402306 252.029815 
L 113.520088 245.472127 
Q 115.72644 243.439392 113.693704 241.23304 
L 109.382612 236.553736 
Q 107.349877 234.347384 105.143525 236.38012 
L 98.025743 242.937808 
Q 95.819391 244.970543 97.852126 247.176895 
z
" clip-path="url(#p68b7dd14f5)" style="fill: #ffffff; stroke: #ffffff; stroke-linejoin: miter"/>
    </g>
    <g clip-path="url(#p68b7dd14f5)">
     <!-- 9 -->
     <g transform="translate(101.587985 243.735008) rotate(-312.654699) scale(0.1 -0.1)">
      <use xlink:href="#DejaVuSans-39"/>
     </g>
    </g>
   </g>
   <g id="text_18">
    <g id="patch_19">
     <path d="M 114.53813 291.974399 
L 125.579285 298.300419 
Q 128.182307 299.791818 129.673707 297.188796 
L 134.485024 288.791336 
Q 135.976423 286.188313 133.373401 284.696914 
L 122.332246 278.370894 
Q 119.729223 276.879494 118.237823 279.482517 
L 113.426506 287.879977 
Q 111.935107 290.483 114.53813 291.974399 
z
" clip-path="url(#p68b7dd14f5)" style="fill: #ffffff; stroke: #ffffff; stroke-linejoin: miter"/>
    </g>
    <g clip-path="url(#p68b7dd14f5)">
     <!-- 11 -->
     <g transform="translate(117.063411 287.566885) rotate(-330.189487) scale(0.1 -0.1)">
      <use xlink:href="#DejaVuSans-31"/>
      <use xlink:href="#DejaVuSans-31" x="63.623047"/>
     </g>
    </g>
   </g>
   <g id="text_19">
    <g id="patch_20">
     <path d="M 174.687572 294.350153 
L 187.014352 297.50865 
Q 189.92047 298.253286 190.665106 295.347169 
L 193.067332 285.971913 
Q 193.811968 283.065796 190.905851 282.32116 
L 178.57907 279.162663 
Q 175.672953 278.418027 174.928317 281.324144 
L 172.52609 290.6994 
Q 171.781455 293.605517 174.687572 294.350153 
z
" clip-path="url(#p68b7dd14f5)" style="fill: #ffffff; stroke: #ffffff; stroke-linejoin: miter"/>
    </g>
    <g clip-path="url(#p68b7dd14f5)">
     <!-- 12 -->
     <g transform="translate(175.948411 289.42943) rotate(-345.628269) scale(0.1 -0.1)">
      <use xlink:href="#DejaVuSans-31"/>
      <use xlink:href="#DejaVuSans-32" x="63.623047"/>
     </g>
    </g>
   </g>
   <g id="text_20">
    <g id="patch_21">
     <path d="M 224.0375 268.900458 
L 236.7625 268.900458 
Q 239.7625 268.900458 239.7625 265.900458 
L 239.7625 256.222333 
Q 239.7625 253.222333 236.7625 253.222333 
L 224.0375 253.222333 
Q 221.0375 253.222333 221.0375 256.222333 
L 221.0375 265.900458 
Q 221.0375 268.900458 224.0375 268.900458 
z
" clip-path="url(#p68b7dd14f5)" style="fill: #ffffff; stroke: #ffffff; stroke-linejoin: miter"/>
    </g>
    <g clip-path="url(#p68b7dd14f5)">
     <!-- 14 -->
     <g transform="translate(224.0375 263.820771) scale(0.1 -0.1)">
      <use xlink:href="#DejaVuSans-31"/>
      <use xlink:href="#DejaVuSans-34" x="63.623047"/>
     </g>
    </g>
   </g>
   <g id="text_21">
    <g id="patch_22">
     <path d="M 224.0375 323.44898 
L 236.7625 323.44898 
Q 239.7625 323.44898 239.7625 320.44898 
L 239.7625 310.770855 
Q 239.7625 307.770855 236.7625 307.770855 
L 224.0375 307.770855 
Q 221.0375 307.770855 221.0375 310.770855 
L 221.0375 320.44898 
Q 221.0375 323.44898 224.0375 323.44898 
z
" clip-path="url(#p68b7dd14f5)" style="fill: #ffffff; stroke: #ffffff; stroke-linejoin: miter"/>
    </g>
    <g clip-path="url(#p68b7dd14f5)">
     <!-- 14 -->
     <g transform="translate(224.0375 318.369292) scale(0.1 -0.1)">
      <use xlink:href="#DejaVuSans-31"/>
      <use xlink:href="#DejaVuSans-34" x="63.623047"/>
     </g>
    </g>
   </g>
   <g id="text_22">
    <g id="patch_23">
     <path d="M 273.785648 297.50865 
L 286.112428 294.350153 
Q 289.018545 293.605517 288.27391 290.6994 
L 285.871683 281.324144 
Q 285.127047 278.418027 282.22093 279.162663 
L 269.894149 282.32116 
Q 266.988032 283.065796 267.732668 285.971913 
L 270.134894 295.347169 
Q 270.87953 298.253286 273.785648 297.50865 
z
" clip-path="url(#p68b7dd14f5)" style="fill: #ffffff; stroke: #ffffff; stroke-linejoin: miter"/>
    </g>
    <g clip-path="url(#p68b7dd14f5)">
     <!-- 15 -->
     <g transform="translate(272.524808 292.587928) rotate(-14.371731) scale(0.1 -0.1)">
      <use xlink:href="#DejaVuSans-31"/>
      <use xlink:href="#DejaVuSans-35" x="63.623047"/>
     </g>
    </g>
   </g>
   <g id="PathCollection_1">
    <defs>
     <path id="m4ba206780f" d="M 0 8.660254 
C 2.296726 8.660254 4.499694 7.747755 6.123724 6.123724 
C 7.747755 4.499694 8.660254 2.296726 8.660254 0 
C 8.660254 -2.296726 7.747755 -4.499694 6.123724 -6.123724 
C 4.499694 -7.747755 2.296726 -8.660254 0 -8.660254 
C -2.296726 -8.660254 -4.499694 -7.747755 -6.123724 -6.123724 
C -7.747755 -4.499694 -8.660254 -2.296726 -8.660254 0 
C -8.660254 2.296726 -7.747755 4.499694 -6.123724 6.123724 
C -4.499694 7.747755 -2.296726 8.660254 0 8.660254 
z
" style="stroke: #0000ff"/>
    </defs>
    <g clip-path="url(#p68b7dd14f5)">
     <use xlink:href="#m4ba206780f" x="420.813223" y="172.800004" style="fill: #0000ff; stroke: #0000ff"/>
     <use xlink:href="#m4ba206780f" x="384.447535" y="84.538622" style="fill: #0000ff; stroke: #0000ff"/>
     <use xlink:href="#m4ba206780f" x="289.240918" y="29.990083" style="fill: #0000ff; stroke: #0000ff"/>
     <use xlink:href="#m4ba206780f" x="171.559071" y="29.990092" style="fill: #0000ff; stroke: #0000ff"/>
     <use xlink:href="#m4ba206780f" x="76.352465" y="84.538622" style="fill: #0000ff; stroke: #0000ff"/>
     <use xlink:href="#m4ba206780f" x="39.986777" y="172.800018" style="fill: #0000ff; stroke: #0000ff"/>
     <use xlink:href="#m4ba206780f" x="76.352476" y="261.061396" style="fill: #0000ff; stroke: #0000ff"/>
     <use xlink:href="#m4ba206780f" x="171.559054" y="315.609917" style="fill: #0000ff; stroke: #0000ff"/>
     <use xlink:href="#m4ba206780f" x="289.240946" y="315.609917" style="fill: #0000ff; stroke: #0000ff"/>
     <use xlink:href="#m4ba206780f" x="384.447524" y="261.061396" style="fill: #0000ff; stroke: #0000ff"/>
    </g>
   </g>
   <g id="text_23">
    <g clip-path="url(#p68b7dd14f5)">
     <!-- A -->
     <g style="fill: #ffffff" transform="translate(416.708848 176.111254) scale(0.12 -0.12)">
      <defs>
       <path id="DejaVuSans-41" d="M 2188 4044 
L 1331 1722 
L 3047 1722 
L 2188 4044 
z
M 1831 4666 
L 2547 4666 
L 4325 0 
L 3669 0 
L 3244 1197 
L 1141 1197 
L 716 0 
L 50 0 
L 1831 4666 
z
" transform="scale(0.015625)"/>
      </defs>
      <use xlink:href="#DejaVuSans-41"/>
     </g>
    </g>
   </g>
   <g id="text_24">
    <g clip-path="url(#p68b7dd14f5)">
     <!-- B -->
     <g style="fill: #ffffff" transform="translate(380.330973 87.849872) scale(0.12 -0.12)">
      <defs>
       <path id="DejaVuSans-42" d="M 1259 2228 
L 1259 519 
L 2272 519 
Q 2781 519 3026 730 
Q 3272 941 3272 1375 
Q 3272 1813 3026 2020 
Q 2781 2228 2272 2228 
L 1259 2228 
z
M 1259 4147 
L 1259 2741 
L 2194 2741 
Q 2656 2741 2882 2914 
Q 3109 3088 3109 3444 
Q 3109 3797 2882 3972 
Q 2656 4147 2194 4147 
L 1259 4147 
z
M 628 4666 
L 2241 4666 
Q 2963 4666 3353 4366 
Q 3744 4066 3744 3513 
Q 3744 3084 3544 2831 
Q 3344 2578 2956 2516 
Q 3422 2416 3680 2098 
Q 3938 1781 3938 1306 
Q 3938 681 3513 340 
Q 3088 0 2303 0 
L 628 0 
L 628 4666 
z
" transform="scale(0.015625)"/>
      </defs>
      <use xlink:href="#DejaVuSans-42"/>
     </g>
    </g>
   </g>
   <g id="text_25">
    <g clip-path="url(#p68b7dd14f5)">
     <!-- C -->
     <g style="fill: #ffffff" transform="translate(285.05123 33.301333) scale(0.12 -0.12)">
      <defs>
       <path id="DejaVuSans-43" d="M 4122 4306 
L 4122 3641 
Q 3803 3938 3442 4084 
Q 3081 4231 2675 4231 
Q 1875 4231 1450 3742 
Q 1025 3253 1025 2328 
Q 1025 1406 1450 917 
Q 1875 428 2675 428 
Q 3081 428 3442 575 
Q 3803 722 4122 1019 
L 4122 359 
Q 3791 134 3420 21 
Q 3050 -91 2638 -91 
Q 1578 -91 968 557 
Q 359 1206 359 2328 
Q 359 3453 968 4101 
Q 1578 4750 2638 4750 
Q 3056 4750 3426 4639 
Q 3797 4528 4122 4306 
z
" transform="scale(0.015625)"/>
      </defs>
      <use xlink:href="#DejaVuSans-43"/>
     </g>
    </g>
   </g>
   <g id="text_26">
    <g clip-path="url(#p68b7dd14f5)">
     <!-- D -->
     <g style="fill: #ffffff" transform="translate(166.939071 33.301342) scale(0.12 -0.12)">
      <defs>
       <path id="DejaVuSans-44" d="M 1259 4147 
L 1259 519 
L 2022 519 
Q 2988 519 3436 956 
Q 3884 1394 3884 2338 
Q 3884 3275 3436 3711 
Q 2988 4147 2022 4147 
L 1259 4147 
z
M 628 4666 
L 1925 4666 
Q 3281 4666 3915 4102 
Q 4550 3538 4550 2338 
Q 4550 1131 3912 565 
Q 3275 0 1925 0 
L 628 0 
L 628 4666 
z
" transform="scale(0.015625)"/>
      </defs>
      <use xlink:href="#DejaVuSans-44"/>
     </g>
    </g>
   </g>
   <g id="text_27">
    <g clip-path="url(#p68b7dd14f5)">
     <!-- E -->
     <g style="fill: #ffffff" transform="translate(72.561215 87.849872) scale(0.12 -0.12)">
      <defs>
       <path id="DejaVuSans-45" d="M 628 4666 
L 3578 4666 
L 3578 4134 
L 1259 4134 
L 1259 2753 
L 3481 2753 
L 3481 2222 
L 1259 2222 
L 1259 531 
L 3634 531 
L 3634 0 
L 628 0 
L 628 4666 
z
" transform="scale(0.015625)"/>
      </defs>
      <use xlink:href="#DejaVuSans-45"/>
     </g>
    </g>
   </g>
   <g id="text_28">
    <g clip-path="url(#p68b7dd14f5)">
     <!-- F -->
     <g style="fill: #ffffff" transform="translate(36.535839 176.111268) scale(0.12 -0.12)">
      <defs>
       <path id="DejaVuSans-46" d="M 628 4666 
L 3309 4666 
L 3309 4134 
L 1259 4134 
L 1259 2759 
L 3109 2759 
L 3109 2228 
L 1259 2228 
L 1259 0 
L 628 0 
L 628 4666 
z
" transform="scale(0.015625)"/>
      </defs>
      <use xlink:href="#DejaVuSans-46"/>
     </g>
    </g>
   </g>
   <g id="text_29">
    <g clip-path="url(#p68b7dd14f5)">
     <!-- G -->
     <g style="fill: #ffffff" transform="translate(71.703414 264.372646) scale(0.12 -0.12)">
      <defs>
       <path id="DejaVuSans-47" d="M 3809 666 
L 3809 1919 
L 2778 1919 
L 2778 2438 
L 4434 2438 
L 4434 434 
Q 4069 175 3628 42 
Q 3188 -91 2688 -91 
Q 1594 -91 976 548 
Q 359 1188 359 2328 
Q 359 3472 976 4111 
Q 1594 4750 2688 4750 
Q 3144 4750 3555 4637 
Q 3966 4525 4313 4306 
L 4313 3634 
Q 3963 3931 3569 4081 
Q 3175 4231 2741 4231 
Q 1884 4231 1454 3753 
Q 1025 3275 1025 2328 
Q 1025 1384 1454 906 
Q 1884 428 2741 428 
Q 3075 428 3337 486 
Q 3600 544 3809 666 
z
" transform="scale(0.015625)"/>
      </defs>
      <use xlink:href="#DejaVuSans-47"/>
     </g>
    </g>
   </g>
   <g id="text_30">
    <g clip-path="url(#p68b7dd14f5)">
     <!-- H -->
     <g style="fill: #ffffff" transform="translate(167.046866 318.921167) scale(0.12 -0.12)">
      <defs>
       <path id="DejaVuSans-48" d="M 628 4666 
L 1259 4666 
L 1259 2753 
L 3553 2753 
L 3553 4666 
L 4184 4666 
L 4184 0 
L 3553 0 
L 3553 2222 
L 1259 2222 
L 1259 0 
L 628 0 
L 628 4666 
z
" transform="scale(0.015625)"/>
      </defs>
      <use xlink:href="#DejaVuSans-48"/>
     </g>
    </g>
   </g>
   <g id="text_31">
    <g clip-path="url(#p68b7dd14f5)">
     <!-- I -->
     <g style="fill: #ffffff" transform="translate(287.470946 318.921167) scale(0.12 -0.12)">
      <defs>
       <path id="DejaVuSans-49" d="M 628 4666 
L 1259 4666 
L 1259 0 
L 628 0 
L 628 4666 
z
" transform="scale(0.015625)"/>
      </defs>
      <use xlink:href="#DejaVuSans-49"/>
     </g>
    </g>
   </g>
   <g id="text_32">
    <g clip-path="url(#p68b7dd14f5)">
     <!-- J -->
     <g style="fill: #ffffff" transform="translate(382.677524 264.372646) scale(0.12 -0.12)">
      <defs>
       <path id="DejaVuSans-4a" d="M 628 4666 
L 1259 4666 
L 1259 325 
Q 1259 -519 939 -900 
Q 619 -1281 -91 -1281 
L -331 -1281 
L -331 -750 
L -134 -750 
Q 284 -750 456 -515 
Q 628 -281 628 325 
L 628 4666 
z
" transform="scale(0.015625)"/>
      </defs>
      <use xlink:href="#DejaVuSans-4a"/>
     </g>
    </g>
   </g>
  </g>
 </g>
 <defs>
  <clipPath id="p68b7dd14f5">
   <rect x="0" y="0" width="460.8" height="345.6"/>
  </clipPath>
 </defs>
</svg>
