<?xml version="1.0" encoding="utf-8" standalone="no"?>
<!DOCTYPE svg PUBLIC "-//W3C//DTD SVG 1.1//EN"
  "http://www.w3.org/Graphics/SVG/1.1/DTD/svg11.dtd">
<svg xmlns:xlink="http://www.w3.org/1999/xlink" width="460.8pt" height="345.6pt" viewBox="0 0 460.8 345.6" xmlns="http://www.w3.org/2000/svg" version="1.1">
 <metadata>
  <rdf:RDF xmlns:dc="http://purl.org/dc/elements/1.1/" xmlns:cc="http://creativecommons.org/ns#" xmlns:rdf="http://www.w3.org/1999/02/22-rdf-syntax-ns#">
   <cc:Work>
    <dc:type rdf:resource="http://purl.org/dc/dcmitype/StillImage"/>
    <dc:date>2023-09-03T13:51:02.555666</dc:date>
    <dc:format>image/svg+xml</dc:format>
    <dc:creator>
     <cc:Agent>
      <dc:title>Matplotlib v3.7.1, https://matplotlib.org/</dc:title>
     </cc:Agent>
    </dc:creator>
   </cc:Work>
  </rdf:RDF>
 </metadata>
 <defs>
  <style type="text/css">*{stroke-linejoin: round; stroke-linecap: butt}</style>
 </defs>
 <g id="figure_1">
  <g id="patch_1">
   <path d="M 0 345.6 
L 460.8 345.6 
L 460.8 0 
L 0 0 
z
" style="fill: #ffffff"/>
  </g>
  <g id="axes_1">
   <g id="LineCollection_1">
    <path d="M 420.813223 172.800004 
L 384.447535 84.538622 
" clip-path="url(#p6e4b8d2383)" style="fill: none; stroke: #000000"/>
    <path d="M 420.813223 172.800004 
L 289.240918 29.990083 
" clip-path="url(#p6e4b8d2383)" style="fill: none; stroke: #000000"/>
    <path d="M 420.813223 172.800004 
L 171.559071 29.990092 
" clip-path="url(#p6e4b8d2383)" style="fill: none; stroke: #000000"/>
    <path d="M 384.447535 84.538622 
L 289.240918 29.990083 
" clip-path="url(#p6e4b8d2383)" style="fill: none; stroke: #000000"/>
    <path d="M 384.447535 84.538622 
L 171.559071 29.990092 
" clip-path="url(#p6e4b8d2383)" style="fill: none; stroke: #000000"/>
    <path d="M 384.447535 84.538622 
L 76.352465 84.538622 
" clip-path="url(#p6e4b8d2383)" style="fill: none; stroke: #000000"/>
    <path d="M 384.447535 84.538622 
L 39.986777 172.800018 
" clip-path="url(#p6e4b8d2383)" style="fill: none; stroke: #000000"/>
    <path d="M 289.240918 29.990083 
L 76.352465 84.538622 
" clip-path="url(#p6e4b8d2383)" style="fill: none; stroke: #000000"/>
    <path d="M 289.240918 29.990083 
L 39.986777 172.800018 
" clip-path="url(#p6e4b8d2383)" style="fill: none; stroke: #000000"/>
    <path d="M 171.559071 29.990092 
L 76.352465 84.538622 
" clip-path="url(#p6e4b8d2383)" style="fill: none; stroke: #000000"/>
    <path d="M 171.559071 29.990092 
L 39.986777 172.800018 
" clip-path="url(#p6e4b8d2383)" style="fill: none; stroke: #000000"/>
    <path d="M 171.559071 29.990092 
L 76.352476 261.061396 
" clip-path="url(#p6e4b8d2383)" style="fill: none; stroke: #000000"/>
    <path d="M 76.352465 84.538622 
L 39.986777 172.800018 
" clip-path="url(#p6e4b8d2383)" style="fill: none; stroke: #000000"/>
    <path d="M 76.352465 84.538622 
L 76.352476 261.061396 
" clip-path="url(#p6e4b8d2383)" style="fill: none; stroke: #000000"/>
    <path d="M 76.352465 84.538622 
L 171.559054 315.609917 
" clip-path="url(#p6e4b8d2383)" style="fill: none; stroke: #000000"/>
    <path d="M 39.986777 172.800018 
L 76.352476 261.061396 
" clip-path="url(#p6e4b8d2383)" style="fill: none; stroke: #000000"/>
    <path d="M 39.986777 172.800018 
L 171.559054 315.609917 
" clip-path="url(#p6e4b8d2383)" style="fill: none; stroke: #000000"/>
    <path d="M 76.352476 261.061396 
L 171.559054 315.609917 
" clip-path="url(#p6e4b8d2383)" style="fill: none; stroke: #000000"/>
    <path d="M 76.352476 261.061396 
L 289.240946 315.609917 
" clip-path="url(#p6e4b8d2383)" style="fill: none; stroke: #000000"/>
    <path d="M 76.352476 261.061396 
L 384.447524 261.061396 
" clip-path="url(#p6e4b8d2383)" style="fill: none; stroke: #000000"/>
    <path d="M 171.559054 315.609917 
L 289.240946 315.609917 
" clip-path="url(#p6e4b8d2383)" style="fill: none; stroke: #000000"/>
    <path d="M 171.559054 315.609917 
L 384.447524 261.061396 
" clip-path="url(#p6e4b8d2383)" style="fill: none; stroke: #000000"/>
   </g>
   <g id="text_1">
    <g id="patch_2">
     <path d="M 399.449129 136.508376 
L 405.811629 136.508376 
Q 408.811629 136.508376 408.811629 133.508376 
L 408.811629 123.830251 
Q 408.811629 120.830251 405.811629 120.830251 
L 399.449129 120.830251 
Q 396.449129 120.830251 396.449129 123.830251 
L 396.449129 133.508376 
Q 396.449129 136.508376 399.449129 136.508376 
z
" clip-path="url(#p6e4b8d2383)" style="fill: #ffffff; stroke: #ffffff; stroke-linejoin: miter"/>
    </g>
    <g clip-path="url(#p6e4b8d2383)">
     <!-- 6 -->
     <g transform="translate(399.449129 131.428688) scale(0.1 -0.1)">
      <defs>
       <path id="DejaVuSans-36" d="M 2113 2584 
Q 1688 2584 1439 2293 
Q 1191 2003 1191 1497 
Q 1191 994 1439 701 
Q 1688 409 2113 409 
Q 2538 409 2786 701 
Q 3034 994 3034 1497 
Q 3034 2003 2786 2293 
Q 2538 2584 2113 2584 
z
M 3366 4563 
L 3366 3988 
Q 3128 4100 2886 4159 
Q 2644 4219 2406 4219 
Q 1781 4219 1451 3797 
Q 1122 3375 1075 2522 
Q 1259 2794 1537 2939 
Q 1816 3084 2150 3084 
Q 2853 3084 3261 2657 
Q 3669 2231 3669 1497 
Q 3669 778 3244 343 
Q 2819 -91 2113 -91 
Q 1303 -91 875 529 
Q 447 1150 447 2328 
Q 447 3434 972 4092 
Q 1497 4750 2381 4750 
Q 2619 4750 2861 4703 
Q 3103 4656 3366 4563 
z
" transform="scale(0.015625)"/>
      </defs>
      <use xlink:href="#DejaVuSans-36"/>
     </g>
    </g>
   </g>
   <g id="text_2">
    <g id="patch_3">
     <path d="M 351.84582 109.234106 
L 358.20832 109.234106 
Q 361.20832 109.234106 361.20832 106.234106 
L 361.20832 96.555981 
Q 361.20832 93.555981 358.20832 93.555981 
L 351.84582 93.555981 
Q 348.84582 93.555981 348.84582 96.555981 
L 348.84582 106.234106 
Q 348.84582 109.234106 351.84582 109.234106 
z
" clip-path="url(#p6e4b8d2383)" style="fill: #ffffff; stroke: #ffffff; stroke-linejoin: miter"/>
    </g>
    <g clip-path="url(#p6e4b8d2383)">
     <!-- 3 -->
     <g transform="translate(351.84582 104.154419) scale(0.1 -0.1)">
      <defs>
       <path id="DejaVuSans-33" d="M 2597 2516 
Q 3050 2419 3304 2112 
Q 3559 1806 3559 1356 
Q 3559 666 3084 287 
Q 2609 -91 1734 -91 
Q 1441 -91 1130 -33 
Q 819 25 488 141 
L 488 750 
Q 750 597 1062 519 
Q 1375 441 1716 441 
Q 2309 441 2620 675 
Q 2931 909 2931 1356 
Q 2931 1769 2642 2001 
Q 2353 2234 1838 2234 
L 1294 2234 
L 1294 2753 
L 1863 2753 
Q 2328 2753 2575 2939 
Q 2822 3125 2822 3475 
Q 2822 3834 2567 4026 
Q 2313 4219 1838 4219 
Q 1578 4219 1281 4162 
Q 984 4106 628 3988 
L 628 4550 
Q 988 4650 1302 4700 
Q 1616 4750 1894 4750 
Q 2613 4750 3031 4423 
Q 3450 4097 3450 3541 
Q 3450 3153 3228 2886 
Q 3006 2619 2597 2516 
z
" transform="scale(0.015625)"/>
      </defs>
      <use xlink:href="#DejaVuSans-33"/>
     </g>
    </g>
   </g>
   <g id="text_3">
    <g id="patch_4">
     <path d="M 293.004897 109.234111 
L 299.367397 109.234111 
Q 302.367397 109.234111 302.367397 106.234111 
L 302.367397 96.555986 
Q 302.367397 93.555986 299.367397 93.555986 
L 293.004897 93.555986 
Q 290.004897 93.555986 290.004897 96.555986 
L 290.004897 106.234111 
Q 290.004897 109.234111 293.004897 109.234111 
z
" clip-path="url(#p6e4b8d2383)" style="fill: #ffffff; stroke: #ffffff; stroke-linejoin: miter"/>
    </g>
    <g clip-path="url(#p6e4b8d2383)">
     <!-- 1 -->
     <g transform="translate(293.004897 104.154423) scale(0.1 -0.1)">
      <defs>
       <path id="DejaVuSans-31" d="M 794 531 
L 1825 531 
L 1825 4091 
L 703 3866 
L 703 4441 
L 1819 4666 
L 2450 4666 
L 2450 531 
L 3481 531 
L 3481 0 
L 794 0 
L 794 531 
z
" transform="scale(0.015625)"/>
      </defs>
      <use xlink:href="#DejaVuSans-31"/>
     </g>
    </g>
   </g>
   <g id="text_4">
    <g id="patch_5">
     <path d="M 333.662976 65.103415 
L 340.025476 65.103415 
Q 343.025476 65.103415 343.025476 62.103415 
L 343.025476 52.42529 
Q 343.025476 49.42529 340.025476 49.42529 
L 333.662976 49.42529 
Q 330.662976 49.42529 330.662976 52.42529 
L 330.662976 62.103415 
Q 330.662976 65.103415 333.662976 65.103415 
z
" clip-path="url(#p6e4b8d2383)" style="fill: #ffffff; stroke: #ffffff; stroke-linejoin: miter"/>
    </g>
    <g clip-path="url(#p6e4b8d2383)">
     <!-- 2 -->
     <g transform="translate(333.662976 60.023727) scale(0.1 -0.1)">
      <defs>
       <path id="DejaVuSans-32" d="M 1228 531 
L 3431 531 
L 3431 0 
L 469 0 
L 469 531 
Q 828 903 1448 1529 
Q 2069 2156 2228 2338 
Q 2531 2678 2651 2914 
Q 2772 3150 2772 3378 
Q 2772 3750 2511 3984 
Q 2250 4219 1831 4219 
Q 1534 4219 1204 4116 
Q 875 4013 500 3803 
L 500 4441 
Q 881 4594 1212 4672 
Q 1544 4750 1819 4750 
Q 2544 4750 2975 4387 
Q 3406 4025 3406 3419 
Q 3406 3131 3298 2873 
Q 3191 2616 2906 2266 
Q 2828 2175 2409 1742 
Q 1991 1309 1228 531 
z
" transform="scale(0.015625)"/>
      </defs>
      <use xlink:href="#DejaVuSans-32"/>
     </g>
    </g>
   </g>
   <g id="text_5">
    <g id="patch_6">
     <path d="M 274.822053 65.103419 
L 281.184553 65.103419 
Q 284.184553 65.103419 284.184553 62.103419 
L 284.184553 52.425294 
Q 284.184553 49.425294 281.184553 49.425294 
L 274.822053 49.425294 
Q 271.822053 49.425294 271.822053 52.425294 
L 271.822053 62.103419 
Q 271.822053 65.103419 274.822053 65.103419 
z
" clip-path="url(#p6e4b8d2383)" style="fill: #ffffff; stroke: #ffffff; stroke-linejoin: miter"/>
    </g>
    <g clip-path="url(#p6e4b8d2383)">
     <!-- 6 -->
     <g transform="translate(274.822053 60.023732) scale(0.1 -0.1)">
      <use xlink:href="#DejaVuSans-36"/>
     </g>
    </g>
   </g>
   <g id="text_6">
    <g id="patch_7">
     <path d="M 227.21875 92.377685 
L 233.58125 92.377685 
Q 236.58125 92.377685 236.58125 89.377685 
L 236.58125 79.69956 
Q 236.58125 76.69956 233.58125 76.69956 
L 227.21875 76.69956 
Q 224.21875 76.69956 224.21875 79.69956 
L 224.21875 89.377685 
Q 224.21875 92.377685 227.21875 92.377685 
z
" clip-path="url(#p6e4b8d2383)" style="fill: #ffffff; stroke: #ffffff; stroke-linejoin: miter"/>
    </g>
    <g clip-path="url(#p6e4b8d2383)">
     <!-- 3 -->
     <g transform="translate(227.21875 87.297997) scale(0.1 -0.1)">
      <use xlink:href="#DejaVuSans-33"/>
     </g>
    </g>
   </g>
   <g id="text_7">
    <g id="patch_8">
     <path d="M 209.035906 136.508382 
L 215.398406 136.508382 
Q 218.398406 136.508382 218.398406 133.508382 
L 218.398406 123.830257 
Q 218.398406 120.830257 215.398406 120.830257 
L 209.035906 120.830257 
Q 206.035906 120.830257 206.035906 123.830257 
L 206.035906 133.508382 
Q 206.035906 136.508382 209.035906 136.508382 
z
" clip-path="url(#p6e4b8d2383)" style="fill: #ffffff; stroke: #ffffff; stroke-linejoin: miter"/>
    </g>
    <g clip-path="url(#p6e4b8d2383)">
     <!-- 4 -->
     <g transform="translate(209.035906 131.428695) scale(0.1 -0.1)">
      <defs>
       <path id="DejaVuSans-34" d="M 2419 4116 
L 825 1625 
L 2419 1625 
L 2419 4116 
z
M 2253 4666 
L 3047 4666 
L 3047 1625 
L 3713 1625 
L 3713 1100 
L 3047 1100 
L 3047 0 
L 2419 0 
L 2419 1100 
L 313 1100 
L 313 1709 
L 2253 4666 
z
" transform="scale(0.015625)"/>
      </defs>
      <use xlink:href="#DejaVuSans-34"/>
     </g>
    </g>
   </g>
   <g id="text_8">
    <g id="patch_9">
     <path d="M 179.615441 65.103415 
L 185.977941 65.103415 
Q 188.977941 65.103415 188.977941 62.103415 
L 188.977941 52.42529 
Q 188.977941 49.42529 185.977941 49.42529 
L 179.615441 49.42529 
Q 176.615441 49.42529 176.615441 52.42529 
L 176.615441 62.103415 
Q 176.615441 65.103415 179.615441 65.103415 
z
" clip-path="url(#p6e4b8d2383)" style="fill: #ffffff; stroke: #ffffff; stroke-linejoin: miter"/>
    </g>
    <g clip-path="url(#p6e4b8d2383)">
     <!-- 4 -->
     <g transform="translate(179.615441 60.023727) scale(0.1 -0.1)">
      <use xlink:href="#DejaVuSans-34"/>
     </g>
    </g>
   </g>
   <g id="text_9">
    <g id="patch_10">
     <path d="M 161.432597 109.234113 
L 167.795097 109.234113 
Q 170.795097 109.234113 170.795097 106.234113 
L 170.795097 96.555988 
Q 170.795097 93.555988 167.795097 93.555988 
L 161.432597 93.555988 
Q 158.432597 93.555988 158.432597 96.555988 
L 158.432597 106.234113 
Q 158.432597 109.234113 161.432597 109.234113 
z
" clip-path="url(#p6e4b8d2383)" style="fill: #ffffff; stroke: #ffffff; stroke-linejoin: miter"/>
    </g>
    <g clip-path="url(#p6e4b8d2383)">
     <!-- 5 -->
     <g transform="translate(161.432597 104.154425) scale(0.1 -0.1)">
      <defs>
       <path id="DejaVuSans-35" d="M 691 4666 
L 3169 4666 
L 3169 4134 
L 1269 4134 
L 1269 2991 
Q 1406 3038 1543 3061 
Q 1681 3084 1819 3084 
Q 2600 3084 3056 2656 
Q 3513 2228 3513 1497 
Q 3513 744 3044 326 
Q 2575 -91 1722 -91 
Q 1428 -91 1123 -41 
Q 819 9 494 109 
L 494 744 
Q 775 591 1075 516 
Q 1375 441 1709 441 
Q 2250 441 2565 725 
Q 2881 1009 2881 1497 
Q 2881 1984 2565 2268 
Q 2250 2553 1709 2553 
Q 1456 2553 1204 2497 
Q 953 2441 691 2322 
L 691 4666 
z
" transform="scale(0.015625)"/>
      </defs>
      <use xlink:href="#DejaVuSans-35"/>
     </g>
    </g>
   </g>
   <g id="text_10">
    <g id="patch_11">
     <path d="M 120.774518 65.103419 
L 127.137018 65.103419 
Q 130.137018 65.103419 130.137018 62.103419 
L 130.137018 52.425294 
Q 130.137018 49.425294 127.137018 49.425294 
L 120.774518 49.425294 
Q 117.774518 49.425294 117.774518 52.425294 
L 117.774518 62.103419 
Q 117.774518 65.103419 120.774518 65.103419 
z
" clip-path="url(#p6e4b8d2383)" style="fill: #ffffff; stroke: #ffffff; stroke-linejoin: miter"/>
    </g>
    <g clip-path="url(#p6e4b8d2383)">
     <!-- 7 -->
     <g transform="translate(120.774518 60.023732) scale(0.1 -0.1)">
      <defs>
       <path id="DejaVuSans-37" d="M 525 4666 
L 3525 4666 
L 3525 4397 
L 1831 0 
L 1172 0 
L 2766 4134 
L 525 4134 
L 525 4666 
z
" transform="scale(0.015625)"/>
      </defs>
      <use xlink:href="#DejaVuSans-37"/>
     </g>
    </g>
   </g>
   <g id="text_11">
    <g id="patch_12">
     <path d="M 102.591674 109.234117 
L 108.954174 109.234117 
Q 111.954174 109.234117 111.954174 106.234117 
L 111.954174 96.555992 
Q 111.954174 93.555992 108.954174 93.555992 
L 102.591674 93.555992 
Q 99.591674 93.555992 99.591674 96.555992 
L 99.591674 106.234117 
Q 99.591674 109.234117 102.591674 109.234117 
z
" clip-path="url(#p6e4b8d2383)" style="fill: #ffffff; stroke: #ffffff; stroke-linejoin: miter"/>
    </g>
    <g clip-path="url(#p6e4b8d2383)">
     <!-- 8 -->
     <g transform="translate(102.591674 104.15443) scale(0.1 -0.1)">
      <defs>
       <path id="DejaVuSans-38" d="M 2034 2216 
Q 1584 2216 1326 1975 
Q 1069 1734 1069 1313 
Q 1069 891 1326 650 
Q 1584 409 2034 409 
Q 2484 409 2743 651 
Q 3003 894 3003 1313 
Q 3003 1734 2745 1975 
Q 2488 2216 2034 2216 
z
M 1403 2484 
Q 997 2584 770 2862 
Q 544 3141 544 3541 
Q 544 4100 942 4425 
Q 1341 4750 2034 4750 
Q 2731 4750 3128 4425 
Q 3525 4100 3525 3541 
Q 3525 3141 3298 2862 
Q 3072 2584 2669 2484 
Q 3125 2378 3379 2068 
Q 3634 1759 3634 1313 
Q 3634 634 3220 271 
Q 2806 -91 2034 -91 
Q 1263 -91 848 271 
Q 434 634 434 1313 
Q 434 1759 690 2068 
Q 947 2378 1403 2484 
z
M 1172 3481 
Q 1172 3119 1398 2916 
Q 1625 2713 2034 2713 
Q 2441 2713 2670 2916 
Q 2900 3119 2900 3481 
Q 2900 3844 2670 4047 
Q 2441 4250 2034 4250 
Q 1625 4250 1398 4047 
Q 1172 3844 1172 3481 
z
" transform="scale(0.015625)"/>
      </defs>
      <use xlink:href="#DejaVuSans-38"/>
     </g>
    </g>
   </g>
   <g id="text_12">
    <g id="patch_13">
     <path d="M 120.774524 153.364806 
L 127.137024 153.364806 
Q 130.137024 153.364806 130.137024 150.364806 
L 130.137024 140.686681 
Q 130.137024 137.686681 127.137024 137.686681 
L 120.774524 137.686681 
Q 117.774524 137.686681 117.774524 140.686681 
L 117.774524 150.364806 
Q 117.774524 153.364806 120.774524 153.364806 
z
" clip-path="url(#p6e4b8d2383)" style="fill: #ffffff; stroke: #ffffff; stroke-linejoin: miter"/>
    </g>
    <g clip-path="url(#p6e4b8d2383)">
     <!-- 9 -->
     <g transform="translate(120.774524 148.285119) scale(0.1 -0.1)">
      <defs>
       <path id="DejaVuSans-39" d="M 703 97 
L 703 672 
Q 941 559 1184 500 
Q 1428 441 1663 441 
Q 2288 441 2617 861 
Q 2947 1281 2994 2138 
Q 2813 1869 2534 1725 
Q 2256 1581 1919 1581 
Q 1219 1581 811 2004 
Q 403 2428 403 3163 
Q 403 3881 828 4315 
Q 1253 4750 1959 4750 
Q 2769 4750 3195 4129 
Q 3622 3509 3622 2328 
Q 3622 1225 3098 567 
Q 2575 -91 1691 -91 
Q 1453 -91 1209 -44 
Q 966 3 703 97 
z
M 1959 2075 
Q 2384 2075 2632 2365 
Q 2881 2656 2881 3163 
Q 2881 3666 2632 3958 
Q 2384 4250 1959 4250 
Q 1534 4250 1286 3958 
Q 1038 3666 1038 3163 
Q 1038 2656 1286 2365 
Q 1534 2075 1959 2075 
z
" transform="scale(0.015625)"/>
      </defs>
      <use xlink:href="#DejaVuSans-39"/>
     </g>
    </g>
   </g>
   <g id="text_13">
    <g id="patch_14">
     <path d="M 54.988371 136.508382 
L 61.350871 136.508382 
Q 64.350871 136.508382 64.350871 133.508382 
L 64.350871 123.830257 
Q 64.350871 120.830257 61.350871 120.830257 
L 54.988371 120.830257 
Q 51.988371 120.830257 51.988371 123.830257 
L 51.988371 133.508382 
Q 51.988371 136.508382 54.988371 136.508382 
z
" clip-path="url(#p6e4b8d2383)" style="fill: #ffffff; stroke: #ffffff; stroke-linejoin: miter"/>
    </g>
    <g clip-path="url(#p6e4b8d2383)">
     <!-- 6 -->
     <g transform="translate(54.988371 131.428695) scale(0.1 -0.1)">
      <use xlink:href="#DejaVuSans-36"/>
     </g>
    </g>
   </g>
   <g id="text_14">
    <g id="patch_15">
     <path d="M 73.171221 180.639071 
L 79.533721 180.639071 
Q 82.533721 180.639071 82.533721 177.639071 
L 82.533721 167.960946 
Q 82.533721 164.960946 79.533721 164.960946 
L 73.171221 164.960946 
Q 70.171221 164.960946 70.171221 167.960946 
L 70.171221 177.639071 
Q 70.171221 180.639071 73.171221 180.639071 
z
" clip-path="url(#p6e4b8d2383)" style="fill: #ffffff; stroke: #ffffff; stroke-linejoin: miter"/>
    </g>
    <g clip-path="url(#p6e4b8d2383)">
     <!-- 9 -->
     <g transform="translate(73.171221 175.559384) scale(0.1 -0.1)">
      <use xlink:href="#DejaVuSans-39"/>
     </g>
    </g>
   </g>
   <g id="text_15">
    <g id="patch_16">
     <path d="M 120.774509 207.913332 
L 127.137009 207.913332 
Q 130.137009 207.913332 130.137009 204.913332 
L 130.137009 195.235207 
Q 130.137009 192.235207 127.137009 192.235207 
L 120.774509 192.235207 
Q 117.774509 192.235207 117.774509 195.235207 
L 117.774509 204.913332 
Q 117.774509 207.913332 120.774509 207.913332 
z
" clip-path="url(#p6e4b8d2383)" style="fill: #ffffff; stroke: #ffffff; stroke-linejoin: miter"/>
    </g>
    <g clip-path="url(#p6e4b8d2383)">
     <!-- 9 -->
     <g transform="translate(120.774509 202.833645) scale(0.1 -0.1)">
      <use xlink:href="#DejaVuSans-39"/>
     </g>
    </g>
   </g>
   <g id="text_16">
    <g id="patch_17">
     <path d="M 54.988377 224.769769 
L 61.350877 224.769769 
Q 64.350877 224.769769 64.350877 221.769769 
L 64.350877 212.091644 
Q 64.350877 209.091644 61.350877 209.091644 
L 54.988377 209.091644 
Q 51.988377 209.091644 51.988377 212.091644 
L 51.988377 221.769769 
Q 51.988377 224.769769 54.988377 224.769769 
z
" clip-path="url(#p6e4b8d2383)" style="fill: #ffffff; stroke: #ffffff; stroke-linejoin: miter"/>
    </g>
    <g clip-path="url(#p6e4b8d2383)">
     <!-- 8 -->
     <g transform="translate(54.988377 219.690082) scale(0.1 -0.1)">
      <use xlink:href="#DejaVuSans-38"/>
     </g>
    </g>
   </g>
   <g id="text_17">
    <g id="patch_18">
     <path d="M 102.591665 252.04403 
L 108.954165 252.04403 
Q 111.954165 252.04403 111.954165 249.04403 
L 111.954165 239.365905 
Q 111.954165 236.365905 108.954165 236.365905 
L 102.591665 236.365905 
Q 99.591665 236.365905 99.591665 239.365905 
L 99.591665 249.04403 
Q 99.591665 252.04403 102.591665 252.04403 
z
" clip-path="url(#p6e4b8d2383)" style="fill: #ffffff; stroke: #ffffff; stroke-linejoin: miter"/>
    </g>
    <g clip-path="url(#p6e4b8d2383)">
     <!-- 9 -->
     <g transform="translate(102.591665 246.964342) scale(0.1 -0.1)">
      <use xlink:href="#DejaVuSans-39"/>
     </g>
    </g>
   </g>
   <g id="text_18">
    <g id="patch_19">
     <path d="M 117.593265 296.174719 
L 130.318265 296.174719 
Q 133.318265 296.174719 133.318265 293.174719 
L 133.318265 283.496594 
Q 133.318265 280.496594 130.318265 280.496594 
L 117.593265 280.496594 
Q 114.593265 280.496594 114.593265 283.496594 
L 114.593265 293.174719 
Q 114.593265 296.174719 117.593265 296.174719 
z
" clip-path="url(#p6e4b8d2383)" style="fill: #ffffff; stroke: #ffffff; stroke-linejoin: miter"/>
    </g>
    <g clip-path="url(#p6e4b8d2383)">
     <!-- 11 -->
     <g transform="translate(117.593265 291.095031) scale(0.1 -0.1)">
      <use xlink:href="#DejaVuSans-31"/>
      <use xlink:href="#DejaVuSans-31" x="63.623047"/>
     </g>
    </g>
   </g>
   <g id="text_19">
    <g id="patch_20">
     <path d="M 176.434211 296.174719 
L 189.159211 296.174719 
Q 192.159211 296.174719 192.159211 293.174719 
L 192.159211 283.496594 
Q 192.159211 280.496594 189.159211 280.496594 
L 176.434211 280.496594 
Q 173.434211 280.496594 173.434211 283.496594 
L 173.434211 293.174719 
Q 173.434211 296.174719 176.434211 296.174719 
z
" clip-path="url(#p6e4b8d2383)" style="fill: #ffffff; stroke: #ffffff; stroke-linejoin: miter"/>
    </g>
    <g clip-path="url(#p6e4b8d2383)">
     <!-- 12 -->
     <g transform="translate(176.434211 291.095031) scale(0.1 -0.1)">
      <use xlink:href="#DejaVuSans-31"/>
      <use xlink:href="#DejaVuSans-32" x="63.623047"/>
     </g>
    </g>
   </g>
   <g id="text_20">
    <g id="patch_21">
     <path d="M 224.0375 268.900458 
L 236.7625 268.900458 
Q 239.7625 268.900458 239.7625 265.900458 
L 239.7625 256.222333 
Q 239.7625 253.222333 236.7625 253.222333 
L 224.0375 253.222333 
Q 221.0375 253.222333 221.0375 256.222333 
L 221.0375 265.900458 
Q 221.0375 268.900458 224.0375 268.900458 
z
" clip-path="url(#p6e4b8d2383)" style="fill: #ffffff; stroke: #ffffff; stroke-linejoin: miter"/>
    </g>
    <g clip-path="url(#p6e4b8d2383)">
     <!-- 14 -->
     <g transform="translate(224.0375 263.820771) scale(0.1 -0.1)">
      <use xlink:href="#DejaVuSans-31"/>
      <use xlink:href="#DejaVuSans-34" x="63.623047"/>
     </g>
    </g>
   </g>
   <g id="text_21">
    <g id="patch_22">
     <path d="M 224.0375 323.44898 
L 236.7625 323.44898 
Q 239.7625 323.44898 239.7625 320.44898 
L 239.7625 310.770855 
Q 239.7625 307.770855 236.7625 307.770855 
L 224.0375 307.770855 
Q 221.0375 307.770855 221.0375 310.770855 
L 221.0375 320.44898 
Q 221.0375 323.44898 224.0375 323.44898 
z
" clip-path="url(#p6e4b8d2383)" style="fill: #ffffff; stroke: #ffffff; stroke-linejoin: miter"/>
    </g>
    <g clip-path="url(#p6e4b8d2383)">
     <!-- 14 -->
     <g transform="translate(224.0375 318.369292) scale(0.1 -0.1)">
      <use xlink:href="#DejaVuSans-31"/>
      <use xlink:href="#DejaVuSans-34" x="63.623047"/>
     </g>
    </g>
   </g>
   <g id="text_22">
    <g id="patch_23">
     <path d="M 271.640789 296.174719 
L 284.365789 296.174719 
Q 287.365789 296.174719 287.365789 293.174719 
L 287.365789 283.496594 
Q 287.365789 280.496594 284.365789 280.496594 
L 271.640789 280.496594 
Q 268.640789 280.496594 268.640789 283.496594 
L 268.640789 293.174719 
Q 268.640789 296.174719 271.640789 296.174719 
z
" clip-path="url(#p6e4b8d2383)" style="fill: #ffffff; stroke: #ffffff; stroke-linejoin: miter"/>
    </g>
    <g clip-path="url(#p6e4b8d2383)">
     <!-- 15 -->
     <g transform="translate(271.640789 291.095031) scale(0.1 -0.1)">
      <use xlink:href="#DejaVuSans-31"/>
      <use xlink:href="#DejaVuSans-35" x="63.623047"/>
     </g>
    </g>
   </g>
   <g id="PathCollection_1">
    <defs>
     <path id="m094ae7bb83" d="M 0 8.660254 
C 2.296726 8.660254 4.499694 7.747755 6.123724 6.123724 
C 7.747755 4.499694 8.660254 2.296726 8.660254 0 
C 8.660254 -2.296726 7.747755 -4.499694 6.123724 -6.123724 
C 4.499694 -7.747755 2.296726 -8.660254 0 -8.660254 
C -2.296726 -8.660254 -4.499694 -7.747755 -6.123724 -6.123724 
C -7.747755 -4.499694 -8.660254 -2.296726 -8.660254 0 
C -8.660254 2.296726 -7.747755 4.499694 -6.123724 6.123724 
C -4.499694 7.747755 -2.296726 8.660254 0 8.660254 
z
" style="stroke: #0000ff"/>
    </defs>
    <g clip-path="url(#p6e4b8d2383)">
     <use xlink:href="#m094ae7bb83" x="420.813223" y="172.800004" style="fill: #0000ff; stroke: #0000ff"/>
     <use xlink:href="#m094ae7bb83" x="384.447535" y="84.538622" style="fill: #0000ff; stroke: #0000ff"/>
     <use xlink:href="#m094ae7bb83" x="289.240918" y="29.990083" style="fill: #0000ff; stroke: #0000ff"/>
     <use xlink:href="#m094ae7bb83" x="171.559071" y="29.990092" style="fill: #0000ff; stroke: #0000ff"/>
     <use xlink:href="#m094ae7bb83" x="76.352465" y="84.538622" style="fill: #0000ff; stroke: #0000ff"/>
     <use xlink:href="#m094ae7bb83" x="39.986777" y="172.800018" style="fill: #0000ff; stroke: #0000ff"/>
     <use xlink:href="#m094ae7bb83" x="76.352476" y="261.061396" style="fill: #0000ff; stroke: #0000ff"/>
     <use xlink:href="#m094ae7bb83" x="171.559054" y="315.609917" style="fill: #0000ff; stroke: #0000ff"/>
     <use xlink:href="#m094ae7bb83" x="289.240946" y="315.609917" style="fill: #0000ff; stroke: #0000ff"/>
     <use xlink:href="#m094ae7bb83" x="384.447524" y="261.061396" style="fill: #0000ff; stroke: #0000ff"/>
    </g>
   </g>
   <g id="text_23">
    <g clip-path="url(#p6e4b8d2383)">
     <!-- A -->
     <g style="fill: #ffffff" transform="translate(416.708848 176.111254) scale(0.12 -0.12)">
      <defs>
       <path id="DejaVuSans-41" d="M 2188 4044 
L 1331 1722 
L 3047 1722 
L 2188 4044 
z
M 1831 4666 
L 2547 4666 
L 4325 0 
L 3669 0 
L 3244 1197 
L 1141 1197 
L 716 0 
L 50 0 
L 1831 4666 
z
" transform="scale(0.015625)"/>
      </defs>
      <use xlink:href="#DejaVuSans-41"/>
     </g>
    </g>
   </g>
   <g id="text_24">
    <g clip-path="url(#p6e4b8d2383)">
     <!-- B -->
     <g style="fill: #ffffff" transform="translate(380.330973 87.849872) scale(0.12 -0.12)">
      <defs>
       <path id="DejaVuSans-42" d="M 1259 2228 
L 1259 519 
L 2272 519 
Q 2781 519 3026 730 
Q 3272 941 3272 1375 
Q 3272 1813 3026 2020 
Q 2781 2228 2272 2228 
L 1259 2228 
z
M 1259 4147 
L 1259 2741 
L 2194 2741 
Q 2656 2741 2882 2914 
Q 3109 3088 3109 3444 
Q 3109 3797 2882 3972 
Q 2656 4147 2194 4147 
L 1259 4147 
z
M 628 4666 
L 2241 4666 
Q 2963 4666 3353 4366 
Q 3744 4066 3744 3513 
Q 3744 3084 3544 2831 
Q 3344 2578 2956 2516 
Q 3422 2416 3680 2098 
Q 3938 1781 3938 1306 
Q 3938 681 3513 340 
Q 3088 0 2303 0 
L 628 0 
L 628 4666 
z
" transform="scale(0.015625)"/>
      </defs>
      <use xlink:href="#DejaVuSans-42"/>
     </g>
    </g>
   </g>
   <g id="text_25">
    <g clip-path="url(#p6e4b8d2383)">
     <!-- C -->
     <g style="fill: #ffffff" transform="translate(285.05123 33.301333) scale(0.12 -0.12)">
      <defs>
       <path id="DejaVuSans-43" d="M 4122 4306 
L 4122 3641 
Q 3803 3938 3442 4084 
Q 3081 4231 2675 4231 
Q 1875 4231 1450 3742 
Q 1025 3253 1025 2328 
Q 1025 1406 1450 917 
Q 1875 428 2675 428 
Q 3081 428 3442 575 
Q 3803 722 4122 1019 
L 4122 359 
Q 3791 134 3420 21 
Q 3050 -91 2638 -91 
Q 1578 -91 968 557 
Q 359 1206 359 2328 
Q 359 3453 968 4101 
Q 1578 4750 2638 4750 
Q 3056 4750 3426 4639 
Q 3797 4528 4122 4306 
z
" transform="scale(0.015625)"/>
      </defs>
      <use xlink:href="#DejaVuSans-43"/>
     </g>
    </g>
   </g>
   <g id="text_26">
    <g clip-path="url(#p6e4b8d2383)">
     <!-- D -->
     <g style="fill: #ffffff" transform="translate(166.939071 33.301342) scale(0.12 -0.12)">
      <defs>
       <path id="DejaVuSans-44" d="M 1259 4147 
L 1259 519 
L 2022 519 
Q 2988 519 3436 956 
Q 3884 1394 3884 2338 
Q 3884 3275 3436 3711 
Q 2988 4147 2022 4147 
L 1259 4147 
z
M 628 4666 
L 1925 4666 
Q 3281 4666 3915 4102 
Q 4550 3538 4550 2338 
Q 4550 1131 3912 565 
Q 3275 0 1925 0 
L 628 0 
L 628 4666 
z
" transform="scale(0.015625)"/>
      </defs>
      <use xlink:href="#DejaVuSans-44"/>
     </g>
    </g>
   </g>
   <g id="text_27">
    <g clip-path="url(#p6e4b8d2383)">
     <!-- E -->
     <g style="fill: #ffffff" transform="translate(72.561215 87.849872) scale(0.12 -0.12)">
      <defs>
       <path id="DejaVuSans-45" d="M 628 4666 
L 3578 4666 
L 3578 4134 
L 1259 4134 
L 1259 2753 
L 3481 2753 
L 3481 2222 
L 1259 2222 
L 1259 531 
L 3634 531 
L 3634 0 
L 628 0 
L 628 4666 
z
" transform="scale(0.015625)"/>
      </defs>
      <use xlink:href="#DejaVuSans-45"/>
     </g>
    </g>
   </g>
   <g id="text_28">
    <g clip-path="url(#p6e4b8d2383)">
     <!-- F -->
     <g style="fill: #ffffff" transform="translate(36.535839 176.111268) scale(0.12 -0.12)">
      <defs>
       <path id="DejaVuSans-46" d="M 628 4666 
L 3309 4666 
L 3309 4134 
L 1259 4134 
L 1259 2759 
L 3109 2759 
L 3109 2228 
L 1259 2228 
L 1259 0 
L 628 0 
L 628 4666 
z
" transform="scale(0.015625)"/>
      </defs>
      <use xlink:href="#DejaVuSans-46"/>
     </g>
    </g>
   </g>
   <g id="text_29">
    <g clip-path="url(#p6e4b8d2383)">
     <!-- G -->
     <g style="fill: #ffffff" transform="translate(71.703414 264.372646) scale(0.12 -0.12)">
      <defs>
       <path id="DejaVuSans-47" d="M 3809 666 
L 3809 1919 
L 2778 1919 
L 2778 2438 
L 4434 2438 
L 4434 434 
Q 4069 175 3628 42 
Q 3188 -91 2688 -91 
Q 1594 -91 976 548 
Q 359 1188 359 2328 
Q 359 3472 976 4111 
Q 1594 4750 2688 4750 
Q 3144 4750 3555 4637 
Q 3966 4525 4313 4306 
L 4313 3634 
Q 3963 3931 3569 4081 
Q 3175 4231 2741 4231 
Q 1884 4231 1454 3753 
Q 1025 3275 1025 2328 
Q 1025 1384 1454 906 
Q 1884 428 2741 428 
Q 3075 428 3337 486 
Q 3600 544 3809 666 
z
" transform="scale(0.015625)"/>
      </defs>
      <use xlink:href="#DejaVuSans-47"/>
     </g>
    </g>
   </g>
   <g id="text_30">
    <g clip-path="url(#p6e4b8d2383)">
     <!-- H -->
     <g style="fill: #ffffff" transform="translate(167.046866 318.921167) scale(0.12 -0.12)">
      <defs>
       <path id="DejaVuSans-48" d="M 628 4666 
L 1259 4666 
L 1259 2753 
L 3553 2753 
L 3553 4666 
L 4184 4666 
L 4184 0 
L 3553 0 
L 3553 2222 
L 1259 2222 
L 1259 0 
L 628 0 
L 628 4666 
z
" transform="scale(0.015625)"/>
      </defs>
      <use xlink:href="#DejaVuSans-48"/>
     </g>
    </g>
   </g>
   <g id="text_31">
    <g clip-path="url(#p6e4b8d2383)">
     <!-- I -->
     <g style="fill: #ffffff" transform="translate(287.470946 318.921167) scale(0.12 -0.12)">
      <defs>
       <path id="DejaVuSans-49" d="M 628 4666 
L 1259 4666 
L 1259 0 
L 628 0 
L 628 4666 
z
" transform="scale(0.015625)"/>
      </defs>
      <use xlink:href="#DejaVuSans-49"/>
     </g>
    </g>
   </g>
   <g id="text_32">
    <g clip-path="url(#p6e4b8d2383)">
     <!-- J -->
     <g style="fill: #ffffff" transform="translate(382.677524 264.372646) scale(0.12 -0.12)">
      <defs>
       <path id="DejaVuSans-4a" d="M 628 4666 
L 1259 4666 
L 1259 325 
Q 1259 -519 939 -900 
Q 619 -1281 -91 -1281 
L -331 -1281 
L -331 -750 
L -134 -750 
Q 284 -750 456 -515 
Q 628 -281 628 325 
L 628 4666 
z
" transform="scale(0.015625)"/>
      </defs>
      <use xlink:href="#DejaVuSans-4a"/>
     </g>
    </g>
   </g>
  </g>
 </g>
 <defs>
  <clipPath id="p6e4b8d2383">
   <rect x="0" y="0" width="460.8" height="345.6"/>
  </clipPath>
 </defs>
</svg>
