<?xml version="1.0" encoding="utf-8" standalone="no"?>
<!DOCTYPE svg PUBLIC "-//W3C//DTD SVG 1.1//EN"
  "http://www.w3.org/Graphics/SVG/1.1/DTD/svg11.dtd">
<svg xmlns:xlink="http://www.w3.org/1999/xlink" width="460.8pt" height="345.6pt" viewBox="0 0 460.8 345.6" xmlns="http://www.w3.org/2000/svg" version="1.1">
 <metadata>
  <rdf:RDF xmlns:dc="http://purl.org/dc/elements/1.1/" xmlns:cc="http://creativecommons.org/ns#" xmlns:rdf="http://www.w3.org/1999/02/22-rdf-syntax-ns#">
   <cc:Work>
    <dc:type rdf:resource="http://purl.org/dc/dcmitype/StillImage"/>
    <dc:date>2023-03-19T19:11:08.012495</dc:date>
    <dc:format>image/svg+xml</dc:format>
    <dc:creator>
     <cc:Agent>
      <dc:title>Matplotlib v3.6.3, https://matplotlib.org/</dc:title>
     </cc:Agent>
    </dc:creator>
   </cc:Work>
  </rdf:RDF>
 </metadata>
 <defs>
  <style type="text/css">*{stroke-linejoin: round; stroke-linecap: butt}</style>
 </defs>
 <g id="figure_1">
  <g id="patch_1">
   <path d="M 0 345.6 
L 460.8 345.6 
L 460.8 0 
L 0 0 
z
" style="fill: #ffffff"/>
  </g>
  <g id="axes_1">
   <g id="LineCollection_1">
    <path d="M 39.986777 312.432632 
L 39.986777 312.432632 
" clip-path="url(#pc3bb1a932e)" style="fill: none; stroke: #ffffff"/>
    <path d="M 39.986777 312.432632 
L 327.53671 316.23083 
" clip-path="url(#pc3bb1a932e)" style="fill: none; stroke: #ffffff"/>
    <path d="M 39.986777 312.432632 
L 233.343043 224.893665 
" clip-path="url(#pc3bb1a932e)" style="fill: none; stroke: #ffffff"/>
    <path d="M 39.986777 312.432632 
L 420.813223 194.28652 
" clip-path="url(#pc3bb1a932e)" style="fill: none; stroke: #ffffff"/>
    <path d="M 39.986777 312.432632 
L 250.989864 43.029249 
" clip-path="url(#pc3bb1a932e)" style="fill: none; stroke: #ffffff"/>
    <path d="M 327.53671 316.23083 
L 327.53671 316.23083 
" clip-path="url(#pc3bb1a932e)" style="fill: none; stroke: #ffffff"/>
    <path d="M 327.53671 316.23083 
L 233.343043 224.893665 
" clip-path="url(#pc3bb1a932e)" style="fill: none; stroke: #ffffff"/>
    <path d="M 327.53671 316.23083 
L 420.813223 194.28652 
" clip-path="url(#pc3bb1a932e)" style="fill: none; stroke: #ffffff"/>
    <path d="M 327.53671 316.23083 
L 250.989864 43.029249 
" clip-path="url(#pc3bb1a932e)" style="fill: none; stroke: #ffffff"/>
    <path d="M 233.343043 224.893665 
L 233.343043 224.893665 
" clip-path="url(#pc3bb1a932e)" style="fill: none; stroke: #ffffff"/>
    <path d="M 233.343043 224.893665 
L 420.813223 194.28652 
" clip-path="url(#pc3bb1a932e)" style="fill: none; stroke: #ffffff"/>
    <path d="M 233.343043 224.893665 
L 250.989864 43.029249 
" clip-path="url(#pc3bb1a932e)" style="fill: none; stroke: #ffffff"/>
    <path d="M 420.813223 194.28652 
L 420.813223 194.28652 
" clip-path="url(#pc3bb1a932e)" style="fill: none; stroke: #ffffff"/>
    <path d="M 420.813223 194.28652 
L 250.989864 43.029249 
" clip-path="url(#pc3bb1a932e)" style="fill: none; stroke: #ffffff"/>
    <path d="M 250.989864 43.029249 
L 250.989864 43.029249 
" clip-path="url(#pc3bb1a932e)" style="fill: none; stroke: #ffffff"/>
   </g>
   <g id="patch_2">
    <path d="M 39.986777 285.112474 
C 50.723225 285.112474 50.723225 312.432632 39.986777 312.432632 
C 29.250329 312.432632 29.250329 285.112474 39.986777 285.112474 
" clip-path="url(#pc3bb1a932e)" style="fill: none; stroke: #ffffff; stroke-linecap: round"/>
   </g>
   <g id="patch_3">
    <path d="M 327.53671 288.910672 
C 338.273157 288.910672 338.273157 316.23083 327.53671 316.23083 
C 316.800262 316.23083 316.800262 288.910672 327.53671 288.910672 
" clip-path="url(#pc3bb1a932e)" style="fill: none; stroke: #ffffff; stroke-linecap: round"/>
   </g>
   <g id="patch_4">
    <path d="M 233.343043 197.573506 
C 244.07949 197.573506 244.07949 224.893665 233.343043 224.893665 
C 222.606595 224.893665 222.606595 197.573506 233.343043 197.573506 
" clip-path="url(#pc3bb1a932e)" style="fill: none; stroke: #ffffff; stroke-linecap: round"/>
   </g>
   <g id="patch_5">
    <path d="M 420.813223 166.966362 
C 431.549671 166.966362 431.549671 194.28652 420.813223 194.28652 
C 410.076775 194.28652 410.076775 166.966362 420.813223 166.966362 
" clip-path="url(#pc3bb1a932e)" style="fill: none; stroke: #ffffff; stroke-linecap: round"/>
   </g>
   <g id="patch_6">
    <path d="M 250.989864 15.709091 
C 261.726311 15.709091 261.726311 43.029249 250.989864 43.029249 
C 240.253416 43.029249 240.253416 15.709091 250.989864 15.709091 
" clip-path="url(#pc3bb1a932e)" style="fill: none; stroke: #ffffff; stroke-linecap: round"/>
   </g>
   <g id="LineCollection_2">
    <path d="M 420.813223 194.28652 
L 250.989864 43.029249 
" clip-path="url(#pc3bb1a932e)" style="fill: none; stroke: #000000"/>
    <path d="M 420.813223 194.28652 
L 233.343043 224.893665 
" clip-path="url(#pc3bb1a932e)" style="fill: none; stroke: #000000"/>
    <path d="M 420.813223 194.28652 
L 327.53671 316.23083 
" clip-path="url(#pc3bb1a932e)" style="fill: none; stroke: #000000"/>
    <path d="M 233.343043 224.893665 
L 39.986777 312.432632 
" clip-path="url(#pc3bb1a932e)" style="fill: none; stroke: #000000"/>
   </g>
   <g id="text_1">
    <g id="patch_7">
     <path d="M 328.31213 122.395805 
L 333.063307 126.627556 
Q 335.303548 128.622881 337.298873 126.38264 
L 343.735873 119.155529 
Q 345.731198 116.915288 343.490957 114.919964 
L 338.739779 110.688213 
Q 336.499538 108.692888 334.504214 110.933129 
L 328.067213 118.16024 
Q 326.071889 120.400481 328.31213 122.395805 
z
" clip-path="url(#pc3bb1a932e)" style="fill: #ffffff; stroke: #ffffff; stroke-linejoin: miter"/>
    </g>
    <g clip-path="url(#pc3bb1a932e)">
     <!-- 1 -->
     <g transform="translate(331.690672 118.602564) rotate(-318.309372) scale(0.1 -0.1)">
      <defs>
       <path id="DejaVuSans-31" d="M 794 531 
L 1825 531 
L 1825 4091 
L 703 3866 
L 703 4441 
L 1819 4666 
L 2450 4666 
L 2450 531 
L 3481 531 
L 3481 0 
L 794 0 
L 794 531 
z
" transform="scale(0.015625)"/>
      </defs>
      <use xlink:href="#DejaVuSans-31"/>
     </g>
    </g>
   </g>
   <g id="text_2">
    <g id="patch_8">
     <path d="M 325.201566 217.839319 
L 331.480927 216.814125 
Q 334.441727 216.330733 333.958335 213.369934 
L 332.398891 203.818272 
Q 331.915499 200.857473 328.9547 201.340865 
L 322.675338 202.366059 
Q 319.714539 202.849451 320.197931 205.81025 
L 321.757374 215.361912 
Q 322.240767 218.322711 325.201566 217.839319 
z
" clip-path="url(#pc3bb1a932e)" style="fill: #ffffff; stroke: #ffffff; stroke-linejoin: miter"/>
    </g>
    <g clip-path="url(#pc3bb1a932e)">
     <!-- 2 -->
     <g transform="translate(324.383072 212.826008) rotate(-9.272533) scale(0.1 -0.1)">
      <defs>
       <path id="DejaVuSans-32" d="M 1228 531 
L 3431 531 
L 3431 0 
L 469 0 
L 469 531 
Q 828 903 1448 1529 
Q 2069 2156 2228 2338 
Q 2531 2678 2651 2914 
Q 2772 3150 2772 3378 
Q 2772 3750 2511 3984 
Q 2250 4219 1831 4219 
Q 1534 4219 1204 4116 
Q 875 4013 500 3803 
L 500 4441 
Q 881 4594 1212 4672 
Q 1544 4750 1819 4750 
Q 2544 4750 2975 4387 
Q 3406 4025 3406 3419 
Q 3406 3131 3298 2873 
Q 3191 2616 2906 2266 
Q 2828 2175 2409 1742 
Q 1991 1309 1228 531 
z
" transform="scale(0.015625)"/>
      </defs>
      <use xlink:href="#DejaVuSans-32"/>
     </g>
    </g>
   </g>
   <g id="text_3">
    <g id="patch_9">
     <path d="M 378.468594 262.54812 
L 382.334149 257.494518 
Q 384.156807 255.11168 381.773969 253.289022 
L 374.086835 247.40905 
Q 371.703997 245.586392 369.881339 247.96923 
L 366.015784 253.022832 
Q 364.193126 255.40567 366.575964 257.228328 
L 374.263098 263.1083 
Q 376.645936 264.930958 378.468594 262.54812 
z
" clip-path="url(#pc3bb1a932e)" style="fill: #ffffff; stroke: #ffffff; stroke-linejoin: miter"/>
    </g>
    <g clip-path="url(#pc3bb1a932e)">
     <!-- 4 -->
     <g transform="translate(374.433904 259.461942) rotate(-52.587237) scale(0.1 -0.1)">
      <defs>
       <path id="DejaVuSans-34" d="M 2419 4116 
L 825 1625 
L 2419 1625 
L 2419 4116 
z
M 2253 4666 
L 3047 4666 
L 3047 1625 
L 3713 1625 
L 3713 1100 
L 3047 1100 
L 3047 0 
L 2419 0 
L 2419 1100 
L 313 1100 
L 313 1709 
L 2253 4666 
z
" transform="scale(0.015625)"/>
      </defs>
      <use xlink:href="#DejaVuSans-34"/>
     </g>
    </g>
   </g>
   <g id="text_4">
    <g id="patch_10">
     <path d="M 136.999935 277.116491 
L 142.79609 274.492374 
Q 145.529051 273.25507 144.291747 270.522109 
L 140.300151 261.705462 
Q 139.062846 258.9725 136.329885 260.209805 
L 130.533729 262.833922 
Q 127.800768 264.071227 129.038073 266.804188 
L 133.029669 275.620835 
Q 134.266974 278.353796 136.999935 277.116491 
z
" clip-path="url(#pc3bb1a932e)" style="fill: #ffffff; stroke: #ffffff; stroke-linejoin: miter"/>
    </g>
    <g clip-path="url(#pc3bb1a932e)">
     <!-- 3 -->
     <g transform="translate(134.904895 272.488962) rotate(-24.357882) scale(0.1 -0.1)">
      <defs>
       <path id="DejaVuSans-33" d="M 2597 2516 
Q 3050 2419 3304 2112 
Q 3559 1806 3559 1356 
Q 3559 666 3084 287 
Q 2609 -91 1734 -91 
Q 1441 -91 1130 -33 
Q 819 25 488 141 
L 488 750 
Q 750 597 1062 519 
Q 1375 441 1716 441 
Q 2309 441 2620 675 
Q 2931 909 2931 1356 
Q 2931 1769 2642 2001 
Q 2353 2234 1838 2234 
L 1294 2234 
L 1294 2753 
L 1863 2753 
Q 2328 2753 2575 2939 
Q 2822 3125 2822 3475 
Q 2822 3834 2567 4026 
Q 2313 4219 1838 4219 
Q 1578 4219 1281 4162 
Q 984 4106 628 3988 
L 628 4550 
Q 988 4650 1302 4700 
Q 1616 4750 1894 4750 
Q 2613 4750 3031 4423 
Q 3450 4097 3450 3541 
Q 3450 3153 3228 2886 
Q 3006 2619 2597 2516 
z
" transform="scale(0.015625)"/>
      </defs>
      <use xlink:href="#DejaVuSans-33"/>
     </g>
    </g>
   </g>
   <g id="PathCollection_1">
    <defs>
     <path id="mf9ff3cafcd" d="M 0 8.660254 
C 2.296726 8.660254 4.499694 7.747755 6.123724 6.123724 
C 7.747755 4.499694 8.660254 2.296726 8.660254 0 
C 8.660254 -2.296726 7.747755 -4.499694 6.123724 -6.123724 
C 4.499694 -7.747755 2.296726 -8.660254 0 -8.660254 
C -2.296726 -8.660254 -4.499694 -7.747755 -6.123724 -6.123724 
C -7.747755 -4.499694 -8.660254 -2.296726 -8.660254 0 
C -8.660254 2.296726 -7.747755 4.499694 -6.123724 6.123724 
C -4.499694 7.747755 -2.296726 8.660254 0 8.660254 
z
" style="stroke: #ff0000"/>
    </defs>
    <g clip-path="url(#pc3bb1a932e)">
     <use xlink:href="#mf9ff3cafcd" x="39.986777" y="312.432632" style="fill: #ff0000; stroke: #ff0000"/>
     <use xlink:href="#mf9ff3cafcd" x="327.53671" y="316.23083" style="fill: #ff0000; stroke: #ff0000"/>
     <use xlink:href="#mf9ff3cafcd" x="233.343043" y="224.893665" style="fill: #ff0000; stroke: #ff0000"/>
     <use xlink:href="#mf9ff3cafcd" x="420.813223" y="194.28652" style="fill: #ff0000; stroke: #ff0000"/>
     <use xlink:href="#mf9ff3cafcd" x="250.989864" y="43.029249" style="fill: #ff0000; stroke: #ff0000"/>
    </g>
   </g>
   <g id="PathCollection_2">
    <g clip-path="url(#pc3bb1a932e)">
     <use xlink:href="#mf9ff3cafcd" x="420.813223" y="194.28652" style="fill: #ff0000; stroke: #ff0000"/>
     <use xlink:href="#mf9ff3cafcd" x="250.989864" y="43.029249" style="fill: #ff0000; stroke: #ff0000"/>
     <use xlink:href="#mf9ff3cafcd" x="233.343043" y="224.893665" style="fill: #ff0000; stroke: #ff0000"/>
     <use xlink:href="#mf9ff3cafcd" x="39.986777" y="312.432632" style="fill: #ff0000; stroke: #ff0000"/>
     <use xlink:href="#mf9ff3cafcd" x="327.53671" y="316.23083" style="fill: #ff0000; stroke: #ff0000"/>
    </g>
   </g>
   <g id="text_5">
    <g clip-path="url(#pc3bb1a932e)">
     <!-- 0 -->
     <g style="fill: #ffffff" transform="translate(36.169277 315.743882) scale(0.12 -0.12)">
      <defs>
       <path id="DejaVuSans-30" d="M 2034 4250 
Q 1547 4250 1301 3770 
Q 1056 3291 1056 2328 
Q 1056 1369 1301 889 
Q 1547 409 2034 409 
Q 2525 409 2770 889 
Q 3016 1369 3016 2328 
Q 3016 3291 2770 3770 
Q 2525 4250 2034 4250 
z
M 2034 4750 
Q 2819 4750 3233 4129 
Q 3647 3509 3647 2328 
Q 3647 1150 3233 529 
Q 2819 -91 2034 -91 
Q 1250 -91 836 529 
Q 422 1150 422 2328 
Q 422 3509 836 4129 
Q 1250 4750 2034 4750 
z
" transform="scale(0.015625)"/>
      </defs>
      <use xlink:href="#DejaVuSans-30"/>
     </g>
    </g>
   </g>
   <g id="text_6">
    <g clip-path="url(#pc3bb1a932e)">
     <!-- 1 -->
     <g style="fill: #ffffff" transform="translate(323.71921 319.54208) scale(0.12 -0.12)">
      <use xlink:href="#DejaVuSans-31"/>
     </g>
    </g>
   </g>
   <g id="text_7">
    <g clip-path="url(#pc3bb1a932e)">
     <!-- 2 -->
     <g style="fill: #ffffff" transform="translate(229.525543 228.204915) scale(0.12 -0.12)">
      <use xlink:href="#DejaVuSans-32"/>
     </g>
    </g>
   </g>
   <g id="text_8">
    <g clip-path="url(#pc3bb1a932e)">
     <!-- 3 -->
     <g style="fill: #ffffff" transform="translate(416.995723 197.59777) scale(0.12 -0.12)">
      <use xlink:href="#DejaVuSans-33"/>
     </g>
    </g>
   </g>
   <g id="text_9">
    <g clip-path="url(#pc3bb1a932e)">
     <!-- 4 -->
     <g style="fill: #ffffff" transform="translate(247.172364 46.340499) scale(0.12 -0.12)">
      <use xlink:href="#DejaVuSans-34"/>
     </g>
    </g>
   </g>
   <g id="text_10">
    <g clip-path="url(#pc3bb1a932e)">
     <!-- 3 -->
     <g style="fill: #ffffff" transform="translate(416.995723 197.59777) scale(0.12 -0.12)">
      <use xlink:href="#DejaVuSans-33"/>
     </g>
    </g>
   </g>
   <g id="text_11">
    <g clip-path="url(#pc3bb1a932e)">
     <!-- 4 -->
     <g style="fill: #ffffff" transform="translate(247.172364 46.340499) scale(0.12 -0.12)">
      <use xlink:href="#DejaVuSans-34"/>
     </g>
    </g>
   </g>
   <g id="text_12">
    <g clip-path="url(#pc3bb1a932e)">
     <!-- 2 -->
     <g style="fill: #ffffff" transform="translate(229.525543 228.204915) scale(0.12 -0.12)">
      <use xlink:href="#DejaVuSans-32"/>
     </g>
    </g>
   </g>
   <g id="text_13">
    <g clip-path="url(#pc3bb1a932e)">
     <!-- 0 -->
     <g style="fill: #ffffff" transform="translate(36.169277 315.743882) scale(0.12 -0.12)">
      <use xlink:href="#DejaVuSans-30"/>
     </g>
    </g>
   </g>
   <g id="text_14">
    <g clip-path="url(#pc3bb1a932e)">
     <!-- 1 -->
     <g style="fill: #ffffff" transform="translate(323.71921 319.54208) scale(0.12 -0.12)">
      <use xlink:href="#DejaVuSans-31"/>
     </g>
    </g>
   </g>
  </g>
 </g>
 <defs>
  <clipPath id="pc3bb1a932e">
   <rect x="0" y="0" width="460.8" height="345.6"/>
  </clipPath>
 </defs>
</svg>
