<svg version="1.1" xmlns="http://www.w3.org/2000/svg" xmlns:xlink="http://www.w3.org/1999/xlink" width="732" height="604"><defs/><g><text fill="#eeeeee" stroke="none" font-family="Arial" font-size="24px" font-style="normal" font-weight="normal" text-decoration="none" x="0" y="0">UNREGISTERED</text><text fill="#eeeeee" stroke="none" font-family="Arial" font-size="24px" font-style="normal" font-weight="normal" text-decoration="none" x="0" y="30">UNREGISTERED</text><text fill="#eeeeee" stroke="none" font-family="Arial" font-size="24px" font-style="normal" font-weight="normal" text-decoration="none" x="0" y="60">UNREGISTERED</text><text fill="#eeeeee" stroke="none" font-family="Arial" font-size="24px" font-style="normal" font-weight="normal" text-decoration="none" x="0" y="90">UNREGISTERED</text><text fill="#eeeeee" stroke="none" font-family="Arial" font-size="24px" font-style="normal" font-weight="normal" text-decoration="none" x="0" y="120">UNREGISTERED</text><text fill="#eeeeee" stroke="none" font-family="Arial" font-size="24px" font-style="normal" font-weight="normal" text-decoration="none" x="0" y="150">UNREGISTERED</text><text fill="#eeeeee" stroke="none" font-family="Arial" font-size="24px" font-style="normal" font-weight="normal" text-decoration="none" x="0" y="180">UNREGISTERED</text><text fill="#eeeeee" stroke="none" font-family="Arial" font-size="24px" font-style="normal" font-weight="normal" text-decoration="none" x="0" y="210">UNREGISTERED</text><text fill="#eeeeee" stroke="none" font-family="Arial" font-size="24px" font-style="normal" font-weight="normal" text-decoration="none" x="0" y="240">UNREGISTERED</text><text fill="#eeeeee" stroke="none" font-family="Arial" font-size="24px" font-style="normal" font-weight="normal" text-decoration="none" x="0" y="270">UNREGISTERED</text><text fill="#eeeeee" stroke="none" font-family="Arial" font-size="24px" font-style="normal" font-weight="normal" text-decoration="none" x="0" y="300">UNREGISTERED</text><text fill="#eeeeee" stroke="none" font-family="Arial" font-size="24px" font-style="normal" font-weight="normal" text-decoration="none" x="0" y="330">UNREGISTERED</text><text fill="#eeeeee" stroke="none" font-family="Arial" font-size="24px" font-style="normal" font-weight="normal" text-decoration="none" x="0" y="360">UNREGISTERED</text><text fill="#eeeeee" stroke="none" font-family="Arial" font-size="24px" font-style="normal" font-weight="normal" text-decoration="none" x="0" y="390">UNREGISTERED</text><text fill="#eeeeee" stroke="none" font-family="Arial" font-size="24px" font-style="normal" font-weight="normal" text-decoration="none" x="0" y="420">UNREGISTERED</text><text fill="#eeeeee" stroke="none" font-family="Arial" font-size="24px" font-style="normal" font-weight="normal" text-decoration="none" x="0" y="450">UNREGISTERED</text><text fill="#eeeeee" stroke="none" font-family="Arial" font-size="24px" font-style="normal" font-weight="normal" text-decoration="none" x="0" y="480">UNREGISTERED</text><text fill="#eeeeee" stroke="none" font-family="Arial" font-size="24px" font-style="normal" font-weight="normal" text-decoration="none" x="0" y="510">UNREGISTERED</text><text fill="#eeeeee" stroke="none" font-family="Arial" font-size="24px" font-style="normal" font-weight="normal" text-decoration="none" x="0" y="540">UNREGISTERED</text><text fill="#eeeeee" stroke="none" font-family="Arial" font-size="24px" font-style="normal" font-weight="normal" text-decoration="none" x="0" y="570">UNREGISTERED</text><text fill="#eeeeee" stroke="none" font-family="Arial" font-size="24px" font-style="normal" font-weight="normal" text-decoration="none" x="0" y="600">UNREGISTERED</text><text fill="#eeeeee" stroke="none" font-family="Arial" font-size="24px" font-style="normal" font-weight="normal" text-decoration="none" x="200" y="0">UNREGISTERED</text><text fill="#eeeeee" stroke="none" font-family="Arial" font-size="24px" font-style="normal" font-weight="normal" text-decoration="none" x="200" y="30">UNREGISTERED</text><text fill="#eeeeee" stroke="none" font-family="Arial" font-size="24px" font-style="normal" font-weight="normal" text-decoration="none" x="200" y="60">UNREGISTERED</text><text fill="#eeeeee" stroke="none" font-family="Arial" font-size="24px" font-style="normal" font-weight="normal" text-decoration="none" x="200" y="90">UNREGISTERED</text><text fill="#eeeeee" stroke="none" font-family="Arial" font-size="24px" font-style="normal" font-weight="normal" text-decoration="none" x="200" y="120">UNREGISTERED</text><text fill="#eeeeee" stroke="none" font-family="Arial" font-size="24px" font-style="normal" font-weight="normal" text-decoration="none" x="200" y="150">UNREGISTERED</text><text fill="#eeeeee" stroke="none" font-family="Arial" font-size="24px" font-style="normal" font-weight="normal" text-decoration="none" x="200" y="180">UNREGISTERED</text><text fill="#eeeeee" stroke="none" font-family="Arial" font-size="24px" font-style="normal" font-weight="normal" text-decoration="none" x="200" y="210">UNREGISTERED</text><text fill="#eeeeee" stroke="none" font-family="Arial" font-size="24px" font-style="normal" font-weight="normal" text-decoration="none" x="200" y="240">UNREGISTERED</text><text fill="#eeeeee" stroke="none" font-family="Arial" font-size="24px" font-style="normal" font-weight="normal" text-decoration="none" x="200" y="270">UNREGISTERED</text><text fill="#eeeeee" stroke="none" font-family="Arial" font-size="24px" font-style="normal" font-weight="normal" text-decoration="none" x="200" y="300">UNREGISTERED</text><text fill="#eeeeee" stroke="none" font-family="Arial" font-size="24px" font-style="normal" font-weight="normal" text-decoration="none" x="200" y="330">UNREGISTERED</text><text fill="#eeeeee" stroke="none" font-family="Arial" font-size="24px" font-style="normal" font-weight="normal" text-decoration="none" x="200" y="360">UNREGISTERED</text><text fill="#eeeeee" stroke="none" font-family="Arial" font-size="24px" font-style="normal" font-weight="normal" text-decoration="none" x="200" y="390">UNREGISTERED</text><text fill="#eeeeee" stroke="none" font-family="Arial" font-size="24px" font-style="normal" font-weight="normal" text-decoration="none" x="200" y="420">UNREGISTERED</text><text fill="#eeeeee" stroke="none" font-family="Arial" font-size="24px" font-style="normal" font-weight="normal" text-decoration="none" x="200" y="450">UNREGISTERED</text><text fill="#eeeeee" stroke="none" font-family="Arial" font-size="24px" font-style="normal" font-weight="normal" text-decoration="none" x="200" y="480">UNREGISTERED</text><text fill="#eeeeee" stroke="none" font-family="Arial" font-size="24px" font-style="normal" font-weight="normal" text-decoration="none" x="200" y="510">UNREGISTERED</text><text fill="#eeeeee" stroke="none" font-family="Arial" font-size="24px" font-style="normal" font-weight="normal" text-decoration="none" x="200" y="540">UNREGISTERED</text><text fill="#eeeeee" stroke="none" font-family="Arial" font-size="24px" font-style="normal" font-weight="normal" text-decoration="none" x="200" y="570">UNREGISTERED</text><text fill="#eeeeee" stroke="none" font-family="Arial" font-size="24px" font-style="normal" font-weight="normal" text-decoration="none" x="200" y="600">UNREGISTERED</text><text fill="#eeeeee" stroke="none" font-family="Arial" font-size="24px" font-style="normal" font-weight="normal" text-decoration="none" x="400" y="0">UNREGISTERED</text><text fill="#eeeeee" stroke="none" font-family="Arial" font-size="24px" font-style="normal" font-weight="normal" text-decoration="none" x="400" y="30">UNREGISTERED</text><text fill="#eeeeee" stroke="none" font-family="Arial" font-size="24px" font-style="normal" font-weight="normal" text-decoration="none" x="400" y="60">UNREGISTERED</text><text fill="#eeeeee" stroke="none" font-family="Arial" font-size="24px" font-style="normal" font-weight="normal" text-decoration="none" x="400" y="90">UNREGISTERED</text><text fill="#eeeeee" stroke="none" font-family="Arial" font-size="24px" font-style="normal" font-weight="normal" text-decoration="none" x="400" y="120">UNREGISTERED</text><text fill="#eeeeee" stroke="none" font-family="Arial" font-size="24px" font-style="normal" font-weight="normal" text-decoration="none" x="400" y="150">UNREGISTERED</text><text fill="#eeeeee" stroke="none" font-family="Arial" font-size="24px" font-style="normal" font-weight="normal" text-decoration="none" x="400" y="180">UNREGISTERED</text><text fill="#eeeeee" stroke="none" font-family="Arial" font-size="24px" font-style="normal" font-weight="normal" text-decoration="none" x="400" y="210">UNREGISTERED</text><text fill="#eeeeee" stroke="none" font-family="Arial" font-size="24px" font-style="normal" font-weight="normal" text-decoration="none" x="400" y="240">UNREGISTERED</text><text fill="#eeeeee" stroke="none" font-family="Arial" font-size="24px" font-style="normal" font-weight="normal" text-decoration="none" x="400" y="270">UNREGISTERED</text><text fill="#eeeeee" stroke="none" font-family="Arial" font-size="24px" font-style="normal" font-weight="normal" text-decoration="none" x="400" y="300">UNREGISTERED</text><text fill="#eeeeee" stroke="none" font-family="Arial" font-size="24px" font-style="normal" font-weight="normal" text-decoration="none" x="400" y="330">UNREGISTERED</text><text fill="#eeeeee" stroke="none" font-family="Arial" font-size="24px" font-style="normal" font-weight="normal" text-decoration="none" x="400" y="360">UNREGISTERED</text><text fill="#eeeeee" stroke="none" font-family="Arial" font-size="24px" font-style="normal" font-weight="normal" text-decoration="none" x="400" y="390">UNREGISTERED</text><text fill="#eeeeee" stroke="none" font-family="Arial" font-size="24px" font-style="normal" font-weight="normal" text-decoration="none" x="400" y="420">UNREGISTERED</text><text fill="#eeeeee" stroke="none" font-family="Arial" font-size="24px" font-style="normal" font-weight="normal" text-decoration="none" x="400" y="450">UNREGISTERED</text><text fill="#eeeeee" stroke="none" font-family="Arial" font-size="24px" font-style="normal" font-weight="normal" text-decoration="none" x="400" y="480">UNREGISTERED</text><text fill="#eeeeee" stroke="none" font-family="Arial" font-size="24px" font-style="normal" font-weight="normal" text-decoration="none" x="400" y="510">UNREGISTERED</text><text fill="#eeeeee" stroke="none" font-family="Arial" font-size="24px" font-style="normal" font-weight="normal" text-decoration="none" x="400" y="540">UNREGISTERED</text><text fill="#eeeeee" stroke="none" font-family="Arial" font-size="24px" font-style="normal" font-weight="normal" text-decoration="none" x="400" y="570">UNREGISTERED</text><text fill="#eeeeee" stroke="none" font-family="Arial" font-size="24px" font-style="normal" font-weight="normal" text-decoration="none" x="400" y="600">UNREGISTERED</text><text fill="#eeeeee" stroke="none" font-family="Arial" font-size="24px" font-style="normal" font-weight="normal" text-decoration="none" x="600" y="0">UNREGISTERED</text><text fill="#eeeeee" stroke="none" font-family="Arial" font-size="24px" font-style="normal" font-weight="normal" text-decoration="none" x="600" y="30">UNREGISTERED</text><text fill="#eeeeee" stroke="none" font-family="Arial" font-size="24px" font-style="normal" font-weight="normal" text-decoration="none" x="600" y="60">UNREGISTERED</text><text fill="#eeeeee" stroke="none" font-family="Arial" font-size="24px" font-style="normal" font-weight="normal" text-decoration="none" x="600" y="90">UNREGISTERED</text><text fill="#eeeeee" stroke="none" font-family="Arial" font-size="24px" font-style="normal" font-weight="normal" text-decoration="none" x="600" y="120">UNREGISTERED</text><text fill="#eeeeee" stroke="none" font-family="Arial" font-size="24px" font-style="normal" font-weight="normal" text-decoration="none" x="600" y="150">UNREGISTERED</text><text fill="#eeeeee" stroke="none" font-family="Arial" font-size="24px" font-style="normal" font-weight="normal" text-decoration="none" x="600" y="180">UNREGISTERED</text><text fill="#eeeeee" stroke="none" font-family="Arial" font-size="24px" font-style="normal" font-weight="normal" text-decoration="none" x="600" y="210">UNREGISTERED</text><text fill="#eeeeee" stroke="none" font-family="Arial" font-size="24px" font-style="normal" font-weight="normal" text-decoration="none" x="600" y="240">UNREGISTERED</text><text fill="#eeeeee" stroke="none" font-family="Arial" font-size="24px" font-style="normal" font-weight="normal" text-decoration="none" x="600" y="270">UNREGISTERED</text><text fill="#eeeeee" stroke="none" font-family="Arial" font-size="24px" font-style="normal" font-weight="normal" text-decoration="none" x="600" y="300">UNREGISTERED</text><text fill="#eeeeee" stroke="none" font-family="Arial" font-size="24px" font-style="normal" font-weight="normal" text-decoration="none" x="600" y="330">UNREGISTERED</text><text fill="#eeeeee" stroke="none" font-family="Arial" font-size="24px" font-style="normal" font-weight="normal" text-decoration="none" x="600" y="360">UNREGISTERED</text><text fill="#eeeeee" stroke="none" font-family="Arial" font-size="24px" font-style="normal" font-weight="normal" text-decoration="none" x="600" y="390">UNREGISTERED</text><text fill="#eeeeee" stroke="none" font-family="Arial" font-size="24px" font-style="normal" font-weight="normal" text-decoration="none" x="600" y="420">UNREGISTERED</text><text fill="#eeeeee" stroke="none" font-family="Arial" font-size="24px" font-style="normal" font-weight="normal" text-decoration="none" x="600" y="450">UNREGISTERED</text><text fill="#eeeeee" stroke="none" font-family="Arial" font-size="24px" font-style="normal" font-weight="normal" text-decoration="none" x="600" y="480">UNREGISTERED</text><text fill="#eeeeee" stroke="none" font-family="Arial" font-size="24px" font-style="normal" font-weight="normal" text-decoration="none" x="600" y="510">UNREGISTERED</text><text fill="#eeeeee" stroke="none" font-family="Arial" font-size="24px" font-style="normal" font-weight="normal" text-decoration="none" x="600" y="540">UNREGISTERED</text><text fill="#eeeeee" stroke="none" font-family="Arial" font-size="24px" font-style="normal" font-weight="normal" text-decoration="none" x="600" y="570">UNREGISTERED</text><text fill="#eeeeee" stroke="none" font-family="Arial" font-size="24px" font-style="normal" font-weight="normal" text-decoration="none" x="600" y="600">UNREGISTERED</text><g transform="translate(-38,10) scale(1,1)"><path fill="none" stroke="#000000" d="M 48 0 L 760 0 L 760 584 L 48 584 L 48 0" stroke-miterlimit="10"/></g><g transform="translate(-38,10) scale(1,1)"><path fill="#ffffff" stroke="none" d="M 48 0 L 48 22 L 100.12451171875 22 L 111.12451171875 11 L 111.12451171875 0 L 48 0"/></g><g transform="translate(-38,10) scale(1,1)"><path fill="none" stroke="#000000" d="M 48 0 L 48 22 L 100.12451171875 22 L 111.12451171875 11 L 111.12451171875 0 L 48 0 L 48 0" stroke-miterlimit="10"/></g><g transform="translate(-38,10) scale(1,1)"><g><path fill="none" stroke="none"/><text fill="#000000" stroke="none" font-family="Arial" font-size="13px" font-style="normal" font-weight="normal" text-decoration="none" x="72.72998046875" y="16">Call</text></g></g><g transform="translate(-38,10) scale(1,1)"><g><path fill="none" stroke="none"/><text fill="#000000" stroke="none" font-family="Arial" font-size="13px" font-style="normal" font-weight="bold" text-decoration="none" x="52.279541015625" y="16">sd</text></g></g><g transform="translate(-38,10) scale(1,1)"><rect fill="#C0C0C0" stroke="none" x="103" y="47" width="111" height="39" opacity="0.2"/></g><g transform="translate(-38,10) scale(1,1)"><rect fill="#ffffff" stroke="none" x="96" y="40" width="111" height="39"/></g><g transform="translate(-38,10) scale(1,1)"><path fill="none" stroke="#000000" d="M 96 40 L 207 40 L 207 79 L 96 79 L 96 40 Z Z" stroke-miterlimit="10"/></g><g transform="translate(-38,10) scale(1,1)"><g><path fill="none" stroke="none"/><text fill="#000000" stroke="none" font-family="Arial" font-size="13px" font-style="normal" font-weight="bold" text-decoration="none" x="139.5791015625" y="58">Call</text></g></g><g transform="translate(-38,10) scale(1,1)"><path fill="none" stroke="#000000" d="M 152.5 80 L 152.5 424" stroke-miterlimit="10" stroke-dasharray="3"/></g><g transform="translate(-38,10) scale(1,1)"><rect fill="#C0C0C0" stroke="none" x="271" y="47" width="95" height="39" opacity="0.2"/></g><g transform="translate(-38,10) scale(1,1)"><rect fill="#ffffff" stroke="none" x="264" y="40" width="95" height="39"/></g><g transform="translate(-38,10) scale(1,1)"><path fill="none" stroke="#000000" d="M 264 40 L 359 40 L 359 79 L 264 79 L 264 40 Z Z" stroke-miterlimit="10"/></g><g transform="translate(-38,10) scale(1,1)"><g><path fill="none" stroke="none"/><text fill="#000000" stroke="none" font-family="Arial" font-size="13px" font-style="normal" font-weight="bold" text-decoration="none" x="280.793212890625" y="58">Exchange</text></g></g><g transform="translate(-38,10) scale(1,1)"><path fill="none" stroke="#000000" d="M 312.5 80 L 312.5 494" stroke-miterlimit="10" stroke-dasharray="3"/></g><g transform="translate(-38,10) scale(1,1)"><rect fill="#C0C0C0" stroke="none" x="431" y="47" width="111" height="39" opacity="0.2"/></g><g transform="translate(-38,10) scale(1,1)"><rect fill="#ffffff" stroke="none" x="424" y="40" width="111" height="39"/></g><g transform="translate(-38,10) scale(1,1)"><path fill="none" stroke="#000000" d="M 424 40 L 535 40 L 535 79 L 424 79 L 424 40 Z Z" stroke-miterlimit="10"/></g><g transform="translate(-38,10) scale(1,1)"><g><path fill="none" stroke="none"/><text fill="#000000" stroke="none" font-family="Arial" font-size="13px" font-style="normal" font-weight="bold" text-decoration="none" x="452.3955078125" y="58">Reciever</text></g></g><g transform="translate(-38,10) scale(1,1)"><path fill="none" stroke="#000000" d="M 480.5 80 L 480.5 546" stroke-miterlimit="10" stroke-dasharray="3"/></g><g transform="translate(-38,10) scale(1,1)"><rect fill="#C0C0C0" stroke="none" x="591" y="331" width="143" height="39" opacity="0.2"/></g><g transform="translate(-38,10) scale(1,1)"><rect fill="#ffffff" stroke="none" x="584" y="324" width="143" height="39"/></g><g transform="translate(-38,10) scale(1,1)"><path fill="none" stroke="#000000" d="M 584 324 L 727 324 L 727 363 L 584 363 L 584 324 Z Z" stroke-miterlimit="10"/></g><g transform="translate(-38,10) scale(1,1)"><g><path fill="none" stroke="none"/><text fill="#000000" stroke="none" font-family="Arial" font-size="13px" font-style="normal" font-weight="bold" text-decoration="none" x="642.97607421875" y="342">Talk</text></g></g><g transform="translate(-38,10) scale(1,1)"><path fill="none" stroke="#000000" d="M 656.5 364 L 656.5 546" stroke-miterlimit="10" stroke-dasharray="3"/></g><g transform="translate(-38,10) scale(1,1)"><path fill="none" stroke="#ffffff" d="M 152 88 L 182 88 L 182 108 L 158 108" stroke-miterlimit="10"/></g><g transform="translate(-38,10) scale(1,1)"><path fill="#ffffff" stroke="none" d="M 168.16267485762415 103.79048224398402 L 158 108 L 168.16267485762415 112.20951775601598"/></g><g transform="translate(-38,10) scale(1,1)"><path fill="none" stroke="#ffffff" d="M 168.16267485762415 103.79048224398402 L 158 108 L 168.16267485762415 112.20951775601598 L 168.16267485762415 103.79048224398402" stroke-miterlimit="10"/></g><g transform="translate(-38,10) scale(1,1)"><rect fill="#ffffff" stroke="none" x="145" y="108" width="13" height="268"/></g><g transform="translate(-38,10) scale(1,1)"><path fill="none" stroke="#000000" d="M 145 108 L 158 108 L 158 376 L 145 376 L 145 108 Z Z" stroke-miterlimit="10"/></g><g transform="translate(-38,10) scale(1,1)"><path fill="none" stroke="#ffffff" d="M 312 88 L 342 88 L 342 108 L 318 108" stroke-miterlimit="10"/></g><g transform="translate(-38,10) scale(1,1)"><path fill="#ffffff" stroke="none" d="M 328.16267485762415 103.79048224398402 L 318 108 L 328.16267485762415 112.20951775601598"/></g><g transform="translate(-38,10) scale(1,1)"><path fill="none" stroke="#ffffff" d="M 328.16267485762415 103.79048224398402 L 318 108 L 328.16267485762415 112.20951775601598 L 328.16267485762415 103.79048224398402" stroke-miterlimit="10"/></g><g transform="translate(-38,10) scale(1,1)"><rect fill="#ffffff" stroke="none" x="305" y="108" width="13" height="268"/></g><g transform="translate(-38,10) scale(1,1)"><path fill="none" stroke="#000000" d="M 305 108 L 318 108 L 318 376 L 305 376 L 305 108 Z Z" stroke-miterlimit="10"/></g><g transform="translate(-38,10) scale(1,1)"><path fill="none" stroke="#000000" d="M 158 161 L 312 161" stroke-miterlimit="10"/></g><g transform="translate(-38,10) scale(1,1)"><path fill="#000000" stroke="none" d="M 301.83732514237585 165.209517756016 L 312 161 L 301.83732514237585 156.790482243984"/></g><g transform="translate(-38,10) scale(1,1)"><path fill="none" stroke="#000000" d="M 301.83732514237585 165.209517756016 L 312 161 L 301.83732514237585 156.790482243984 L 301.83732514237585 165.209517756016" stroke-miterlimit="10"/></g><g transform="translate(-38,10) scale(1,1)"><g><path fill="none" stroke="none"/><text fill="#000000" stroke="none" font-family="Arial" font-size="13px" font-style="normal" font-weight="normal" text-decoration="none" x="213.2060546875" y="155">offHook</text></g></g><g transform="translate(-38,10) scale(1,1)"><rect fill="#ffffff" stroke="none" x="312" y="161" width="13" height="46"/></g><g transform="translate(-38,10) scale(1,1)"><path fill="none" stroke="#000000" d="M 312 161 L 325 161 L 325 207 L 312 207 L 312 161 Z Z" stroke-miterlimit="10"/></g><g transform="translate(-38,10) scale(1,1)"><path fill="none" stroke="#000000" d="M 158 224 L 312 224" stroke-miterlimit="10"/></g><g transform="translate(-38,10) scale(1,1)"><path fill="#000000" stroke="none" d="M 301.83732514237585 228.209517756016 L 312 224 L 301.83732514237585 219.790482243984"/></g><g transform="translate(-38,10) scale(1,1)"><path fill="none" stroke="#000000" d="M 301.83732514237585 228.209517756016 L 312 224 L 301.83732514237585 219.790482243984 L 301.83732514237585 228.209517756016" stroke-miterlimit="10"/></g><g transform="translate(-38,10) scale(1,1)"><g><path fill="none" stroke="none"/><text fill="#000000" stroke="none" font-family="Arial" font-size="13px" font-style="normal" font-weight="normal" text-decoration="none" x="209.391357421875" y="219">Dial Tone</text></g></g><g transform="translate(-38,10) scale(1,1)"><rect fill="#ffffff" stroke="none" x="312" y="224" width="13" height="28"/></g><g transform="translate(-38,10) scale(1,1)"><path fill="none" stroke="#000000" d="M 312 224 L 325 224 L 325 252 L 312 252 L 312 224 Z Z" stroke-miterlimit="10"/></g><g transform="translate(-38,10) scale(1,1)"><path fill="none" stroke="#000000" d="M 305 280 L 158 280" stroke-miterlimit="10" stroke-dasharray="3"/></g><g transform="translate(-38,10) scale(1,1)"><path fill="none" stroke="#000000" d="M 168.16267485762415 275.790482243984 L 158 280 L 168.16267485762415 284.209517756016" stroke-miterlimit="10"/></g><g transform="translate(-38,10) scale(1,1)"><g><path fill="none" stroke="none"/><text fill="#000000" stroke="none" font-family="Arial" font-size="13px" font-style="normal" font-weight="normal" text-decoration="none" x="194.114990234375" y="295">Dial Number</text></g></g><g transform="translate(-38,10) scale(1,1)"><path fill="none" stroke="#ffffff" d="M 480 296 L 510 296 L 510 316 L 486 316" stroke-miterlimit="10"/></g><g transform="translate(-38,10) scale(1,1)"><path fill="#ffffff" stroke="none" d="M 496.16267485762415 311.790482243984 L 486 316 L 496.16267485762415 320.209517756016"/></g><g transform="translate(-38,10) scale(1,1)"><path fill="none" stroke="#ffffff" d="M 496.16267485762415 311.790482243984 L 486 316 L 496.16267485762415 320.209517756016 L 496.16267485762415 311.790482243984" stroke-miterlimit="10"/></g><g transform="translate(-38,10) scale(1,1)"><rect fill="#ffffff" stroke="none" x="473" y="316" width="13" height="156"/></g><g transform="translate(-38,10) scale(1,1)"><path fill="none" stroke="#000000" d="M 473 316 L 486 316 L 486 472 L 473 472 L 473 316 Z Z" stroke-miterlimit="10"/></g><g transform="translate(-38,10) scale(1,1)"><path fill="none" stroke="#000000" d="M 318 336 L 480 336" stroke-miterlimit="10"/></g><g transform="translate(-38,10) scale(1,1)"><path fill="#000000" stroke="none" d="M 469.83732514237585 340.209517756016 L 480 336 L 469.83732514237585 331.790482243984"/></g><g transform="translate(-38,10) scale(1,1)"><path fill="none" stroke="#000000" d="M 469.83732514237585 340.209517756016 L 480 336 L 469.83732514237585 331.790482243984 L 469.83732514237585 340.209517756016" stroke-miterlimit="10"/></g><g transform="translate(-38,10) scale(1,1)"><g><path fill="none" stroke="none"/><text fill="#000000" stroke="none" font-family="Arial" font-size="13px" font-style="normal" font-weight="normal" text-decoration="none" x="370.220458984375" y="331">Ring Tone</text></g></g><g transform="translate(-38,10) scale(1,1)"><rect fill="#ffffff" stroke="none" x="480" y="336" width="13" height="88"/></g><g transform="translate(-38,10) scale(1,1)"><path fill="none" stroke="#000000" d="M 480 336 L 493 336 L 493 424 L 480 424 L 480 336 Z Z" stroke-miterlimit="10"/></g><g transform="translate(-38,10) scale(1,1)"><path fill="none" stroke="#000000" d="M 493 344 L 584 344" stroke-miterlimit="10" stroke-dasharray="3"/></g><g transform="translate(-38,10) scale(1,1)"><path fill="none" stroke="#000000" d="M 573.8373251423759 348.209517756016 L 584 344 L 573.8373251423758 339.790482243984" stroke-miterlimit="10"/></g><g transform="translate(-38,10) scale(1,1)"><g><path fill="none" stroke="none"/><text fill="#000000" stroke="none" font-family="Arial" font-size="13px" font-style="normal" font-weight="normal" text-decoration="none" x="512.5" y="323.5">«create»</text></g></g><g transform="translate(-38,10) scale(1,1)"><path fill="none" stroke="#000000" d="M 493 392 L 649 392" stroke-miterlimit="10"/></g><g transform="translate(-38,10) scale(1,1)"><path fill="#000000" stroke="none" d="M 638.8373251423759 396.209517756016 L 649 392 L 638.8373251423758 387.790482243984"/></g><g transform="translate(-38,10) scale(1,1)"><path fill="none" stroke="#000000" d="M 638.8373251423759 396.209517756016 L 649 392 L 638.8373251423758 387.790482243984 L 638.8373251423759 396.209517756016" stroke-miterlimit="10"/></g><g transform="translate(-38,10) scale(1,1)"><g><path fill="none" stroke="none"/><text fill="#000000" stroke="none" font-family="Arial" font-size="13px" font-style="normal" font-weight="normal" text-decoration="none" x="545.838623046875" y="387">On Hook</text></g></g><g transform="translate(-38,10) scale(1,1)"><rect fill="#ffffff" stroke="none" x="649" y="392" width="13" height="80"/></g><g transform="translate(-38,10) scale(1,1)"><path fill="none" stroke="#000000" d="M 649 392 L 662 392 L 662 472 L 649 472 L 649 392 Z Z" stroke-miterlimit="10"/></g><g transform="translate(-38,10) scale(1,1)"><path fill="none" stroke="#000000" d="M 649 464 L 312 464" stroke-miterlimit="10" stroke-dasharray="3"/></g><g transform="translate(-38,10) scale(1,1)"><path fill="none" stroke="#000000" d="M 322.16267485762415 459.790482243984 L 312 464 L 322.16267485762415 468.209517756016" stroke-miterlimit="10"/></g><g transform="translate(-38,10) scale(1,1)"><g><path fill="none" stroke="none"/><text fill="#000000" stroke="none" font-family="Arial" font-size="13px" font-style="normal" font-weight="normal" text-decoration="none" x="359.5" y="479">Off Hook</text></g></g><g transform="translate(-38,10) scale(1,1)"><path fill="none" stroke="#000000" d="M 480 488 L 649 488" stroke-miterlimit="10"/></g><g transform="translate(-38,10) scale(1,1)"><path fill="#000000" stroke="none" d="M 638.8373251423759 492.209517756016 L 649 488 L 638.8373251423758 483.790482243984"/></g><g transform="translate(-38,10) scale(1,1)"><path fill="none" stroke="#000000" d="M 638.8373251423759 492.209517756016 L 649 488 L 638.8373251423758 483.790482243984 L 638.8373251423759 492.209517756016" stroke-miterlimit="10"/></g><g transform="translate(-38,10) scale(1,1)"><path fill="none" stroke="#000000" d="M 646 536 L 666 556" stroke-miterlimit="10"/></g><g transform="translate(-38,10) scale(1,1)"><path fill="none" stroke="#000000" d="M 666 536 L 646 556" stroke-miterlimit="10"/></g><g transform="translate(-38,10) scale(1,1)"><g><path fill="none" stroke="none"/><text fill="#000000" stroke="none" font-family="Arial" font-size="13px" font-style="normal" font-weight="normal" text-decoration="none" x="535.5" y="483">«destroy»</text></g></g><g transform="translate(-38,10) scale(1,1)"><rect fill="#ffffff" stroke="none" x="649" y="488" width="13" height="28"/></g><g transform="translate(-38,10) scale(1,1)"><path fill="none" stroke="#000000" d="M 649 488 L 662 488 L 662 516 L 649 516 L 649 488 Z Z" stroke-miterlimit="10"/></g></g></svg>