<svg version="1.1" xmlns="http://www.w3.org/2000/svg" xmlns:xlink="http://www.w3.org/1999/xlink" width="988" height="619"><defs/><g><text fill="#eeeeee" stroke="none" font-family="Arial" font-size="24px" font-style="normal" font-weight="normal" text-decoration="none" x="0" y="0">UNREGISTERED</text><text fill="#eeeeee" stroke="none" font-family="Arial" font-size="24px" font-style="normal" font-weight="normal" text-decoration="none" x="0" y="30">UNREGISTERED</text><text fill="#eeeeee" stroke="none" font-family="Arial" font-size="24px" font-style="normal" font-weight="normal" text-decoration="none" x="0" y="60">UNREGISTERED</text><text fill="#eeeeee" stroke="none" font-family="Arial" font-size="24px" font-style="normal" font-weight="normal" text-decoration="none" x="0" y="90">UNREGISTERED</text><text fill="#eeeeee" stroke="none" font-family="Arial" font-size="24px" font-style="normal" font-weight="normal" text-decoration="none" x="0" y="120">UNREGISTERED</text><text fill="#eeeeee" stroke="none" font-family="Arial" font-size="24px" font-style="normal" font-weight="normal" text-decoration="none" x="0" y="150">UNREGISTERED</text><text fill="#eeeeee" stroke="none" font-family="Arial" font-size="24px" font-style="normal" font-weight="normal" text-decoration="none" x="0" y="180">UNREGISTERED</text><text fill="#eeeeee" stroke="none" font-family="Arial" font-size="24px" font-style="normal" font-weight="normal" text-decoration="none" x="0" y="210">UNREGISTERED</text><text fill="#eeeeee" stroke="none" font-family="Arial" font-size="24px" font-style="normal" font-weight="normal" text-decoration="none" x="0" y="240">UNREGISTERED</text><text fill="#eeeeee" stroke="none" font-family="Arial" font-size="24px" font-style="normal" font-weight="normal" text-decoration="none" x="0" y="270">UNREGISTERED</text><text fill="#eeeeee" stroke="none" font-family="Arial" font-size="24px" font-style="normal" font-weight="normal" text-decoration="none" x="0" y="300">UNREGISTERED</text><text fill="#eeeeee" stroke="none" font-family="Arial" font-size="24px" font-style="normal" font-weight="normal" text-decoration="none" x="0" y="330">UNREGISTERED</text><text fill="#eeeeee" stroke="none" font-family="Arial" font-size="24px" font-style="normal" font-weight="normal" text-decoration="none" x="0" y="360">UNREGISTERED</text><text fill="#eeeeee" stroke="none" font-family="Arial" font-size="24px" font-style="normal" font-weight="normal" text-decoration="none" x="0" y="390">UNREGISTERED</text><text fill="#eeeeee" stroke="none" font-family="Arial" font-size="24px" font-style="normal" font-weight="normal" text-decoration="none" x="0" y="420">UNREGISTERED</text><text fill="#eeeeee" stroke="none" font-family="Arial" font-size="24px" font-style="normal" font-weight="normal" text-decoration="none" x="0" y="450">UNREGISTERED</text><text fill="#eeeeee" stroke="none" font-family="Arial" font-size="24px" font-style="normal" font-weight="normal" text-decoration="none" x="0" y="480">UNREGISTERED</text><text fill="#eeeeee" stroke="none" font-family="Arial" font-size="24px" font-style="normal" font-weight="normal" text-decoration="none" x="0" y="510">UNREGISTERED</text><text fill="#eeeeee" stroke="none" font-family="Arial" font-size="24px" font-style="normal" font-weight="normal" text-decoration="none" x="0" y="540">UNREGISTERED</text><text fill="#eeeeee" stroke="none" font-family="Arial" font-size="24px" font-style="normal" font-weight="normal" text-decoration="none" x="0" y="570">UNREGISTERED</text><text fill="#eeeeee" stroke="none" font-family="Arial" font-size="24px" font-style="normal" font-weight="normal" text-decoration="none" x="0" y="600">UNREGISTERED</text><text fill="#eeeeee" stroke="none" font-family="Arial" font-size="24px" font-style="normal" font-weight="normal" text-decoration="none" x="200" y="0">UNREGISTERED</text><text fill="#eeeeee" stroke="none" font-family="Arial" font-size="24px" font-style="normal" font-weight="normal" text-decoration="none" x="200" y="30">UNREGISTERED</text><text fill="#eeeeee" stroke="none" font-family="Arial" font-size="24px" font-style="normal" font-weight="normal" text-decoration="none" x="200" y="60">UNREGISTERED</text><text fill="#eeeeee" stroke="none" font-family="Arial" font-size="24px" font-style="normal" font-weight="normal" text-decoration="none" x="200" y="90">UNREGISTERED</text><text fill="#eeeeee" stroke="none" font-family="Arial" font-size="24px" font-style="normal" font-weight="normal" text-decoration="none" x="200" y="120">UNREGISTERED</text><text fill="#eeeeee" stroke="none" font-family="Arial" font-size="24px" font-style="normal" font-weight="normal" text-decoration="none" x="200" y="150">UNREGISTERED</text><text fill="#eeeeee" stroke="none" font-family="Arial" font-size="24px" font-style="normal" font-weight="normal" text-decoration="none" x="200" y="180">UNREGISTERED</text><text fill="#eeeeee" stroke="none" font-family="Arial" font-size="24px" font-style="normal" font-weight="normal" text-decoration="none" x="200" y="210">UNREGISTERED</text><text fill="#eeeeee" stroke="none" font-family="Arial" font-size="24px" font-style="normal" font-weight="normal" text-decoration="none" x="200" y="240">UNREGISTERED</text><text fill="#eeeeee" stroke="none" font-family="Arial" font-size="24px" font-style="normal" font-weight="normal" text-decoration="none" x="200" y="270">UNREGISTERED</text><text fill="#eeeeee" stroke="none" font-family="Arial" font-size="24px" font-style="normal" font-weight="normal" text-decoration="none" x="200" y="300">UNREGISTERED</text><text fill="#eeeeee" stroke="none" font-family="Arial" font-size="24px" font-style="normal" font-weight="normal" text-decoration="none" x="200" y="330">UNREGISTERED</text><text fill="#eeeeee" stroke="none" font-family="Arial" font-size="24px" font-style="normal" font-weight="normal" text-decoration="none" x="200" y="360">UNREGISTERED</text><text fill="#eeeeee" stroke="none" font-family="Arial" font-size="24px" font-style="normal" font-weight="normal" text-decoration="none" x="200" y="390">UNREGISTERED</text><text fill="#eeeeee" stroke="none" font-family="Arial" font-size="24px" font-style="normal" font-weight="normal" text-decoration="none" x="200" y="420">UNREGISTERED</text><text fill="#eeeeee" stroke="none" font-family="Arial" font-size="24px" font-style="normal" font-weight="normal" text-decoration="none" x="200" y="450">UNREGISTERED</text><text fill="#eeeeee" stroke="none" font-family="Arial" font-size="24px" font-style="normal" font-weight="normal" text-decoration="none" x="200" y="480">UNREGISTERED</text><text fill="#eeeeee" stroke="none" font-family="Arial" font-size="24px" font-style="normal" font-weight="normal" text-decoration="none" x="200" y="510">UNREGISTERED</text><text fill="#eeeeee" stroke="none" font-family="Arial" font-size="24px" font-style="normal" font-weight="normal" text-decoration="none" x="200" y="540">UNREGISTERED</text><text fill="#eeeeee" stroke="none" font-family="Arial" font-size="24px" font-style="normal" font-weight="normal" text-decoration="none" x="200" y="570">UNREGISTERED</text><text fill="#eeeeee" stroke="none" font-family="Arial" font-size="24px" font-style="normal" font-weight="normal" text-decoration="none" x="200" y="600">UNREGISTERED</text><text fill="#eeeeee" stroke="none" font-family="Arial" font-size="24px" font-style="normal" font-weight="normal" text-decoration="none" x="400" y="0">UNREGISTERED</text><text fill="#eeeeee" stroke="none" font-family="Arial" font-size="24px" font-style="normal" font-weight="normal" text-decoration="none" x="400" y="30">UNREGISTERED</text><text fill="#eeeeee" stroke="none" font-family="Arial" font-size="24px" font-style="normal" font-weight="normal" text-decoration="none" x="400" y="60">UNREGISTERED</text><text fill="#eeeeee" stroke="none" font-family="Arial" font-size="24px" font-style="normal" font-weight="normal" text-decoration="none" x="400" y="90">UNREGISTERED</text><text fill="#eeeeee" stroke="none" font-family="Arial" font-size="24px" font-style="normal" font-weight="normal" text-decoration="none" x="400" y="120">UNREGISTERED</text><text fill="#eeeeee" stroke="none" font-family="Arial" font-size="24px" font-style="normal" font-weight="normal" text-decoration="none" x="400" y="150">UNREGISTERED</text><text fill="#eeeeee" stroke="none" font-family="Arial" font-size="24px" font-style="normal" font-weight="normal" text-decoration="none" x="400" y="180">UNREGISTERED</text><text fill="#eeeeee" stroke="none" font-family="Arial" font-size="24px" font-style="normal" font-weight="normal" text-decoration="none" x="400" y="210">UNREGISTERED</text><text fill="#eeeeee" stroke="none" font-family="Arial" font-size="24px" font-style="normal" font-weight="normal" text-decoration="none" x="400" y="240">UNREGISTERED</text><text fill="#eeeeee" stroke="none" font-family="Arial" font-size="24px" font-style="normal" font-weight="normal" text-decoration="none" x="400" y="270">UNREGISTERED</text><text fill="#eeeeee" stroke="none" font-family="Arial" font-size="24px" font-style="normal" font-weight="normal" text-decoration="none" x="400" y="300">UNREGISTERED</text><text fill="#eeeeee" stroke="none" font-family="Arial" font-size="24px" font-style="normal" font-weight="normal" text-decoration="none" x="400" y="330">UNREGISTERED</text><text fill="#eeeeee" stroke="none" font-family="Arial" font-size="24px" font-style="normal" font-weight="normal" text-decoration="none" x="400" y="360">UNREGISTERED</text><text fill="#eeeeee" stroke="none" font-family="Arial" font-size="24px" font-style="normal" font-weight="normal" text-decoration="none" x="400" y="390">UNREGISTERED</text><text fill="#eeeeee" stroke="none" font-family="Arial" font-size="24px" font-style="normal" font-weight="normal" text-decoration="none" x="400" y="420">UNREGISTERED</text><text fill="#eeeeee" stroke="none" font-family="Arial" font-size="24px" font-style="normal" font-weight="normal" text-decoration="none" x="400" y="450">UNREGISTERED</text><text fill="#eeeeee" stroke="none" font-family="Arial" font-size="24px" font-style="normal" font-weight="normal" text-decoration="none" x="400" y="480">UNREGISTERED</text><text fill="#eeeeee" stroke="none" font-family="Arial" font-size="24px" font-style="normal" font-weight="normal" text-decoration="none" x="400" y="510">UNREGISTERED</text><text fill="#eeeeee" stroke="none" font-family="Arial" font-size="24px" font-style="normal" font-weight="normal" text-decoration="none" x="400" y="540">UNREGISTERED</text><text fill="#eeeeee" stroke="none" font-family="Arial" font-size="24px" font-style="normal" font-weight="normal" text-decoration="none" x="400" y="570">UNREGISTERED</text><text fill="#eeeeee" stroke="none" font-family="Arial" font-size="24px" font-style="normal" font-weight="normal" text-decoration="none" x="400" y="600">UNREGISTERED</text><text fill="#eeeeee" stroke="none" font-family="Arial" font-size="24px" font-style="normal" font-weight="normal" text-decoration="none" x="600" y="0">UNREGISTERED</text><text fill="#eeeeee" stroke="none" font-family="Arial" font-size="24px" font-style="normal" font-weight="normal" text-decoration="none" x="600" y="30">UNREGISTERED</text><text fill="#eeeeee" stroke="none" font-family="Arial" font-size="24px" font-style="normal" font-weight="normal" text-decoration="none" x="600" y="60">UNREGISTERED</text><text fill="#eeeeee" stroke="none" font-family="Arial" font-size="24px" font-style="normal" font-weight="normal" text-decoration="none" x="600" y="90">UNREGISTERED</text><text fill="#eeeeee" stroke="none" font-family="Arial" font-size="24px" font-style="normal" font-weight="normal" text-decoration="none" x="600" y="120">UNREGISTERED</text><text fill="#eeeeee" stroke="none" font-family="Arial" font-size="24px" font-style="normal" font-weight="normal" text-decoration="none" x="600" y="150">UNREGISTERED</text><text fill="#eeeeee" stroke="none" font-family="Arial" font-size="24px" font-style="normal" font-weight="normal" text-decoration="none" x="600" y="180">UNREGISTERED</text><text fill="#eeeeee" stroke="none" font-family="Arial" font-size="24px" font-style="normal" font-weight="normal" text-decoration="none" x="600" y="210">UNREGISTERED</text><text fill="#eeeeee" stroke="none" font-family="Arial" font-size="24px" font-style="normal" font-weight="normal" text-decoration="none" x="600" y="240">UNREGISTERED</text><text fill="#eeeeee" stroke="none" font-family="Arial" font-size="24px" font-style="normal" font-weight="normal" text-decoration="none" x="600" y="270">UNREGISTERED</text><text fill="#eeeeee" stroke="none" font-family="Arial" font-size="24px" font-style="normal" font-weight="normal" text-decoration="none" x="600" y="300">UNREGISTERED</text><text fill="#eeeeee" stroke="none" font-family="Arial" font-size="24px" font-style="normal" font-weight="normal" text-decoration="none" x="600" y="330">UNREGISTERED</text><text fill="#eeeeee" stroke="none" font-family="Arial" font-size="24px" font-style="normal" font-weight="normal" text-decoration="none" x="600" y="360">UNREGISTERED</text><text fill="#eeeeee" stroke="none" font-family="Arial" font-size="24px" font-style="normal" font-weight="normal" text-decoration="none" x="600" y="390">UNREGISTERED</text><text fill="#eeeeee" stroke="none" font-family="Arial" font-size="24px" font-style="normal" font-weight="normal" text-decoration="none" x="600" y="420">UNREGISTERED</text><text fill="#eeeeee" stroke="none" font-family="Arial" font-size="24px" font-style="normal" font-weight="normal" text-decoration="none" x="600" y="450">UNREGISTERED</text><text fill="#eeeeee" stroke="none" font-family="Arial" font-size="24px" font-style="normal" font-weight="normal" text-decoration="none" x="600" y="480">UNREGISTERED</text><text fill="#eeeeee" stroke="none" font-family="Arial" font-size="24px" font-style="normal" font-weight="normal" text-decoration="none" x="600" y="510">UNREGISTERED</text><text fill="#eeeeee" stroke="none" font-family="Arial" font-size="24px" font-style="normal" font-weight="normal" text-decoration="none" x="600" y="540">UNREGISTERED</text><text fill="#eeeeee" stroke="none" font-family="Arial" font-size="24px" font-style="normal" font-weight="normal" text-decoration="none" x="600" y="570">UNREGISTERED</text><text fill="#eeeeee" stroke="none" font-family="Arial" font-size="24px" font-style="normal" font-weight="normal" text-decoration="none" x="600" y="600">UNREGISTERED</text><text fill="#eeeeee" stroke="none" font-family="Arial" font-size="24px" font-style="normal" font-weight="normal" text-decoration="none" x="800" y="0">UNREGISTERED</text><text fill="#eeeeee" stroke="none" font-family="Arial" font-size="24px" font-style="normal" font-weight="normal" text-decoration="none" x="800" y="30">UNREGISTERED</text><text fill="#eeeeee" stroke="none" font-family="Arial" font-size="24px" font-style="normal" font-weight="normal" text-decoration="none" x="800" y="60">UNREGISTERED</text><text fill="#eeeeee" stroke="none" font-family="Arial" font-size="24px" font-style="normal" font-weight="normal" text-decoration="none" x="800" y="90">UNREGISTERED</text><text fill="#eeeeee" stroke="none" font-family="Arial" font-size="24px" font-style="normal" font-weight="normal" text-decoration="none" x="800" y="120">UNREGISTERED</text><text fill="#eeeeee" stroke="none" font-family="Arial" font-size="24px" font-style="normal" font-weight="normal" text-decoration="none" x="800" y="150">UNREGISTERED</text><text fill="#eeeeee" stroke="none" font-family="Arial" font-size="24px" font-style="normal" font-weight="normal" text-decoration="none" x="800" y="180">UNREGISTERED</text><text fill="#eeeeee" stroke="none" font-family="Arial" font-size="24px" font-style="normal" font-weight="normal" text-decoration="none" x="800" y="210">UNREGISTERED</text><text fill="#eeeeee" stroke="none" font-family="Arial" font-size="24px" font-style="normal" font-weight="normal" text-decoration="none" x="800" y="240">UNREGISTERED</text><text fill="#eeeeee" stroke="none" font-family="Arial" font-size="24px" font-style="normal" font-weight="normal" text-decoration="none" x="800" y="270">UNREGISTERED</text><text fill="#eeeeee" stroke="none" font-family="Arial" font-size="24px" font-style="normal" font-weight="normal" text-decoration="none" x="800" y="300">UNREGISTERED</text><text fill="#eeeeee" stroke="none" font-family="Arial" font-size="24px" font-style="normal" font-weight="normal" text-decoration="none" x="800" y="330">UNREGISTERED</text><text fill="#eeeeee" stroke="none" font-family="Arial" font-size="24px" font-style="normal" font-weight="normal" text-decoration="none" x="800" y="360">UNREGISTERED</text><text fill="#eeeeee" stroke="none" font-family="Arial" font-size="24px" font-style="normal" font-weight="normal" text-decoration="none" x="800" y="390">UNREGISTERED</text><text fill="#eeeeee" stroke="none" font-family="Arial" font-size="24px" font-style="normal" font-weight="normal" text-decoration="none" x="800" y="420">UNREGISTERED</text><text fill="#eeeeee" stroke="none" font-family="Arial" font-size="24px" font-style="normal" font-weight="normal" text-decoration="none" x="800" y="450">UNREGISTERED</text><text fill="#eeeeee" stroke="none" font-family="Arial" font-size="24px" font-style="normal" font-weight="normal" text-decoration="none" x="800" y="480">UNREGISTERED</text><text fill="#eeeeee" stroke="none" font-family="Arial" font-size="24px" font-style="normal" font-weight="normal" text-decoration="none" x="800" y="510">UNREGISTERED</text><text fill="#eeeeee" stroke="none" font-family="Arial" font-size="24px" font-style="normal" font-weight="normal" text-decoration="none" x="800" y="540">UNREGISTERED</text><text fill="#eeeeee" stroke="none" font-family="Arial" font-size="24px" font-style="normal" font-weight="normal" text-decoration="none" x="800" y="570">UNREGISTERED</text><text fill="#eeeeee" stroke="none" font-family="Arial" font-size="24px" font-style="normal" font-weight="normal" text-decoration="none" x="800" y="600">UNREGISTERED</text><g transform="translate(-118,-70) scale(1,1)"><rect fill="#C0C0C0" stroke="none" x="399" y="207" width="200" height="184" opacity="0.2"/></g><g transform="translate(-118,-70) scale(1,1)"><rect fill="#ffffff" stroke="none" x="392" y="200" width="200" height="184"/></g><g transform="translate(-118,-70) scale(1,1)"><path fill="none" stroke="#000000" d="M 392 200 L 592 200 L 592 384 L 392 384 L 392 200 Z Z" stroke-miterlimit="10"/></g><g transform="translate(-118,-70) scale(1,1)"><path fill="none" stroke="#000000" d="M 392 225 L 592 225" stroke-miterlimit="10"/></g><g transform="translate(-118,-70) scale(1,1)"><path fill="none" stroke="#000000" d="M 392 263 L 592 263" stroke-miterlimit="10"/></g><g transform="translate(-118,-70) scale(1,1)"><g><path fill="none" stroke="none"/><text fill="#000000" stroke="none" font-family="Arial" font-size="13px" font-style="normal" font-weight="bold" text-decoration="none" x="467.444091796875" y="218">Product</text></g></g><g transform="translate(-118,-70) scale(1,1)"><g><path fill="none" stroke="none"/><text fill="#000000" stroke="none" font-family="Arial" font-size="13px" font-style="normal" font-weight="normal" text-decoration="none" x="397" y="241">+name: string</text></g></g><g transform="translate(-118,-70) scale(1,1)"><g><path fill="none" stroke="none"/><text fill="#000000" stroke="none" font-family="Arial" font-size="13px" font-style="normal" font-weight="normal" text-decoration="none" x="397" y="256">+cost: float</text></g></g><g transform="translate(-118,-70) scale(1,1)"><g><path fill="none" stroke="none"/><text fill="#000000" stroke="none" font-family="Arial" font-size="13px" font-style="normal" font-weight="normal" text-decoration="none" x="397" y="279">+calculateCost()</text></g></g><g transform="translate(-118,-70) scale(1,1)"><rect fill="#C0C0C0" stroke="none" x="655" y="199" width="159" height="191" opacity="0.2"/></g><g transform="translate(-118,-70) scale(1,1)"><rect fill="#ffffff" stroke="none" x="648" y="192" width="159" height="191"/></g><g transform="translate(-118,-70) scale(1,1)"><path fill="none" stroke="#000000" d="M 648 192 L 807 192 L 807 383 L 648 383 L 648 192 Z Z" stroke-miterlimit="10"/></g><g transform="translate(-118,-70) scale(1,1)"><path fill="none" stroke="#000000" d="M 648 217 L 807 217" stroke-miterlimit="10"/></g><g transform="translate(-118,-70) scale(1,1)"><path fill="none" stroke="#000000" d="M 648 257 L 807 257" stroke-miterlimit="10"/></g><g transform="translate(-118,-70) scale(1,1)"><g><path fill="none" stroke="none"/><text fill="#000000" stroke="none" font-family="Arial" font-size="13px" font-style="normal" font-weight="bold" text-decoration="none" x="707.2763671875" y="210">Coffee</text></g></g><g transform="translate(-118,-70) scale(1,1)"><g><path fill="none" stroke="none"/><text fill="#000000" stroke="none" font-family="Arial" font-size="13px" font-style="normal" font-weight="normal" text-decoration="none" x="653" y="235">+size: char</text></g></g><g transform="translate(-118,-70) scale(1,1)"><g><path fill="none" stroke="none"/><text fill="#000000" stroke="none" font-family="Arial" font-size="13px" font-style="normal" font-weight="normal" text-decoration="none" x="653" y="250">#addOns: int</text></g></g><g transform="translate(-118,-70) scale(1,1)"><g><path fill="none" stroke="none"/><text fill="#000000" stroke="none" font-family="Arial" font-size="13px" font-style="normal" font-weight="normal" text-decoration="none" x="653" y="273">+brew()</text></g></g><g transform="translate(-118,-70) scale(1,1)"><g><path fill="none" stroke="none"/><text fill="#000000" stroke="none" font-family="Arial" font-size="13px" font-style="normal" font-weight="normal" text-decoration="none" x="653" y="288">+getAddOns()</text></g></g><g transform="translate(-118,-70) scale(1,1)"><g><path fill="none" stroke="none"/><text fill="#000000" stroke="none" font-family="Arial" font-size="13px" font-style="normal" font-weight="normal" text-decoration="none" x="653" y="303">+putAddOns()</text></g></g><g transform="translate(-118,-70) scale(1,1)"><path fill="none" stroke="#000000" d="M 647 289 L 593 290" stroke-miterlimit="10"/></g><g transform="translate(-118,-70) scale(1,1)"><path fill="#FFFFFF" stroke="none" d="M 613.165984130403 281.20607686795387 L 593 290 L 613.4777468078113 298.0412614480052"/></g><g transform="translate(-118,-70) scale(1,1)"><path fill="none" stroke="#000000" d="M 613.165984130403 281.20607686795387 L 593 290 L 613.4777468078113 298.0412614480052 L 613.165984130403 281.20607686795387" stroke-miterlimit="10"/></g><g transform="translate(-118,-70) scale(1,1)"><rect fill="#C0C0C0" stroke="none" x="487" y="575" width="160.048828125" height="88" opacity="0.2"/></g><g transform="translate(-118,-70) scale(1,1)"><rect fill="#ffffff" stroke="none" x="480" y="568" width="160.048828125" height="88"/></g><g transform="translate(-118,-70) scale(1,1)"><path fill="none" stroke="#000000" d="M 480 568 L 640.048828125 568 L 640.048828125 656 L 480 656 L 480 568 Z Z" stroke-miterlimit="10"/></g><g transform="translate(-118,-70) scale(1,1)"><path fill="none" stroke="#000000" d="M 480 593 L 640.048828125 593" stroke-miterlimit="10"/></g><g transform="translate(-118,-70) scale(1,1)"><path fill="none" stroke="#000000" d="M 480 616 L 640.048828125 616" stroke-miterlimit="10"/></g><g transform="translate(-118,-70) scale(1,1)"><g><path fill="none" stroke="none"/><text fill="#000000" stroke="none" font-family="Arial" font-size="13px" font-style="normal" font-weight="bold" text-decoration="none" x="496.57958984375" y="586">Cold Weather Cocoa</text></g></g><g transform="translate(-118,-70) scale(1,1)"><g><path fill="none" stroke="none"/><text fill="#000000" stroke="none" font-family="Arial" font-size="13px" font-style="normal" font-weight="normal" text-decoration="none" x="485" y="609">+additionalCost: float = 25</text></g></g><g transform="translate(-118,-70) scale(1,1)"><rect fill="#C0C0C0" stroke="none" x="671" y="575" width="152.81884765625" height="88" opacity="0.2"/></g><g transform="translate(-118,-70) scale(1,1)"><rect fill="#ffffff" stroke="none" x="664" y="568" width="152.81884765625" height="88"/></g><g transform="translate(-118,-70) scale(1,1)"><path fill="none" stroke="#000000" d="M 664 568 L 816.81884765625 568 L 816.81884765625 656 L 664 656 L 664 568 Z Z" stroke-miterlimit="10"/></g><g transform="translate(-118,-70) scale(1,1)"><path fill="none" stroke="#000000" d="M 664 593 L 816.81884765625 593" stroke-miterlimit="10"/></g><g transform="translate(-118,-70) scale(1,1)"><path fill="none" stroke="#000000" d="M 664 616 L 816.81884765625 616" stroke-miterlimit="10"/></g><g transform="translate(-118,-70) scale(1,1)"><g><path fill="none" stroke="none"/><text fill="#000000" stroke="none" font-family="Arial" font-size="13px" font-style="normal" font-weight="bold" text-decoration="none" x="673.232177734375" y="586">No Budget Sweetener</text></g></g><g transform="translate(-118,-70) scale(1,1)"><g><path fill="none" stroke="none"/><text fill="#000000" stroke="none" font-family="Arial" font-size="13px" font-style="normal" font-weight="normal" text-decoration="none" x="669" y="609">+additionalCost: float = 0</text></g></g><g transform="translate(-118,-70) scale(1,1)"><rect fill="#C0C0C0" stroke="none" x="839" y="575" width="172.9599609375" height="87" opacity="0.2"/></g><g transform="translate(-118,-70) scale(1,1)"><rect fill="#ffffff" stroke="none" x="832" y="568" width="172.9599609375" height="87"/></g><g transform="translate(-118,-70) scale(1,1)"><path fill="none" stroke="#000000" d="M 832 568 L 1004.9599609375 568 L 1004.9599609375 655 L 832 655 L 832 568 Z Z" stroke-miterlimit="10"/></g><g transform="translate(-118,-70) scale(1,1)"><path fill="none" stroke="#000000" d="M 832 593 L 1004.9599609375 593" stroke-miterlimit="10"/></g><g transform="translate(-118,-70) scale(1,1)"><path fill="none" stroke="#000000" d="M 832 616 L 1004.9599609375 616" stroke-miterlimit="10"/></g><g transform="translate(-118,-70) scale(1,1)"><g><path fill="none" stroke="none"/><text fill="#000000" stroke="none" font-family="Arial" font-size="13px" font-style="normal" font-weight="bold" text-decoration="none" x="836.5" y="586">Super Bowl Ring of Cream</text></g></g><g transform="translate(-118,-70) scale(1,1)"><g><path fill="none" stroke="none"/><text fill="#000000" stroke="none" font-family="Arial" font-size="13px" font-style="normal" font-weight="normal" text-decoration="none" x="837" y="609">+additionalCost: float = 25</text></g></g><g transform="translate(-118,-70) scale(1,1)"><path fill="none" stroke="#000000" d="M 583 567 L 677 384" stroke-miterlimit="10"/></g><g transform="translate(-118,-70) scale(1,1)"><path fill="#000000" stroke="none" d="M 676.1010094678816 394.96320281775184 L 677 384 L 668.6121626425607 391.1164727544723 L 666.9480099268849 403.5692998231923"/></g><g transform="translate(-118,-70) scale(1,1)"><path fill="none" stroke="#000000" d="M 676.1010094678816 394.96320281775184 L 677 384 L 668.6121626425607 391.1164727544723 L 666.9480099268849 403.5692998231923 L 676.1010094678816 394.96320281775184" stroke-miterlimit="10"/></g><g transform="translate(-118,-70) scale(1,1)"><g><path fill="none" stroke="none"/><text fill="#000000" stroke="none" font-family="Arial" font-size="13px" font-style="normal" font-weight="normal" text-decoration="none" x="593.5" y="558">0..1</text></g></g><g transform="translate(-118,-70) scale(1,1)"><g><path fill="none" stroke="none"/><text fill="#000000" stroke="none" font-family="Arial" font-size="13px" font-style="normal" font-weight="normal" text-decoration="none" x="668.5" y="413">1..*</text></g></g><g transform="translate(-118,-70) scale(1,1)"><path fill="none" stroke="#000000" d="M 738 567 L 731 384" stroke-miterlimit="10"/></g><g transform="translate(-118,-70) scale(1,1)"><path fill="#000000" stroke="none" d="M 735.5948936330943 393.99434602665673 L 731 384 L 727.182010597818 394.3161502957657 L 731.8409150799137 405.9839228034574"/></g><g transform="translate(-118,-70) scale(1,1)"><path fill="none" stroke="#000000" d="M 735.5948936330943 393.99434602665673 L 731 384 L 727.182010597818 394.3161502957657 L 731.8409150799137 405.9839228034574 L 735.5948936330943 393.99434602665673" stroke-miterlimit="10"/></g><g transform="translate(-118,-70) scale(1,1)"><g><path fill="none" stroke="none"/><text fill="#000000" stroke="none" font-family="Arial" font-size="13px" font-style="normal" font-weight="normal" text-decoration="none" x="738.5" y="549">0..1</text></g></g><g transform="translate(-118,-70) scale(1,1)"><g><path fill="none" stroke="none"/><text fill="#000000" stroke="none" font-family="Arial" font-size="13px" font-style="normal" font-weight="normal" text-decoration="none" x="734.5" y="410">1..*</text></g></g><g transform="translate(-118,-70) scale(1,1)"><path fill="none" stroke="#000000" d="M 892 567 L 784 384" stroke-miterlimit="10"/></g><g transform="translate(-118,-70) scale(1,1)"><path fill="#000000" stroke="none" d="M 792.7904840307406 390.6126689396412 L 784 384 L 785.5399478190867 394.8916739170106 L 795.1815788599052 402.9465641792838"/></g><g transform="translate(-118,-70) scale(1,1)"><path fill="none" stroke="#000000" d="M 792.7904840307406 390.6126689396412 L 784 384 L 785.5399478190867 394.8916739170106 L 795.1815788599052 402.9465641792838 L 792.7904840307406 390.6126689396412" stroke-miterlimit="10"/></g><g transform="translate(-118,-70) scale(1,1)"><g><path fill="none" stroke="none"/><text fill="#000000" stroke="none" font-family="Arial" font-size="13px" font-style="normal" font-weight="normal" text-decoration="none" x="880.5" y="547">0..1</text></g></g><g transform="translate(-118,-70) scale(1,1)"><g><path fill="none" stroke="none"/><text fill="#000000" stroke="none" font-family="Arial" font-size="13px" font-style="normal" font-weight="normal" text-decoration="none" x="795.5" y="401">1..*</text></g></g><g transform="translate(-118,-70) scale(1,1)"><rect fill="#C0C0C0" stroke="none" x="935" y="407" width="167" height="57" opacity="0.2"/></g><g transform="translate(-118,-70) scale(1,1)"><rect fill="#ffffff" stroke="none" x="928" y="400" width="167" height="57"/></g><g transform="translate(-118,-70) scale(1,1)"><path fill="none" stroke="#000000" d="M 928 400 L 1095 400 L 1095 457 L 928 457 L 928 400 Z Z" stroke-miterlimit="10"/></g><g transform="translate(-118,-70) scale(1,1)"><path fill="none" stroke="#000000" d="M 928 425 L 1095 425" stroke-miterlimit="10"/></g><g transform="translate(-118,-70) scale(1,1)"><path fill="none" stroke="#000000" d="M 928 435 L 1095 435" stroke-miterlimit="10"/></g><g transform="translate(-118,-70) scale(1,1)"><g><path fill="none" stroke="none"/><text fill="#000000" stroke="none" font-family="Arial" font-size="13px" font-style="normal" font-weight="bold" text-decoration="none" x="987.299560546875" y="418">Regular</text></g></g><g transform="translate(-118,-70) scale(1,1)"><g><path fill="none" stroke="none"/><text fill="#000000" stroke="none" font-family="Arial" font-size="13px" font-style="normal" font-weight="normal" text-decoration="none" x="933" y="451">+brew()</text></g></g><g transform="translate(-118,-70) scale(1,1)"><rect fill="#C0C0C0" stroke="none" x="935" y="167" width="168" height="57" opacity="0.2"/></g><g transform="translate(-118,-70) scale(1,1)"><rect fill="#ffffff" stroke="none" x="928" y="160" width="168" height="57"/></g><g transform="translate(-118,-70) scale(1,1)"><path fill="none" stroke="#000000" d="M 928 160 L 1096 160 L 1096 217 L 928 217 L 928 160 Z Z" stroke-miterlimit="10"/></g><g transform="translate(-118,-70) scale(1,1)"><path fill="none" stroke="#000000" d="M 928 185 L 1096 185" stroke-miterlimit="10"/></g><g transform="translate(-118,-70) scale(1,1)"><path fill="none" stroke="#000000" d="M 928 195 L 1096 195" stroke-miterlimit="10"/></g><g transform="translate(-118,-70) scale(1,1)"><g><path fill="none" stroke="none"/><text fill="#000000" stroke="none" font-family="Arial" font-size="13px" font-style="normal" font-weight="bold" text-decoration="none" x="994.29638671875" y="178">Decaf</text></g></g><g transform="translate(-118,-70) scale(1,1)"><g><path fill="none" stroke="none"/><text fill="#000000" stroke="none" font-family="Arial" font-size="13px" font-style="normal" font-weight="normal" text-decoration="none" x="933" y="211">+brew()</text></g></g><g transform="translate(-118,-70) scale(1,1)"><rect fill="#C0C0C0" stroke="none" x="935" y="247" width="168" height="57" opacity="0.2"/></g><g transform="translate(-118,-70) scale(1,1)"><rect fill="#ffffff" stroke="none" x="928" y="240" width="168" height="57"/></g><g transform="translate(-118,-70) scale(1,1)"><path fill="none" stroke="#000000" d="M 928 240 L 1096 240 L 1096 297 L 928 297 L 928 240 Z Z" stroke-miterlimit="10"/></g><g transform="translate(-118,-70) scale(1,1)"><path fill="none" stroke="#000000" d="M 928 265 L 1096 265" stroke-miterlimit="10"/></g><g transform="translate(-118,-70) scale(1,1)"><path fill="none" stroke="#000000" d="M 928 275 L 1096 275" stroke-miterlimit="10"/></g><g transform="translate(-118,-70) scale(1,1)"><g><path fill="none" stroke="none"/><text fill="#000000" stroke="none" font-family="Arial" font-size="13px" font-style="normal" font-weight="bold" text-decoration="none" x="982.734130859375" y="258">Expresso</text></g></g><g transform="translate(-118,-70) scale(1,1)"><g><path fill="none" stroke="none"/><text fill="#000000" stroke="none" font-family="Arial" font-size="13px" font-style="normal" font-weight="normal" text-decoration="none" x="933" y="291">+brew()</text></g></g><g transform="translate(-118,-70) scale(1,1)"><rect fill="#C0C0C0" stroke="none" x="935" y="319" width="168" height="57" opacity="0.2"/></g><g transform="translate(-118,-70) scale(1,1)"><rect fill="#ffffff" stroke="none" x="928" y="312" width="168" height="57"/></g><g transform="translate(-118,-70) scale(1,1)"><path fill="none" stroke="#000000" d="M 928 312 L 1096 312 L 1096 369 L 928 369 L 928 312 Z Z" stroke-miterlimit="10"/></g><g transform="translate(-118,-70) scale(1,1)"><path fill="none" stroke="#000000" d="M 928 337 L 1096 337" stroke-miterlimit="10"/></g><g transform="translate(-118,-70) scale(1,1)"><path fill="none" stroke="#000000" d="M 928 347 L 1096 347" stroke-miterlimit="10"/></g><g transform="translate(-118,-70) scale(1,1)"><g><path fill="none" stroke="none"/><text fill="#000000" stroke="none" font-family="Arial" font-size="13px" font-style="normal" font-weight="bold" text-decoration="none" x="978.417724609375" y="330">Cappucino</text></g></g><g transform="translate(-118,-70) scale(1,1)"><g><path fill="none" stroke="none"/><text fill="#000000" stroke="none" font-family="Arial" font-size="13px" font-style="normal" font-weight="normal" text-decoration="none" x="933" y="363">+brew()</text></g></g><g transform="translate(-118,-70) scale(1,1)"><rect fill="#C0C0C0" stroke="none" x="935" y="87" width="168" height="57" opacity="0.2"/></g><g transform="translate(-118,-70) scale(1,1)"><rect fill="#ffffff" stroke="none" x="928" y="80" width="168" height="57"/></g><g transform="translate(-118,-70) scale(1,1)"><path fill="none" stroke="#000000" d="M 928 80 L 1096 80 L 1096 137 L 928 137 L 928 80 Z Z" stroke-miterlimit="10"/></g><g transform="translate(-118,-70) scale(1,1)"><path fill="none" stroke="#000000" d="M 928 105 L 1096 105" stroke-miterlimit="10"/></g><g transform="translate(-118,-70) scale(1,1)"><path fill="none" stroke="#000000" d="M 928 115 L 1096 115" stroke-miterlimit="10"/></g><g transform="translate(-118,-70) scale(1,1)"><g><path fill="none" stroke="none"/><text fill="#000000" stroke="none" font-family="Arial" font-size="13px" font-style="normal" font-weight="bold" text-decoration="none" x="996.470458984375" y="98">Latte</text></g></g><g transform="translate(-118,-70) scale(1,1)"><g><path fill="none" stroke="none"/><text fill="#000000" stroke="none" font-family="Arial" font-size="13px" font-style="normal" font-weight="normal" text-decoration="none" x="933" y="131">+brew()</text></g></g><g transform="translate(-118,-70) scale(1,1)"><path fill="none" stroke="#000000" d="M 928 428 L 872 428 L 872 280 L 807 280" stroke-miterlimit="10"/></g><g transform="translate(-118,-70) scale(1,1)"><path fill="#FFFFFF" stroke="none" d="M 827.3253497152483 271.580964487968 L 807 280 L 827.3253497152483 288.419035512032"/></g><g transform="translate(-118,-70) scale(1,1)"><path fill="none" stroke="#000000" d="M 827.3253497152483 271.580964487968 L 807 280 L 827.3253497152483 288.419035512032 L 827.3253497152483 271.580964487968" stroke-miterlimit="10"/></g><g transform="translate(-118,-70) scale(1,1)"><path fill="none" stroke="#000000" d="M 928 344 L 872 344 L 872 280 L 807 280" stroke-miterlimit="10"/></g><g transform="translate(-118,-70) scale(1,1)"><path fill="#FFFFFF" stroke="none" d="M 827.3253497152483 271.580964487968 L 807 280 L 827.3253497152483 288.419035512032"/></g><g transform="translate(-118,-70) scale(1,1)"><path fill="none" stroke="#000000" d="M 827.3253497152483 271.580964487968 L 807 280 L 827.3253497152483 288.419035512032 L 827.3253497152483 271.580964487968" stroke-miterlimit="10"/></g><g transform="translate(-118,-70) scale(1,1)"><path fill="none" stroke="#000000" d="M 928 280 L 807 280" stroke-miterlimit="10"/></g><g transform="translate(-118,-70) scale(1,1)"><path fill="#FFFFFF" stroke="none" d="M 827.3253497152483 271.580964487968 L 807 280 L 827.3253497152483 288.419035512032"/></g><g transform="translate(-118,-70) scale(1,1)"><path fill="none" stroke="#000000" d="M 827.3253497152483 271.580964487968 L 807 280 L 827.3253497152483 288.419035512032 L 827.3253497152483 271.580964487968" stroke-miterlimit="10"/></g><g transform="translate(-118,-70) scale(1,1)"><path fill="none" stroke="#000000" d="M 928 192 L 872 192 L 872 280 L 807 280" stroke-miterlimit="10"/></g><g transform="translate(-118,-70) scale(1,1)"><path fill="#FFFFFF" stroke="none" d="M 827.3253497152483 271.580964487968 L 807 280 L 827.3253497152483 288.419035512032"/></g><g transform="translate(-118,-70) scale(1,1)"><path fill="none" stroke="#000000" d="M 827.3253497152483 271.580964487968 L 807 280 L 827.3253497152483 288.419035512032 L 827.3253497152483 271.580964487968" stroke-miterlimit="10"/></g><g transform="translate(-118,-70) scale(1,1)"><path fill="none" stroke="#000000" d="M 928 112 L 872 112 L 872 280 L 807 280" stroke-miterlimit="10"/></g><g transform="translate(-118,-70) scale(1,1)"><path fill="#FFFFFF" stroke="none" d="M 827.3253497152483 271.580964487968 L 807 280 L 827.3253497152483 288.419035512032"/></g><g transform="translate(-118,-70) scale(1,1)"><path fill="none" stroke="#000000" d="M 827.3253497152483 271.580964487968 L 807 280 L 827.3253497152483 288.419035512032 L 827.3253497152483 271.580964487968" stroke-miterlimit="10"/></g><g transform="translate(-118,-70) scale(1,1)"><rect fill="#C0C0C0" stroke="none" x="135" y="207" width="175" height="183" opacity="0.2"/></g><g transform="translate(-118,-70) scale(1,1)"><rect fill="#ffffff" stroke="none" x="128" y="200" width="175" height="183"/></g><g transform="translate(-118,-70) scale(1,1)"><path fill="none" stroke="#000000" d="M 128 200 L 303 200 L 303 383 L 128 383 L 128 200 Z Z" stroke-miterlimit="10"/></g><g transform="translate(-118,-70) scale(1,1)"><path fill="none" stroke="#000000" d="M 128 225 L 303 225" stroke-miterlimit="10"/></g><g transform="translate(-118,-70) scale(1,1)"><path fill="none" stroke="#000000" d="M 128 248 L 303 248" stroke-miterlimit="10"/></g><g transform="translate(-118,-70) scale(1,1)"><g><path fill="none" stroke="none"/><text fill="#000000" stroke="none" font-family="Arial" font-size="13px" font-style="normal" font-weight="bold" text-decoration="none" x="179.029541015625" y="218">CoffeeShop</text></g></g><g transform="translate(-118,-70) scale(1,1)"><g><path fill="none" stroke="none"/><text fill="#000000" stroke="none" font-family="Arial" font-size="13px" font-style="normal" font-weight="normal" text-decoration="none" x="133" y="240">+name</text></g></g><g transform="translate(-118,-70) scale(1,1)"><g><path fill="none" stroke="none"/><text fill="#000000" stroke="none" font-family="Arial" font-size="13px" font-style="normal" font-weight="normal" text-decoration="none" x="133" y="264">+open()</text></g></g><g transform="translate(-118,-70) scale(1,1)"><g><path fill="none" stroke="none"/><text fill="#000000" stroke="none" font-family="Arial" font-size="13px" font-style="normal" font-weight="normal" text-decoration="none" x="133" y="279">+close()</text></g></g><g transform="translate(-118,-70) scale(1,1)"><path fill="none" stroke="#000000" d="M 392 289 L 303 289" stroke-miterlimit="10"/></g><g transform="translate(-118,-70) scale(1,1)"><path fill="#000000" stroke="none" d="M 313.16267485762415 284.790482243984 L 303 289 L 313.16267485762415 293.209517756016 L 325 289"/></g><g transform="translate(-118,-70) scale(1,1)"><path fill="none" stroke="#000000" d="M 313.16267485762415 284.790482243984 L 303 289 L 313.16267485762415 293.209517756016 L 325 289 L 313.16267485762415 284.790482243984" stroke-miterlimit="10"/></g><g transform="translate(-118,-70) scale(1,1)"><g><path fill="none" stroke="none"/><text fill="#000000" stroke="none" font-family="Arial" font-size="13px" font-style="normal" font-weight="normal" text-decoration="none" x="360.5" y="281">1..*</text></g></g><g transform="translate(-118,-70) scale(1,1)"><g><path fill="none" stroke="none"/><text fill="#000000" stroke="none" font-family="Arial" font-size="13px" font-style="normal" font-weight="normal" text-decoration="none" x="320.5" y="281">1</text></g></g><g transform="translate(-118,-70) scale(1,1)"><rect fill="#C0C0C0" stroke="none" x="135" y="503" width="183" height="183" opacity="0.2"/></g><g transform="translate(-118,-70) scale(1,1)"><rect fill="#ffffff" stroke="none" x="128" y="496" width="183" height="183"/></g><g transform="translate(-118,-70) scale(1,1)"><path fill="none" stroke="#000000" d="M 128 496 L 311 496 L 311 679 L 128 679 L 128 496 Z Z" stroke-miterlimit="10"/></g><g transform="translate(-118,-70) scale(1,1)"><path fill="none" stroke="#000000" d="M 128 521 L 311 521" stroke-miterlimit="10"/></g><g transform="translate(-118,-70) scale(1,1)"><path fill="none" stroke="#000000" d="M 128 559 L 311 559" stroke-miterlimit="10"/></g><g transform="translate(-118,-70) scale(1,1)"><g><path fill="none" stroke="none"/><text fill="#000000" stroke="none" font-family="Arial" font-size="13px" font-style="normal" font-weight="bold" text-decoration="none" x="189.161376953125" y="514">Customer</text></g></g><g transform="translate(-118,-70) scale(1,1)"><g><path fill="none" stroke="none"/><text fill="#000000" stroke="none" font-family="Arial" font-size="13px" font-style="normal" font-weight="normal" text-decoration="none" x="133" y="537">+name: string</text></g></g><g transform="translate(-118,-70) scale(1,1)"><g><path fill="none" stroke="none"/><text fill="#000000" stroke="none" font-family="Arial" font-size="13px" font-style="normal" font-weight="normal" text-decoration="none" x="133" y="552">+order: string</text></g></g><g transform="translate(-118,-70) scale(1,1)"><g><path fill="none" stroke="none"/><text fill="#000000" stroke="none" font-family="Arial" font-size="13px" font-style="normal" font-weight="normal" text-decoration="none" x="133" y="575">+enter()</text></g></g><g transform="translate(-118,-70) scale(1,1)"><g><path fill="none" stroke="none"/><text fill="#000000" stroke="none" font-family="Arial" font-size="13px" font-style="normal" font-weight="normal" text-decoration="none" x="133" y="590">+order()</text></g></g><g transform="translate(-118,-70) scale(1,1)"><g><path fill="none" stroke="none"/><text fill="#000000" stroke="none" font-family="Arial" font-size="13px" font-style="normal" font-weight="normal" text-decoration="none" x="133" y="605">+exit()</text></g></g><g transform="translate(-118,-70) scale(1,1)"><path fill="none" stroke="#000000" d="M 216 383 L 216 496" stroke-miterlimit="10"/></g><g transform="translate(-118,-70) scale(1,1)"><g><path fill="none" stroke="none"/><text fill="#000000" stroke="none" font-family="Arial" font-size="13px" font-style="normal" font-weight="normal" text-decoration="none" x="199.5" y="409">1</text></g></g><g transform="translate(-118,-70) scale(1,1)"><g><path fill="none" stroke="none"/><text fill="#000000" stroke="none" font-family="Arial" font-size="13px" font-style="normal" font-weight="normal" text-decoration="none" x="193.5" y="479">0..*</text></g></g></g></svg>