<?xml version="1.0" encoding="utf-8" standalone="no"?>
<!DOCTYPE svg PUBLIC "-//W3C//DTD SVG 1.1//EN"
  "http://www.w3.org/Graphics/SVG/1.1/DTD/svg11.dtd">
<svg xmlns:xlink="http://www.w3.org/1999/xlink" width="460.8pt" height="345.6pt" viewBox="0 0 460.8 345.6" xmlns="http://www.w3.org/2000/svg" version="1.1">
 <metadata>
  <rdf:RDF xmlns:dc="http://purl.org/dc/elements/1.1/" xmlns:cc="http://creativecommons.org/ns#" xmlns:rdf="http://www.w3.org/1999/02/22-rdf-syntax-ns#">
   <cc:Work>
    <dc:type rdf:resource="http://purl.org/dc/dcmitype/StillImage"/>
    <dc:date>2023-03-19T19:48:54.691295</dc:date>
    <dc:format>image/svg+xml</dc:format>
    <dc:creator>
     <cc:Agent>
      <dc:title>Matplotlib v3.6.3, https://matplotlib.org/</dc:title>
     </cc:Agent>
    </dc:creator>
   </cc:Work>
  </rdf:RDF>
 </metadata>
 <defs>
  <style type="text/css">*{stroke-linejoin: round; stroke-linecap: butt}</style>
 </defs>
 <g id="figure_1">
  <g id="patch_1">
   <path d="M 0 345.6 
L 460.8 345.6 
L 460.8 0 
L 0 0 
z
" style="fill: #ffffff"/>
  </g>
  <g id="axes_1">
   <g id="LineCollection_1">
    <path d="M 118.982255 29.990083 
L 182.353333 177.12868 
" clip-path="url(#p1798682be9)" style="fill: none; stroke: #000000"/>
    <path d="M 39.986777 236.535203 
L 182.353333 177.12868 
" clip-path="url(#p1798682be9)" style="fill: none; stroke: #000000"/>
    <path d="M 39.986777 236.535203 
L 176.809064 315.609917 
" clip-path="url(#p1798682be9)" style="fill: none; stroke: #000000"/>
    <path d="M 182.353333 177.12868 
L 176.809064 315.609917 
" clip-path="url(#p1798682be9)" style="fill: none; stroke: #000000"/>
    <path d="M 182.353333 177.12868 
L 420.813223 205.572303 
" clip-path="url(#p1798682be9)" style="fill: none; stroke: #000000"/>
    <path d="M 176.809064 315.609917 
L 420.813223 205.572303 
" clip-path="url(#p1798682be9)" style="fill: none; stroke: #000000"/>
   </g>
   <g id="text_1">
    <g id="patch_2">
     <path d="M 142.20971 103.738434 
L 144.726475 109.582003 
Q 145.913161 112.337321 148.668479 111.150634 
L 157.557248 107.322332 
Q 160.312565 106.135646 159.125878 103.380328 
L 156.609113 97.536759 
Q 155.422426 94.781442 152.667109 95.968128 
L 143.77834 99.79643 
Q 141.023023 100.983117 142.20971 103.738434 
z
" clip-path="url(#p1798682be9)" style="fill: #ffffff; stroke: #ffffff; stroke-linejoin: miter"/>
    </g>
    <g clip-path="url(#p1798682be9)">
     <!-- 3 -->
     <g transform="translate(146.875093 101.729101) rotate(-293.301047) scale(0.1 -0.1)">
      <defs>
       <path id="DejaVuSans-33" d="M 2597 2516 
Q 3050 2419 3304 2112 
Q 3559 1806 3559 1356 
Q 3559 666 3084 287 
Q 2609 -91 1734 -91 
Q 1441 -91 1130 -33 
Q 819 25 488 141 
L 488 750 
Q 750 597 1062 519 
Q 1375 441 1716 441 
Q 2309 441 2620 675 
Q 2931 909 2931 1356 
Q 2931 1769 2642 2001 
Q 2353 2234 1838 2234 
L 1294 2234 
L 1294 2753 
L 1863 2753 
Q 2328 2753 2575 2939 
Q 2822 3125 2822 3475 
Q 2822 3834 2567 4026 
Q 2313 4219 1838 4219 
Q 1578 4219 1281 4162 
Q 984 4106 628 3988 
L 628 4550 
Q 988 4650 1302 4700 
Q 1616 4750 1894 4750 
Q 2613 4750 3031 4423 
Q 3450 4097 3450 3541 
Q 3450 3153 3228 2886 
Q 3006 2619 2597 2516 
z
" transform="scale(0.015625)"/>
      </defs>
      <use xlink:href="#DejaVuSans-33"/>
     </g>
    </g>
   </g>
   <g id="text_2">
    <g id="patch_3">
     <path d="M 108.317051 216.516603 
L 120.060652 211.616249 
Q 122.82928 210.46096 121.673991 207.692331 
L 117.946978 198.760619 
Q 116.791688 195.99199 114.023059 197.147279 
L 102.279459 202.047633 
Q 99.51083 203.202923 100.66612 205.971552 
L 104.393132 214.903264 
Q 105.548422 217.671893 108.317051 216.516603 
z
" clip-path="url(#p1798682be9)" style="fill: #ffffff; stroke: #ffffff; stroke-linejoin: miter"/>
    </g>
    <g clip-path="url(#p1798682be9)">
     <!-- 10 -->
     <g transform="translate(106.360881 211.82868) rotate(-22.649735) scale(0.1 -0.1)">
      <defs>
       <path id="DejaVuSans-31" d="M 794 531 
L 1825 531 
L 1825 4091 
L 703 3866 
L 703 4441 
L 1819 4666 
L 2450 4666 
L 2450 531 
L 3481 531 
L 3481 0 
L 794 0 
L 794 531 
z
" transform="scale(0.015625)"/>
       <path id="DejaVuSans-30" d="M 2034 4250 
Q 1547 4250 1301 3770 
Q 1056 3291 1056 2328 
Q 1056 1369 1301 889 
Q 1547 409 2034 409 
Q 2525 409 2770 889 
Q 3016 1369 3016 2328 
Q 3016 3291 2770 3770 
Q 2525 4250 2034 4250 
z
M 2034 4750 
Q 2819 4750 3233 4129 
Q 3647 3509 3647 2328 
Q 3647 1150 3233 529 
Q 2819 -91 2034 -91 
Q 1250 -91 836 529 
Q 422 1150 422 2328 
Q 422 3509 836 4129 
Q 1250 4750 2034 4750 
z
" transform="scale(0.015625)"/>
      </defs>
      <use xlink:href="#DejaVuSans-31"/>
      <use xlink:href="#DejaVuSans-30" x="63.623047"/>
     </g>
    </g>
   </g>
   <g id="text_3">
    <g id="patch_4">
     <path d="M 101.721058 281.267824 
L 107.229744 284.451499 
Q 109.827159 285.952643 111.328303 283.355227 
L 116.171055 274.975856 
Q 117.672198 272.37844 115.074783 270.877297 
L 109.566097 267.693621 
Q 106.968681 266.192478 105.467538 268.789893 
L 100.624786 277.169264 
Q 99.123642 279.76668 101.721058 281.267824 
z
" clip-path="url(#p1798682be9)" style="fill: #ffffff; stroke: #ffffff; stroke-linejoin: miter"/>
    </g>
    <g clip-path="url(#p1798682be9)">
     <!-- 4 -->
     <g transform="translate(104.262838 276.869804) rotate(-329.974777) scale(0.1 -0.1)">
      <defs>
       <path id="DejaVuSans-34" d="M 2419 4116 
L 825 1625 
L 2419 1625 
L 2419 4116 
z
M 2253 4666 
L 3047 4666 
L 3047 1625 
L 3713 1625 
L 3713 1100 
L 3047 1100 
L 3047 0 
L 2419 0 
L 2419 1100 
L 313 1100 
L 313 1709 
L 2253 4666 
z
" transform="scale(0.015625)"/>
      </defs>
      <use xlink:href="#DejaVuSans-34"/>
     </g>
    </g>
   </g>
   <g id="text_4">
    <g id="patch_5">
     <path d="M 187.286723 249.861597 
L 187.541249 243.50419 
Q 187.661262 240.506592 184.663663 240.386579 
L 174.993286 239.999414 
Q 171.995687 239.879401 171.875675 242.877 
L 171.621148 249.234406 
Q 171.501135 252.232005 174.498734 252.352018 
L 184.169112 252.739183 
Q 187.16671 252.859196 187.286723 249.861597 
z
" clip-path="url(#p1798682be9)" style="fill: #ffffff; stroke: #ffffff; stroke-linejoin: miter"/>
    </g>
    <g clip-path="url(#p1798682be9)">
     <!-- 2 -->
     <g transform="translate(182.211101 249.658388) rotate(-87.707316) scale(0.1 -0.1)">
      <defs>
       <path id="DejaVuSans-32" d="M 1228 531 
L 3431 531 
L 3431 0 
L 469 0 
L 469 531 
Q 828 903 1448 1529 
Q 2069 2156 2228 2338 
Q 2531 2678 2651 2914 
Q 2772 3150 2772 3378 
Q 2772 3750 2511 3984 
Q 2250 4219 1831 4219 
Q 1534 4219 1204 4116 
Q 875 4013 500 3803 
L 500 4441 
Q 881 4594 1212 4672 
Q 1544 4750 1819 4750 
Q 2544 4750 2975 4387 
Q 3406 4025 3406 3419 
Q 3406 3131 3298 2873 
Q 3191 2616 2906 2266 
Q 2828 2175 2409 1742 
Q 1991 1309 1228 531 
z
" transform="scale(0.015625)"/>
      </defs>
      <use xlink:href="#DejaVuSans-32"/>
     </g>
    </g>
   </g>
   <g id="text_5">
    <g id="patch_6">
     <path d="M 297.495955 198.757585 
L 303.81367 199.511166 
Q 306.792553 199.866488 307.147876 196.887605 
L 308.294162 187.277603 
Q 308.649485 184.29872 305.670602 183.943397 
L 299.352887 183.189817 
Q 296.374003 182.834494 296.018681 185.813377 
L 294.872394 195.423379 
Q 294.517072 198.402262 297.495955 198.757585 
z
" clip-path="url(#p1798682be9)" style="fill: #ffffff; stroke: #ffffff; stroke-linejoin: miter"/>
    </g>
    <g clip-path="url(#p1798682be9)">
     <!-- 6 -->
     <g transform="translate(298.097598 193.713653) rotate(-353.197867) scale(0.1 -0.1)">
      <defs>
       <path id="DejaVuSans-36" d="M 2113 2584 
Q 1688 2584 1439 2293 
Q 1191 2003 1191 1497 
Q 1191 994 1439 701 
Q 1688 409 2113 409 
Q 2538 409 2786 701 
Q 3034 994 3034 1497 
Q 3034 2003 2786 2293 
Q 2538 2584 2113 2584 
z
M 3366 4563 
L 3366 3988 
Q 3128 4100 2886 4159 
Q 2644 4219 2406 4219 
Q 1781 4219 1451 3797 
Q 1122 3375 1075 2522 
Q 1259 2794 1537 2939 
Q 1816 3084 2150 3084 
Q 2853 3084 3261 2657 
Q 3669 2231 3669 1497 
Q 3669 778 3244 343 
Q 2819 -91 2113 -91 
Q 1303 -91 875 529 
Q 447 1150 447 2328 
Q 447 3434 972 4092 
Q 1497 4750 2381 4750 
Q 2619 4750 2861 4703 
Q 3103 4656 3366 4563 
z
" transform="scale(0.015625)"/>
      </defs>
      <use xlink:href="#DejaVuSans-36"/>
     </g>
    </g>
   </g>
   <g id="text_6">
    <g id="patch_7">
     <path d="M 299.133757 269.044936 
L 304.933759 266.429332 
Q 307.668534 265.196041 306.435243 262.461266 
L 302.456595 253.638768 
Q 301.223304 250.903993 298.48853 252.137284 
L 292.688528 254.752889 
Q 289.953753 255.986179 291.187044 258.720954 
L 295.165692 267.543452 
Q 296.398983 270.278227 299.133757 269.044936 
z
" clip-path="url(#p1798682be9)" style="fill: #ffffff; stroke: #ffffff; stroke-linejoin: miter"/>
    </g>
    <g clip-path="url(#p1798682be9)">
     <!-- 1 -->
     <g transform="translate(297.045513 264.414335) rotate(-24.273763) scale(0.1 -0.1)">
      <use xlink:href="#DejaVuSans-31"/>
     </g>
    </g>
   </g>
   <g id="PathCollection_1">
    <defs>
     <path id="mf64c14f976" d="M 0 8.660254 
C 2.296726 8.660254 4.499694 7.747755 6.123724 6.123724 
C 7.747755 4.499694 8.660254 2.296726 8.660254 0 
C 8.660254 -2.296726 7.747755 -4.499694 6.123724 -6.123724 
C 4.499694 -7.747755 2.296726 -8.660254 0 -8.660254 
C -2.296726 -8.660254 -4.499694 -7.747755 -6.123724 -6.123724 
C -7.747755 -4.499694 -8.660254 -2.296726 -8.660254 0 
C -8.660254 2.296726 -7.747755 4.499694 -6.123724 6.123724 
C -4.499694 7.747755 -2.296726 8.660254 0 8.660254 
z
" style="stroke: #ff0000"/>
    </defs>
    <g clip-path="url(#p1798682be9)">
     <use xlink:href="#mf64c14f976" x="118.982255" y="29.990083" style="fill: #ff0000; stroke: #ff0000"/>
     <use xlink:href="#mf64c14f976" x="39.986777" y="236.535203" style="fill: #ff0000; stroke: #ff0000"/>
     <use xlink:href="#mf64c14f976" x="182.353333" y="177.12868" style="fill: #ff0000; stroke: #ff0000"/>
     <use xlink:href="#mf64c14f976" x="176.809064" y="315.609917" style="fill: #ff0000; stroke: #ff0000"/>
     <use xlink:href="#mf64c14f976" x="420.813223" y="205.572303" style="fill: #ff0000; stroke: #ff0000"/>
    </g>
   </g>
   <g id="text_7">
    <g clip-path="url(#p1798682be9)">
     <!-- 0 -->
     <g style="fill: #ffffff" transform="translate(115.164755 33.301333) scale(0.12 -0.12)">
      <use xlink:href="#DejaVuSans-30"/>
     </g>
    </g>
   </g>
   <g id="text_8">
    <g clip-path="url(#p1798682be9)">
     <!-- 1 -->
     <g style="fill: #ffffff" transform="translate(36.169277 239.846453) scale(0.12 -0.12)">
      <use xlink:href="#DejaVuSans-31"/>
     </g>
    </g>
   </g>
   <g id="text_9">
    <g clip-path="url(#p1798682be9)">
     <!-- 2 -->
     <g style="fill: #ffffff" transform="translate(178.535833 180.43993) scale(0.12 -0.12)">
      <use xlink:href="#DejaVuSans-32"/>
     </g>
    </g>
   </g>
   <g id="text_10">
    <g clip-path="url(#p1798682be9)">
     <!-- 3 -->
     <g style="fill: #ffffff" transform="translate(172.991564 318.921167) scale(0.12 -0.12)">
      <use xlink:href="#DejaVuSans-33"/>
     </g>
    </g>
   </g>
   <g id="text_11">
    <g clip-path="url(#p1798682be9)">
     <!-- 4 -->
     <g style="fill: #ffffff" transform="translate(416.995723 208.883553) scale(0.12 -0.12)">
      <use xlink:href="#DejaVuSans-34"/>
     </g>
    </g>
   </g>
  </g>
 </g>
 <defs>
  <clipPath id="p1798682be9">
   <rect x="0" y="0" width="460.8" height="345.6"/>
  </clipPath>
 </defs>
</svg>
