<svg xmlns="http://www.w3.org/2000/svg" xmlns:xlink="http://www.w3.org/1999/xlink" xmlns:lucid="lucid" width="921" height="230"><g transform="translate(700.5 -309.6040894732031)" lucid:page-tab-id="0_0"><path d="M-680 338.1a8 8 0 0 1 8-8h344a8 8 0 0 1 8 8v88a8 8 0 0 1-8 8h-344a8 8 0 0 1-8-8z" fill="#fff"/><path d="M-680 402.1v24a8 8 0 0 0 8 8h344a8 8 0 0 0 8-8v-24" fill="#d7faf5"/><path d="M-680 370.1v-32a8 8 0 0 1 8-8h344a8 8 0 0 1 8 8v32" fill="#b8f5ed"/><path d="M-680 338.1a8 8 0 0 1 8-8h344a8 8 0 0 1 8 8v88a8 8 0 0 1-8 8h-344a8 8 0 0 1-8-8zM-680 370.1h360M-620 370.1v64M-450.9 370.1v64" stroke="#3a414a" fill="none"/><use xlink:href="#a" transform="matrix(1,0,0,1,-670,330.1040894732031) translate(128.05 23.6)"/><use xlink:href="#b" transform="matrix(1,0,0,1,-675,372.6040894732031) translate(13 17.1)"/><use xlink:href="#c" transform="matrix(1,0,0,1,-615,372.6040894732031) translate(58.574999999999996 17.1)"/><use xlink:href="#d" transform="matrix(1,0,0,1,-445.88943349353275,372.6040894732031) translate(30.549999999999997 17.1)"/><use xlink:href="#e" transform="matrix(1,0,0,1,-615,404.6040894732031) translate(41.55 17.1)"/><use xlink:href="#f" transform="matrix(1,0,0,1,-445.88943349353275,404.6040894732031) translate(46 17.1)"/><path d="M-180 338.1a8 8 0 0 1 8-8h364a8 8 0 0 1 8 8v173a8 8 0 0 1-8 8h-364a8 8 0 0 1-8-8z" fill="#fff"/><path d="M-180 402.1v33h380v-33M-180 466.1v45a8 8 0 0 0 8 8h364a8 8 0 0 0 8-8v-45" fill="#d7faf5"/><path d="M-180 370.1v-32a8 8 0 0 1 8-8h364a8 8 0 0 1 8 8v32" fill="#b8f5ed"/><path d="M-180 338.1a8 8 0 0 1 8-8h364a8 8 0 0 1 8 8v173a8 8 0 0 1-8 8h-364a8 8 0 0 1-8-8zM-180 370.1h380M-120 370.1v149M65.88 370.1v149" stroke="#3a414a" fill="none"/><use xlink:href="#g" transform="matrix(1,0,0,1,-170,330.1040894732031) translate(145.575 23.6)"/><use xlink:href="#b" transform="matrix(1,0,0,1,-175,372.6040894732031) translate(13 17.1)"/><use xlink:href="#h" transform="matrix(1,0,0,1,-115,372.6040894732031) translate(68.5 17.1)"/><use xlink:href="#i" transform="matrix(1,0,0,1,70.87690808733669,372.6040894732031) translate(45.525 17.1)"/><use xlink:href="#j" transform="matrix(1,0,0,1,-115,404.6040894732031) translate(78.05 17.1)"/><use xlink:href="#k" transform="matrix(1,0,0,1,70.87690808733669,404.6040894732031) translate(48 17.1)"/><use xlink:href="#l" transform="matrix(1,0,0,1,-115,436.6040894732031) translate(63.05 17.1)"/><use xlink:href="#m" transform="matrix(1,0,0,1,70.87690808733669,436.6040894732031) translate(41.05 17.1)"/><use xlink:href="#n" transform="matrix(1,0,0,1,-175,468.6040894732031) translate(13 16.799999999999997)"/><use xlink:href="#o" transform="matrix(1,0,0,1,-175,468.6040894732031) translate(13.524999999999999 38.4)"/><use xlink:href="#p" transform="matrix(1,0,0,1,-115,468.6040894732031) translate(44.099999999999994 27.6)"/><use xlink:href="#d" transform="matrix(1,0,0,1,70.87690808733669,468.6040894732031) translate(32.55 27.6)"/><path d="M-299.5 386.1h37.5a12 12 0 0 1 12 12v82.5a12 12 0 0 0 12 12h38.1" stroke="#3a414a" fill="none"/><path d="M-309.5 396.1v-20M-319.5 386.1h20M-299.5 396.1v-20" stroke="#3a414a" fill="#fff"/><path d="M-180.72 502.6l-20-10 20-10" stroke="#3a414a" fill="#fff" fill-opacity="0"/><path d="M-180.72 492.6h-20" stroke="#3a414a" fill="#fff"/><defs><path fill="#3a414a" d="M84 4C-5 8 30-112 23-190h32v120c0 31 7 50 39 49 72-2 45-101 50-169h31l1 190h-30c-1-10 1-25-2-33-11 22-28 36-60 37" id="q"/><path fill="#3a414a" d="M135-143c-3-34-86-38-87 0 15 53 115 12 119 90S17 21 10-45l28-5c4 36 97 45 98 0-10-56-113-15-118-90-4-57 82-63 122-42 12 7 21 19 24 35" id="r"/><path fill="#3a414a" d="M100-194c63 0 86 42 84 106H49c0 40 14 67 53 68 26 1 43-12 49-29l28 8c-11 28-37 45-77 45C44 4 14-33 15-96c1-61 26-98 85-98zm52 81c6-60-76-77-97-28-3 7-6 17-6 28h103" id="s"/><path fill="#3a414a" d="M114-163C36-179 61-72 57 0H25l-1-190h30c1 12-1 29 2 39 6-27 23-49 58-41v29" id="t"/><path fill="#3a414a" d="M-5 72V49h209v23H-5" id="u"/><path fill="#3a414a" d="M59-47c-2 24 18 29 38 22v24C64 9 27 4 27-40v-127H5v-23h24l9-43h21v43h35v23H59v120" id="v"/><path fill="#3a414a" d="M141-36C126-15 110 5 73 4 37 3 15-17 15-53c-1-64 63-63 125-63 3-35-9-54-41-54-24 1-41 7-42 31l-33-3c5-37 33-52 76-52 45 0 72 20 72 64v82c-1 20 7 32 28 27v20c-31 9-61-2-59-35zM48-53c0 20 12 33 32 33 41-3 63-29 60-74-43 2-92-5-92 41" id="w"/><path fill="#3a414a" d="M115-194c53 0 69 39 70 98 0 66-23 100-70 100C84 3 66-7 56-30L54 0H23l1-261h32v101c10-23 28-34 59-34zm-8 174c40 0 45-34 45-75 0-40-5-75-45-74-42 0-51 32-51 76 0 43 10 73 51 73" id="x"/><path fill="#3a414a" d="M24 0v-261h32V0H24" id="y"/><g id="a"><use transform="matrix(0.05,0,0,0.05,0,0)" xlink:href="#q"/><use transform="matrix(0.05,0,0,0.05,10,0)" xlink:href="#r"/><use transform="matrix(0.05,0,0,0.05,19,0)" xlink:href="#s"/><use transform="matrix(0.05,0,0,0.05,29,0)" xlink:href="#t"/><use transform="matrix(0.05,0,0,0.05,34.95,0)" xlink:href="#u"/><use transform="matrix(0.05,0,0,0.05,44.95,0)" xlink:href="#v"/><use transform="matrix(0.05,0,0,0.05,49.95,0)" xlink:href="#w"/><use transform="matrix(0.05,0,0,0.05,59.95,0)" xlink:href="#x"/><use transform="matrix(0.05,0,0,0.05,69.95,0)" xlink:href="#y"/><use transform="matrix(0.05,0,0,0.05,73.9,0)" xlink:href="#s"/></g><path fill="#3a414a" d="M30-248c87 1 191-15 191 75 0 78-77 80-158 76V0H30v-248zm33 125c57 0 124 11 124-50 0-59-68-47-124-48v98" id="z"/><path fill="#3a414a" d="M194 0L95-120 63-95V0H30v-248h33v124l119-124h40L117-140 236 0h-42" id="A"/><g id="b"><use transform="matrix(0.05,0,0,0.05,0,0)" xlink:href="#z"/><use transform="matrix(0.05,0,0,0.05,12,0)" xlink:href="#A"/></g><path fill="#3a414a" d="M210-169c-67 3-38 105-44 169h-31v-121c0-29-5-50-35-48C34-165 62-65 56 0H25l-1-190h30c1 10-1 24 2 32 10-44 99-50 107 0 11-21 27-35 58-36 85-2 47 119 55 194h-31v-121c0-29-5-49-35-48" id="B"/><path fill="#3a414a" d="M24-231v-30h32v30H24zM24 0v-190h32V0H24" id="C"/><g id="c"><use transform="matrix(0.05,0,0,0.05,0,0)" xlink:href="#s"/><use transform="matrix(0.05,0,0,0.05,10,0)" xlink:href="#B"/><use transform="matrix(0.05,0,0,0.05,24.950000000000003,0)" xlink:href="#w"/><use transform="matrix(0.05,0,0,0.05,34.95,0)" xlink:href="#C"/><use transform="matrix(0.05,0,0,0.05,38.900000000000006,0)" xlink:href="#y"/></g><path fill="#3a414a" d="M108 0H70L1-190h34L89-25l56-165h34" id="D"/><path fill="#3a414a" d="M96-169c-40 0-48 33-48 73s9 75 48 75c24 0 41-14 43-38l32 2c-6 37-31 61-74 61-59 0-76-41-82-99-10-93 101-131 147-64 4 7 5 14 7 22l-32 3c-4-21-16-35-41-35" id="E"/><path fill="#3a414a" d="M106-169C34-169 62-67 57 0H25v-261h32l-1 103c12-21 28-36 61-36 89 0 53 116 60 194h-32v-121c2-32-8-49-39-48" id="F"/><g id="d"><use transform="matrix(0.05,0,0,0.05,0,0)" xlink:href="#D"/><use transform="matrix(0.05,0,0,0.05,9,0)" xlink:href="#w"/><use transform="matrix(0.05,0,0,0.05,19,0)" xlink:href="#t"/><use transform="matrix(0.05,0,0,0.05,24.95,0)" xlink:href="#E"/><use transform="matrix(0.05,0,0,0.05,33.95,0)" xlink:href="#F"/><use transform="matrix(0.05,0,0,0.05,43.95,0)" xlink:href="#w"/><use transform="matrix(0.05,0,0,0.05,53.95,0)" xlink:href="#t"/></g><path fill="#3a414a" d="M115-194c55 1 70 41 70 98S169 2 115 4C84 4 66-9 55-30l1 105H24l-1-265h31l2 30c10-21 28-34 59-34zm-8 174c40 0 45-34 45-75s-6-73-45-74c-42 0-51 32-51 76 0 43 10 73 51 73" id="G"/><path fill="#3a414a" d="M206 0h-36l-40-164L89 0H53L-1-190h32L70-26l43-164h34l41 164 42-164h31" id="H"/><path fill="#3a414a" d="M100-194c62-1 85 37 85 99 1 63-27 99-86 99S16-35 15-95c0-66 28-99 85-99zM99-20c44 1 53-31 53-75 0-43-8-75-51-75s-53 32-53 75 10 74 51 75" id="I"/><path fill="#3a414a" d="M85-194c31 0 48 13 60 33l-1-100h32l1 261h-30c-2-10 0-23-3-31C134-8 116 4 85 4 32 4 16-35 15-94c0-66 23-100 70-100zm9 24c-40 0-46 34-46 75 0 40 6 74 45 74 42 0 51-32 51-76 0-42-9-74-50-73" id="J"/><g id="e"><use transform="matrix(0.05,0,0,0.05,0,0)" xlink:href="#G"/><use transform="matrix(0.05,0,0,0.05,10,0)" xlink:href="#w"/><use transform="matrix(0.05,0,0,0.05,20,0)" xlink:href="#r"/><use transform="matrix(0.05,0,0,0.05,29,0)" xlink:href="#r"/><use transform="matrix(0.05,0,0,0.05,38,0)" xlink:href="#H"/><use transform="matrix(0.05,0,0,0.05,50.95,0)" xlink:href="#I"/><use transform="matrix(0.05,0,0,0.05,60.95,0)" xlink:href="#t"/><use transform="matrix(0.05,0,0,0.05,66.9,0)" xlink:href="#J"/></g><path fill="#3a414a" d="M141 0L90-78 38 0H4l68-98-65-92h35l48 74 47-74h35l-64 92 68 98h-35" id="K"/><g id="f"><use transform="matrix(0.05,0,0,0.05,0,0)" xlink:href="#v"/><use transform="matrix(0.05,0,0,0.05,5,0)" xlink:href="#s"/><use transform="matrix(0.05,0,0,0.05,15,0)" xlink:href="#K"/><use transform="matrix(0.05,0,0,0.05,24,0)" xlink:href="#v"/></g><g id="g"><use transform="matrix(0.05,0,0,0.05,0,0)" xlink:href="#q"/><use transform="matrix(0.05,0,0,0.05,10,0)" xlink:href="#t"/><use transform="matrix(0.05,0,0,0.05,15.949999999999998,0)" xlink:href="#y"/><use transform="matrix(0.05,0,0,0.05,19.9,0)" xlink:href="#u"/><use transform="matrix(0.05,0,0,0.05,29.899999999999995,0)" xlink:href="#v"/><use transform="matrix(0.05,0,0,0.05,34.9,0)" xlink:href="#w"/><use transform="matrix(0.05,0,0,0.05,44.9,0)" xlink:href="#x"/><use transform="matrix(0.05,0,0,0.05,54.900000000000006,0)" xlink:href="#y"/><use transform="matrix(0.05,0,0,0.05,58.85,0)" xlink:href="#s"/></g><g id="h"><use transform="matrix(0.05,0,0,0.05,0,0)" xlink:href="#F"/><use transform="matrix(0.05,0,0,0.05,10,0)" xlink:href="#w"/><use transform="matrix(0.05,0,0,0.05,20,0)" xlink:href="#r"/><use transform="matrix(0.05,0,0,0.05,29,0)" xlink:href="#F"/></g><g id="i"><use transform="matrix(0.05,0,0,0.05,0,0)" xlink:href="#q"/><use transform="matrix(0.05,0,0,0.05,10,0)" xlink:href="#q"/><use transform="matrix(0.05,0,0,0.05,20,0)" xlink:href="#C"/><use transform="matrix(0.05,0,0,0.05,23.95,0)" xlink:href="#J"/></g><g id="j"><use transform="matrix(0.05,0,0,0.05,0,0)" xlink:href="#q"/><use transform="matrix(0.05,0,0,0.05,10,0)" xlink:href="#t"/><use transform="matrix(0.05,0,0,0.05,15.949999999999998,0)" xlink:href="#y"/></g><g id="k"><use transform="matrix(0.05,0,0,0.05,0,0)" xlink:href="#v"/><use transform="matrix(0.05,0,0,0.05,5,0)" xlink:href="#s"/><use transform="matrix(0.05,0,0,0.05,15,0)" xlink:href="#K"/><use transform="matrix(0.05,0,0,0.05,24,0)" xlink:href="#v"/></g><path fill="#3a414a" d="M117-194c89-4 53 116 60 194h-32v-121c0-31-8-49-39-48C34-167 62-67 57 0H25l-1-190h30c1 10-1 24 2 32 11-22 29-35 61-36" id="L"/><g id="l"><use transform="matrix(0.05,0,0,0.05,0,0)" xlink:href="#q"/><use transform="matrix(0.05,0,0,0.05,10,0)" xlink:href="#t"/><use transform="matrix(0.05,0,0,0.05,15.949999999999998,0)" xlink:href="#y"/><use transform="matrix(0.05,0,0,0.05,19.9,0)" xlink:href="#u"/><use transform="matrix(0.05,0,0,0.05,29.899999999999995,0)" xlink:href="#L"/><use transform="matrix(0.05,0,0,0.05,39.9,0)" xlink:href="#I"/></g><path fill="#3a414a" d="M177-190C167-65 218 103 67 71c-23-6-38-20-44-43l32-5c15 47 100 32 89-28v-30C133-14 115 1 83 1 29 1 15-40 15-95c0-56 16-97 71-98 29-1 48 16 59 35 1-10 0-23 2-32h30zM94-22c36 0 50-32 50-73 0-42-14-75-50-75-39 0-46 34-46 75s6 73 46 73" id="M"/><g id="m"><use transform="matrix(0.05,0,0,0.05,0,0)" xlink:href="#x"/><use transform="matrix(0.05,0,0,0.05,10,0)" xlink:href="#C"/><use transform="matrix(0.05,0,0,0.05,13.949999999999998,0)" xlink:href="#M"/><use transform="matrix(0.05,0,0,0.05,23.95,0)" xlink:href="#C"/><use transform="matrix(0.05,0,0,0.05,27.899999999999995,0)" xlink:href="#L"/><use transform="matrix(0.05,0,0,0.05,37.9,0)" xlink:href="#v"/></g><g id="n"><use transform="matrix(0.05,0,0,0.05,0,0)" xlink:href="#z"/><use transform="matrix(0.05,0,0,0.05,12,0)" xlink:href="#A"/></g><path fill="#3a414a" d="M63-220v92h138v28H63V0H30v-248h175v28H63" id="N"/><g id="o"><use transform="matrix(0.05,0,0,0.05,0,0)" xlink:href="#N"/><use transform="matrix(0.05,0,0,0.05,10.950000000000001,0)" xlink:href="#A"/></g><g id="p"><use transform="matrix(0.05,0,0,0.05,0,0)" xlink:href="#q"/><use transform="matrix(0.05,0,0,0.05,10,0)" xlink:href="#r"/><use transform="matrix(0.05,0,0,0.05,19,0)" xlink:href="#s"/><use transform="matrix(0.05,0,0,0.05,29,0)" xlink:href="#t"/><use transform="matrix(0.05,0,0,0.05,34.95,0)" xlink:href="#u"/><use transform="matrix(0.05,0,0,0.05,44.95,0)" xlink:href="#s"/><use transform="matrix(0.05,0,0,0.05,54.95,0)" xlink:href="#B"/><use transform="matrix(0.05,0,0,0.05,69.9,0)" xlink:href="#w"/><use transform="matrix(0.05,0,0,0.05,79.9,0)" xlink:href="#C"/><use transform="matrix(0.05,0,0,0.05,83.85000000000001,0)" xlink:href="#y"/></g></defs></g></svg>