<svg xmlns="http://www.w3.org/2000/svg" xmlns:xlink="http://www.w3.org/1999/xlink" xmlns:lucid="lucid" width="1261" height="2126.2"><g transform="translate(-1219.5 -595.800247946483)" lucid:page-tab-id="0_0"><path d="M1479.75 636.05c0 10.9-8.84 19.75-19.75 19.75-10.9 0-19.75-8.84-19.75-19.75 0-10.9 8.84-19.75 19.75-19.75 10.9 0 19.75 8.84 19.75 19.75z" stroke="#333" fill="#fff"/><path d="M1460 655.8v47.3a27.6 27.6 0 0 0 4.28 14.76L1500 774.3m-40-63.2l-40 63.2m0-98.75h80" stroke="#333" fill="none"/><path d="M1420 624.3a8 8 0 0 1 8-8h64a8 8 0 0 1 8 8v164a8 8 0 0 1-8 8h-64a8 8 0 0 1-8-8z" fill="none"/><use xlink:href="#a" transform="matrix(1,0,0,1,1340,774.300247946483) translate(101.28395061728395 14.555555555555555)"/><path d="M1440 804.3a8 8 0 0 1 8-8h24a8 8 0 0 1 8 8V2552a8 8 0 0 1-8 8h-24a8 8 0 0 1-8-8zM1780 648.6a8 8 0 0 1 8-8h204a8 8 0 0 1 8 8v67.2a8 8 0 0 1-8 8h-204a8 8 0 0 1-8-8z" stroke="#3a414a" fill="#fff"/><use xlink:href="#b" transform="matrix(1,0,0,1,1780,640.5907461299549) translate(83.555 45.9)"/><path d="M1870 888a8 8 0 0 1 8-8h24a8 8 0 0 1 8 8v1664a8 8 0 0 1-8 8h-24a8 8 0 0 1-8-8z" stroke="#3a414a" fill="#fff"/><path d="M1890 724.8v10.28m0 10.28v20.56m0 10.28v20.56m0 10.28v20.56m0 10.28v20.56m0 10.28V879" stroke="#3a414a" fill="none"/><path d="M1890.47 724.8h-.94v-.5h.94z" stroke="#3a414a" stroke-width=".05" fill="#3a414a"/><path d="M1890 879v.5M1481 892.5h372.12" stroke="#3a414a" fill="none"/><path d="M1481 892.98h-.5V892h.5z" stroke="#3a414a" stroke-width=".05" fill="#3a414a"/><path d="M1867.88 892.5l-14.27 4.63.02-9.27z" stroke="#3a414a" fill="#3a414a"/><use xlink:href="#c" transform="matrix(1,0,0,1,1642.5749451342529,866.899743655821) translate(0.005000000000002558 14.4)"/><path d="M2220 648.6a8 8 0 0 1 8-8h204a8 8 0 0 1 8 8v67.2a8 8 0 0 1-8 8h-204a8 8 0 0 1-8-8z" stroke="#3a414a" fill="#fff"/><use xlink:href="#d" transform="matrix(1,0,0,1,2220,640.5907461299549) translate(71.53 45.9)"/><path d="M2310 913.33a8 8 0 0 1 8-8h24a8 8 0 0 1 8 8V2552a8 8 0 0 1-8 8h-24a8 8 0 0 1-8-8z" stroke="#3a414a" fill="#fff"/><path d="M2330 724.8v9.98m0 9.97v19.95m0 9.97v19.95m0 9.97v19.94m0 9.97v19.96m0 9.97v19.95m0 9.97v9.98" stroke="#3a414a" fill="none"/><path d="M2330.47 724.8h-.94v-.5h.94z" stroke="#3a414a" stroke-width=".05" fill="#3a414a"/><path d="M2330 904.3v.53M1911 920.2h382.1" stroke="#3a414a" fill="none"/><path d="M1911 920.68h-.5v-.95h.5z" stroke="#3a414a" stroke-width=".05" fill="#3a414a"/><path d="M2307.88 920.2l-14.27 4.64v-9.27z" stroke="#3a414a" fill="#3a414a"/><use xlink:href="#e" transform="matrix(1,0,0,1,2046.0749487128912,894.6036665924314) translate(0.005000000000002558 14.4)"/><use xlink:href="#f" transform="matrix(1,0,0,1,2046.0749487128912,894.6036665924314) translate(47.005 14.4)"/><use xlink:href="#g" transform="matrix(1,0,0,1,2046.0749487128912,894.6036665924314) translate(89.905 14.4)"/><path d="M1240 968a8 8 0 0 1 8-8h84a8 8 0 0 1 8 8v4.93a17.07 17.07 0 0 1-5 12.07 17.07 17.07 0 0 1-12.07 5H1248a8 8 0 0 1-8-8z" fill="#fff"/><path d="M1340 960v20l-10 10h-90" stroke="#3a414a" fill="none"/><path d="M1240 968a8 8 0 0 1 8-8h1204a8 8 0 0 1 8 8v324a8 8 0 0 1-8 8H1248a8 8 0 0 1-8-8zM1240 1130h20m15 0h20m15 0h20m15 0h20m15 0h20m15 0h20m15 0h20m15 0h20m15 0h20m15 0h20m15 0h20m15 0h20m15 0h20m15 0h20m15 0h20m15 0h20m15 0h20m15 0h20m15 0h20m15 0h20m15 0h20m15 0h20m15 0h20m15 0h20m15 0h20m15 0h20m15 0h20m15 0h20m15 0h20m15 0h20m15 0h20m15 0h20m15 0h20m15 0h20m15 0h20" stroke="#3a414a" fill="none"/><use xlink:href="#h" transform="matrix(1,0,0,1,1248,960) translate(0 18.6)"/><use xlink:href="#i" transform="matrix(1,0,0,1,1252,998) translate(0 18.6)"/><use xlink:href="#j" transform="matrix(1,0,0,1,1252,998) translate(40.900000000000006 18.6)"/><use xlink:href="#k" transform="matrix(1,0,0,1,1252,1138) translate(0 18.6)"/><use xlink:href="#j" transform="matrix(1,0,0,1,1252,1138) translate(32.95 18.6)"/><path d="M2309 1007.46h-382.12" stroke="#3a414a" fill="none"/><path d="M2309.5 1007.93h-.5v-.95h.5z" stroke="#3a414a" stroke-width=".05" fill="#3a414a"/><path d="M1912.12 1007.46l14.26-4.64v9.27z" stroke="#3a414a" fill="#3a414a"/><use xlink:href="#l" transform="matrix(1,0,0,1,2056.5999716795845,1011.4576686075519) translate(0.005000000000002558 14.4)"/><use xlink:href="#m" transform="matrix(1,0,0,1,2056.5999716795845,1011.4576686075519) translate(42.90500000000001 14.4)"/><path d="M1869 1035.14h-372.12" stroke="#3a414a" fill="none"/><path d="M1869.5 1035.62h-.5v-.95h.5z" stroke="#3a414a" stroke-width=".05" fill="#3a414a"/><path d="M1482.12 1035.14l14.26-4.63v9.28z" stroke="#3a414a" fill="#3a414a"/><use xlink:href="#n" transform="matrix(1,0,0,1,1640.9999857774042,1039.1441166174673) translate(0.005000000000002558 14.4)"/><path d="M2309 1166.4h-199v.02h-183.12" stroke="#3a414a" fill="none"/><path d="M2309.5 1166.9h-.5v-.96h.5z" stroke="#3a414a" stroke-width=".05" fill="#3a414a"/><path d="M1912.12 1166.42l14.26-4.64v9.27z" stroke="#3a414a" fill="#3a414a"/><use xlink:href="#l" transform="matrix(1,0,0,1,2031.624984227417,1170.4164635782427) translate(0.0049999999999954525 14.4)"/><use xlink:href="#o" transform="matrix(1,0,0,1,2031.624984227417,1170.4164635782427) translate(42.905 14.4)"/><use xlink:href="#p" transform="matrix(1,0,0,1,2031.624984227417,1170.4164635782427) translate(108.805 14.4)"/><path d="M1869 1205.48h-372.12" stroke="#3a414a" fill="none"/><path d="M1869.5 1205.96h-.5v-.95h.5z" stroke="#3a414a" stroke-width=".05" fill="#3a414a"/><path d="M1482.12 1205.48l14.26-4.63v9.27z" stroke="#3a414a" fill="#3a414a"/><use xlink:href="#q" transform="matrix(1,0,0,1,1647.6000059262972,1209.4814310887014) translate(0.004999999999999005 14.4)"/><path d="M1481 1383.25h372.12" stroke="#3a414a" fill="none"/><path d="M1481 1383.73h-.5v-.95h.5z" stroke="#3a414a" stroke-width=".05" fill="#3a414a"/><path d="M1867.88 1383.25l-14.26 4.64v-9.28z" stroke="#3a414a" fill="#3a414a"/><use xlink:href="#r" transform="matrix(1,0,0,1,1653.5499588980888,1357.6539790785778) translate(0.004999999999999005 14.4)"/><path d="M1911 1409.75h382.12" stroke="#3a414a" fill="none"/><path d="M1911 1410.22h-.5v-.95h.5z" stroke="#3a414a" stroke-width=".05" fill="#3a414a"/><path d="M2307.88 1409.75l-14.26 4.63v-9.27z" stroke="#3a414a" fill="#3a414a"/><use xlink:href="#s" transform="matrix(1,0,0,1,2044.6249692201172,1384.145601121213) translate(0.0049999999999954525 14.4)"/><use xlink:href="#f" transform="matrix(1,0,0,1,2044.6249692201172,1384.145601121213) translate(49.904999999999994 14.4)"/><use xlink:href="#g" transform="matrix(1,0,0,1,2044.6249692201172,1384.145601121213) translate(92.805 14.4)"/><path d="M1240 1471.7a8 8 0 0 1 8-8h84a8 8 0 0 1 8 8v4.93a17.07 17.07 0 0 1-5 12.07 17.07 17.07 0 0 1-12.07 5H1248a8 8 0 0 1-8-8z" fill="#fff"/><path d="M1340 1463.7v20l-10 10h-90" stroke="#3a414a" fill="none"/><path d="M1240 1471.7a8 8 0 0 1 8-8h1204a8 8 0 0 1 8 8V1752a8 8 0 0 1-8 8H1248a8 8 0 0 1-8-8zM1240 1610h20m15 0h20m15 0h20m15 0h20m15 0h20m15 0h20m15 0h20m15 0h20m15 0h20m15 0h20m15 0h20m15 0h20m15 0h20m15 0h20m15 0h20m15 0h20m15 0h20m15 0h20m15 0h20m15 0h20m15 0h20m15 0h20m15 0h20m15 0h20m15 0h20m15 0h20m15 0h20m15 0h20m15 0h20m15 0h20m15 0h20m15 0h20m15 0h20m15 0h20m15 0h20" stroke="#3a414a" fill="none"/><use xlink:href="#h" transform="matrix(1,0,0,1,1248,1463.699752053517) translate(0 18.6)"/><use xlink:href="#t" transform="matrix(1,0,0,1,1252,1501.699752053517) translate(0 18.6)"/><use xlink:href="#u" transform="matrix(1,0,0,1,1252,1501.699752053517) translate(42.900000000000006 18.6)"/><use xlink:href="#v" transform="matrix(1,0,0,1,1252,1501.699752053517) translate(77.9 18.6)"/><use xlink:href="#w" transform="matrix(1,0,0,1,1252,1618) translate(0 18.6)"/><path d="M2309 1510.1h-382.12" stroke="#3a414a" fill="none"/><path d="M2309.5 1510.57h-.5v-.95h.5z" stroke="#3a414a" stroke-width=".05" fill="#3a414a"/><path d="M1912.12 1510.1l14.26-4.64v9.27z" stroke="#3a414a" fill="#3a414a"/><use xlink:href="#l" transform="matrix(1,0,0,1,1960.7249907574464,1514.0977875946244) translate(0.0049999999999954525 14.4)"/><use xlink:href="#x" transform="matrix(1,0,0,1,1960.7249907574464,1514.0977875946244) translate(42.905 14.4)"/><use xlink:href="#y" transform="matrix(1,0,0,1,1960.7249907574464,1514.0977875946244) translate(95.855 14.4)"/><use xlink:href="#z" transform="matrix(1,0,0,1,1960.7249907574464,1514.0977875946244) translate(130.85500000000002 14.4)"/><use xlink:href="#A" transform="matrix(1,0,0,1,1960.7249907574464,1514.0977875946244) translate(225.70500000000004 14.4)"/><use xlink:href="#B" transform="matrix(1,0,0,1,1960.7249907574464,1514.0977875946244) translate(243.65500000000003 14.4)"/><path d="M1869 1540.7h-372.12" stroke="#3a414a" fill="none"/><path d="M1869.5 1541.2h-.5v-.96h.5z" stroke="#3a414a" stroke-width=".05" fill="#3a414a"/><path d="M1482.12 1540.7l14.27-4.62-.02 9.27z" stroke="#3a414a" fill="#3a414a"/><use xlink:href="#C" transform="matrix(1,0,0,1,1651.0250020317508,1544.7111246317033) translate(0.004999999999999005 14.4)"/><path d="M2309 1650.4h-382.12" stroke="#3a414a" fill="none"/><path d="M2309.5 1650.87h-.5v-.95h.5z" stroke="#3a414a" stroke-width=".05" fill="#3a414a"/><path d="M1912.12 1650.4l14.27-4.64-.02 9.27z" stroke="#3a414a" fill="#3a414a"/><use xlink:href="#l" transform="matrix(1,0,0,1,1938.7752431448475,1654.392047886971) translate(0.0049999999999954525 14.4)"/><use xlink:href="#D" transform="matrix(1,0,0,1,1938.7752431448475,1654.392047886971) translate(42.905 14.4)"/><use xlink:href="#E" transform="matrix(1,0,0,1,1938.7752431448475,1654.392047886971) translate(86.905 14.4)"/><use xlink:href="#F" transform="matrix(1,0,0,1,1938.7752431448475,1654.392047886971) translate(116.905 14.4)"/><use xlink:href="#G" transform="matrix(1,0,0,1,1938.7752431448475,1654.392047886971) translate(158.85500000000002 14.4)"/><use xlink:href="#H" transform="matrix(1,0,0,1,1938.7752431448475,1654.392047886971) translate(179.805 14.4)"/><use xlink:href="#I" transform="matrix(1,0,0,1,1938.7752431448475,1654.392047886971) translate(273.605 14.4)"/><path d="M1869 1666.58h-372.12" stroke="#3a414a" fill="none"/><path d="M1869.5 1667.05h-.5v-.95h.5z" stroke="#3a414a" stroke-width=".05" fill="#3a414a"/><path d="M1482.12 1666.57l14.27-4.63-.02 9.27z" stroke="#3a414a" fill="#3a414a"/><use xlink:href="#q" transform="matrix(1,0,0,1,1647.5999922400754,1670.5745355201634) translate(0.004999999999999005 14.4)"/><path d="M1481 1796.62h372.12" stroke="#3a414a" fill="none"/><path d="M1481 1797.1h-.5v-.96h.5z" stroke="#3a414a" stroke-width=".05" fill="#3a414a"/><path d="M1867.88 1796.62l-14.27 4.63.02-9.27z" stroke="#3a414a" fill="#3a414a"/><use xlink:href="#J" transform="matrix(1,0,0,1,1642.5248977534309,1771.0162973984127) translate(0.005000000000002558 14.4)"/><path d="M1911 1825.87h27.5a12 12 0 0 1 12 12V1848a12 12 0 0 1-12 12h-11.62" stroke="#3a414a" fill="none"/><path d="M1911 1826.34h-.5v-.95h.5z" stroke="#3a414a" stroke-width=".05" fill="#3a414a"/><path d="M1912.12 1860l14.26-4.62v9.27z" stroke="#3a414a" fill="#3a414a"/><use xlink:href="#s" transform="matrix(1,0,0,1,1958.499958414168,1832.1397388516993) translate(0.005000000000002558 14.4)"/><use xlink:href="#K" transform="matrix(1,0,0,1,1958.499958414168,1832.1397388516993) translate(49.905 14.4)"/><path d="M1911 1915.72h382.1" stroke="#3a414a" fill="none"/><path d="M1911 1916.2h-.5v-.96h.5z" stroke="#3a414a" stroke-width=".05" fill="#3a414a"/><path d="M2307.88 1915.72l-14.27 4.64v-9.27z" stroke="#3a414a" fill="#3a414a"/><use xlink:href="#L" transform="matrix(1,0,0,1,1987.5250126092237,1890.1204446764707) translate(0.0049999999999954525 14.4)"/><use xlink:href="#M" transform="matrix(1,0,0,1,1987.5250126092237,1890.1204446764707) translate(58.905 14.4)"/><use xlink:href="#N" transform="matrix(1,0,0,1,1987.5250126092237,1890.1204446764707) translate(99.155 14.4)"/><use xlink:href="#O" transform="matrix(1,0,0,1,1987.5250126092237,1890.1204446764707) translate(155.055 14.4)"/><use xlink:href="#E" transform="matrix(1,0,0,1,1987.5250126092237,1890.1204446764707) translate(169.005 14.4)"/><use xlink:href="#P" transform="matrix(1,0,0,1,1987.5250126092237,1890.1204446764707) translate(199.005 14.4)"/><path d="M2309 1969.63h-382.12" stroke="#3a414a" fill="none"/><path d="M2309.5 1970.1h-.5v-.94h.5z" stroke="#3a414a" stroke-width=".05" fill="#3a414a"/><path d="M1912.12 1969.63l14.27-4.63-.02 9.27z" stroke="#3a414a" fill="#3a414a"/><use xlink:href="#Q" transform="matrix(1,0,0,1,2034.9750113404898,1973.6322567280417) translate(0.0049999999999954525 14.4)"/><use xlink:href="#M" transform="matrix(1,0,0,1,2034.9750113404898,1973.6322567280417) translate(58.905 14.4)"/><use xlink:href="#R" transform="matrix(1,0,0,1,2034.9750113404898,1973.6322567280417) translate(99.155 14.4)"/><path d="M1869 2016.36h-372.12" stroke="#3a414a" fill="none"/><path d="M1869.5 2016.83h-.5v-.95h.5z" stroke="#3a414a" stroke-width=".05" fill="#3a414a"/><path d="M1482.12 2016.36l14.27-4.64-.02 9.27z" stroke="#3a414a" fill="#3a414a"/><use xlink:href="#S" transform="matrix(1,0,0,1,1629.5500096002147,2020.3557516946491) translate(0.005000000000002558 14.4)"/><use xlink:href="#T" transform="matrix(1,0,0,1,1629.5500096002147,2020.3557516946491) translate(47.955000000000005 14.4)"/><path d="M1481 2152.93h372.12" stroke="#3a414a" fill="none"/><path d="M1481 2153.4h-.5v-.94h.5z" stroke="#3a414a" stroke-width=".05" fill="#3a414a"/><path d="M1867.88 2152.93l-14.26 4.64v-9.27z" stroke="#3a414a" fill="#3a414a"/><use xlink:href="#U" transform="matrix(1,0,0,1,1622.0250412817938,2127.3315378759717) translate(0.005000000000002558 14.4)"/><path d="M1911 2188.87h27.5a12 12 0 0 1 12 12v29.9a12 12 0 0 1-12 12h-11.62" stroke="#3a414a" fill="none"/><path d="M1911 2189.35h-.5v-.95h.5z" stroke="#3a414a" stroke-width=".05" fill="#3a414a"/><path d="M1912.12 2242.78l14.26-4.63v9.27z" stroke="#3a414a" fill="#3a414a"/><use xlink:href="#s" transform="matrix(1,0,0,1,1958.4999814173539,2205.0289277618813) translate(0.005000000000002558 14.4)"/><use xlink:href="#K" transform="matrix(1,0,0,1,1958.4999814173539,2205.0289277618813) translate(49.905 14.4)"/><path d="M1911 2296.7h382.1" stroke="#3a414a" fill="none"/><path d="M1911 2297.17h-.5v-.95h.5z" stroke="#3a414a" stroke-width=".05" fill="#3a414a"/><path d="M2307.88 2296.7l-14.27 4.63v-9.27z" stroke="#3a414a" fill="#3a414a"/><use xlink:href="#V" transform="matrix(1,0,0,1,2044.5750291534375,2271.0961893772665) translate(0.0049999999999954525 14.4)"/><use xlink:href="#W" transform="matrix(1,0,0,1,2044.5750291534375,2271.0961893772665) translate(49.955 14.4)"/><use xlink:href="#X" transform="matrix(1,0,0,1,2044.5750291534375,2271.0961893772665) translate(94.955 14.4)"/><path d="M1240 2328a8 8 0 0 1 8-8h84a8 8 0 0 1 8 8v4.93a17.07 17.07 0 0 1-5 12.07 17.07 17.07 0 0 1-12.07 5H1248a8 8 0 0 1-8-8z" fill="#fff"/><path d="M1340 2320v20l-10 10h-90" stroke="#3a414a" fill="none"/><path d="M1240 2328a8 8 0 0 1 8-8h1204a8 8 0 0 1 8 8v185.54a8 8 0 0 1-8 8H1248a8 8 0 0 1-8-8zM1240 2420.77h20m15 0h20m15 0h20m15 0h20m15 0h20m15 0h20m15 0h20m15 0h20m15 0h20m15 0h20m15 0h20m15 0h20m15 0h20m15 0h20m15 0h20m15 0h20m15 0h20m15 0h20m15 0h20m15 0h20m15 0h20m15 0h20m15 0h20m15 0h20m15 0h20m15 0h20m15 0h20m15 0h20m15 0h20m15 0h20m15 0h20m15 0h20m15 0h20m15 0h20m15 0h20" stroke="#3a414a" fill="none"/><g><use xlink:href="#h" transform="matrix(1,0,0,1,1248,2320) translate(0 18.6)"/></g><g><use xlink:href="#Y" transform="matrix(1,0,0,1,1252,2358) translate(0 18.6)"/><use xlink:href="#Z" transform="matrix(1,0,0,1,1252,2358) translate(40.25 18.6)"/></g><g><use xlink:href="#w" transform="matrix(1,0,0,1,1252,2428.7687645297174) translate(0 18.6)"/></g><path d="M2309 2367.86h-382.12" stroke="#3a414a" fill="none"/><path d="M2309.5 2368.33h-.5v-.95h.5z" stroke="#3a414a" stroke-width=".05" fill="#3a414a"/><path d="M1912.12 2367.86l14.26-4.64v9.28z" stroke="#3a414a" fill="#3a414a"/><g><use xlink:href="#Q" transform="matrix(1,0,0,1,2040.100057441187,2371.8601907311872) translate(0.0049999999999954525 14.4)"/><use xlink:href="#W" transform="matrix(1,0,0,1,2040.100057441187,2371.8601907311872) translate(58.905 14.4)"/><use xlink:href="#X" transform="matrix(1,0,0,1,2040.100057441187,2371.8601907311872) translate(103.905 14.4)"/></g><path d="M2309 2473.53h-382.12" stroke="#3a414a" fill="none"/><path d="M2309.5 2474h-.5v-.95h.5z" stroke="#3a414a" stroke-width=".05" fill="#3a414a"/><path d="M1912.12 2473.53l14.26-4.64v9.26z" stroke="#3a414a" fill="#3a414a"/><g><use xlink:href="#aa" transform="matrix(1,0,0,1,2090.0751080484843,2477.5271723179744) translate(0.004999999999999005 14.4)"/></g><path d="M1869 2369.3h-372.12" stroke="#3a414a" fill="none"/><path d="M1869.5 2369.77h-.5v-.95h.5z" stroke="#3a414a" stroke-width=".05" fill="#3a414a"/><path d="M1482.12 2369.3l14.26-4.64v9.27z" stroke="#3a414a" fill="#3a414a"/><g><use xlink:href="#ab" transform="matrix(1,0,0,1,1588.625054187126,2373.2978013404404) translate(0.0049999999999954525 14.4)"/><use xlink:href="#ac" transform="matrix(1,0,0,1,1588.625054187126,2373.2978013404404) translate(71.855 14.4)"/><use xlink:href="#W" transform="matrix(1,0,0,1,1588.625054187126,2373.2978013404404) translate(91.855 14.4)"/><use xlink:href="#X" transform="matrix(1,0,0,1,1588.625054187126,2373.2978013404404) translate(136.85500000000002 14.4)"/></g><path d="M1869 2473.53h-372.12" stroke="#3a414a" fill="none"/><path d="M1869.5 2474h-.5v-.95h.5z" stroke="#3a414a" stroke-width=".05" fill="#3a414a"/><path d="M1482.12 2473.53l14.26-4.64v9.26z" stroke="#3a414a" fill="#3a414a"/><g><use xlink:href="#ad" transform="matrix(1,0,0,1,1633.050079897504,2477.5271301838366) translate(0.005000000000002558 14.4)"/><use xlink:href="#ae" transform="matrix(1,0,0,1,1633.050079897504,2477.5271301838366) translate(32.955000000000005 14.4)"/></g><path d="M1460 2561v10.57m0 10.56v21.14m0 10.56v21.14m0 10.56v21.14m0 10.56v21.14m0 10.56v10.57" stroke="#3a414a" fill="none"/><path d="M1460.47 2561h-.94v-.5h.94z" stroke="#3a414a" stroke-width=".05" fill="#3a414a"/><path d="M1460 2719.5v.5M1889.9 2561v10.57m0 10.56v21.14m0 10.56v21.14m0 10.56v21.14m0 10.56v21.14m0 10.56v10.57" stroke="#3a414a" fill="none"/><path d="M1890.38 2561h-.95v-.5h.95z" stroke="#3a414a" stroke-width=".05" fill="#3a414a"/><path d="M1889.9 2719.5v.5M2328.38 2561v10.57m0 10.56v21.14m0 10.56v21.14m0 10.56v21.14m0 10.56v21.14m0 10.56v10.57" stroke="#3a414a" fill="none"/><path d="M2328.86 2561h-.95v-.5h.96z" stroke="#3a414a" stroke-width=".05" fill="#3a414a"/><path d="M2328.38 2719.5v.5" stroke="#3a414a" fill="none"/><defs><path d="M232-93c-1 65-40 97-104 97C67 4 28-28 28-90v-158h33c8 89-33 224 67 224 102 0 64-133 71-224h33v155" id="af"/><path d="M135-143c-3-34-86-38-87 0 15 53 115 12 119 90S17 21 10-45l28-5c4 36 97 45 98 0-10-56-113-15-118-90-4-57 82-63 122-42 12 7 21 19 24 35" id="ag"/><path d="M100-194c63 0 86 42 84 106H49c0 40 14 67 53 68 26 1 43-12 49-29l28 8c-11 28-37 45-77 45C44 4 14-33 15-96c1-61 26-98 85-98zm52 81c6-60-76-77-97-28-3 7-6 17-6 28h103" id="ah"/><path d="M114-163C36-179 61-72 57 0H25l-1-190h30c1 12-1 29 2 39 6-27 23-49 58-41v29" id="ai"/><g id="a"><use transform="matrix(0.04938271604938272,0,0,0.04938271604938272,0,0)" xlink:href="#af"/><use transform="matrix(0.04938271604938272,0,0,0.04938271604938272,12.790123456790125,0)" xlink:href="#ag"/><use transform="matrix(0.04938271604938272,0,0,0.04938271604938272,21.679012345679013,0)" xlink:href="#ah"/><use transform="matrix(0.04938271604938272,0,0,0.04938271604938272,31.555555555555557,0)" xlink:href="#ai"/></g><path d="M185-189c-5-48-123-54-124 2 14 75 158 14 163 119 3 78-121 87-175 55-17-10-28-26-33-46l33-7c5 56 141 63 141-1 0-78-155-14-162-118-5-82 145-84 179-34 5 7 8 16 11 25" id="aj"/><path d="M108 0H70L1-190h34L89-25l56-165h34" id="ak"/><g id="b"><use transform="matrix(0.05,0,0,0.05,0,0)" xlink:href="#aj"/><use transform="matrix(0.05,0,0,0.05,12,0)" xlink:href="#ah"/><use transform="matrix(0.05,0,0,0.05,22,0)" xlink:href="#ai"/><use transform="matrix(0.05,0,0,0.05,27.950000000000003,0)" xlink:href="#ak"/><use transform="matrix(0.05,0,0,0.05,36.95,0)" xlink:href="#ah"/><use transform="matrix(0.05,0,0,0.05,46.95,0)" xlink:href="#ai"/><path d="M-.9 1.25h54.7v1.32H-.9z"/></g><path fill="#3a414a" d="M0 4l72-265h28L28 4H0" id="al"/><path fill="#3a414a" d="M114-163C36-179 61-72 57 0H25l-1-190h30c1 12-1 29 2 39 6-27 23-49 58-41v29" id="am"/><path fill="#3a414a" d="M100-194c63 0 86 42 84 106H49c0 40 14 67 53 68 26 1 43-12 49-29l28 8c-11 28-37 45-77 45C44 4 14-33 15-96c1-61 26-98 85-98zm52 81c6-60-76-77-97-28-3 7-6 17-6 28h103" id="an"/><path fill="#3a414a" d="M177-190C167-65 218 103 67 71c-23-6-38-20-44-43l32-5c15 47 100 32 89-28v-30C133-14 115 1 83 1 29 1 15-40 15-95c0-56 16-97 71-98 29-1 48 16 59 35 1-10 0-23 2-32h30zM94-22c36 0 50-32 50-73 0-42-14-75-50-75-39 0-46 34-46 75s6 73 46 73" id="ao"/><path fill="#3a414a" d="M24-231v-30h32v30H24zM24 0v-190h32V0H24" id="ap"/><path fill="#3a414a" d="M135-143c-3-34-86-38-87 0 15 53 115 12 119 90S17 21 10-45l28-5c4 36 97 45 98 0-10-56-113-15-118-90-4-57 82-63 122-42 12 7 21 19 24 35" id="aq"/><path fill="#3a414a" d="M59-47c-2 24 18 29 38 22v24C64 9 27 4 27-40v-127H5v-23h24l9-43h21v43h35v23H59v120" id="ar"/><g id="c"><use transform="matrix(0.05,0,0,0.05,0,0)" xlink:href="#al"/><use transform="matrix(0.05,0,0,0.05,5,0)" xlink:href="#am"/><use transform="matrix(0.05,0,0,0.05,10.95,0)" xlink:href="#an"/><use transform="matrix(0.05,0,0,0.05,20.95,0)" xlink:href="#ao"/><use transform="matrix(0.05,0,0,0.05,30.950000000000003,0)" xlink:href="#ap"/><use transform="matrix(0.05,0,0,0.05,34.9,0)" xlink:href="#aq"/><use transform="matrix(0.05,0,0,0.05,43.9,0)" xlink:href="#ar"/><use transform="matrix(0.05,0,0,0.05,48.9,0)" xlink:href="#an"/><use transform="matrix(0.05,0,0,0.05,58.900000000000006,0)" xlink:href="#am"/></g><path d="M30-248c118-7 216 8 213 122C240-48 200 0 122 0H30v-248zM63-27c89 8 146-16 146-99s-60-101-146-95v194" id="as"/><path d="M141-36C126-15 110 5 73 4 37 3 15-17 15-53c-1-64 63-63 125-63 3-35-9-54-41-54-24 1-41 7-42 31l-33-3c5-37 33-52 76-52 45 0 72 20 72 64v82c-1 20 7 32 28 27v20c-31 9-61-2-59-35zM48-53c0 20 12 33 32 33 41-3 63-29 60-74-43 2-92-5-92 41" id="at"/><path d="M59-47c-2 24 18 29 38 22v24C64 9 27 4 27-40v-127H5v-23h24l9-43h21v43h35v23H59v120" id="au"/><path d="M115-194c53 0 69 39 70 98 0 66-23 100-70 100C84 3 66-7 56-30L54 0H23l1-261h32v101c10-23 28-34 59-34zm-8 174c40 0 45-34 45-75 0-40-5-75-45-74-42 0-51 32-51 76 0 43 10 73 51 73" id="av"/><g id="d"><use transform="matrix(0.05,0,0,0.05,0,0)" xlink:href="#as"/><use transform="matrix(0.05,0,0,0.05,12.950000000000001,0)" xlink:href="#at"/><use transform="matrix(0.05,0,0,0.05,22.950000000000003,0)" xlink:href="#au"/><use transform="matrix(0.05,0,0,0.05,27.950000000000003,0)" xlink:href="#at"/><use transform="matrix(0.05,0,0,0.05,37.95,0)" xlink:href="#av"/><use transform="matrix(0.05,0,0,0.05,47.95,0)" xlink:href="#at"/><use transform="matrix(0.05,0,0,0.05,57.95,0)" xlink:href="#ag"/><use transform="matrix(0.05,0,0,0.05,66.95,0)" xlink:href="#ah"/><path d="M-.9 1.25h78.75v1.32H-.9z"/></g><path fill="#3a414a" d="M185-189c-5-48-123-54-124 2 14 75 158 14 163 119 3 78-121 87-175 55-17-10-28-26-33-46l33-7c5 56 141 63 141-1 0-78-155-14-162-118-5-82 145-84 179-34 5 7 8 16 11 25" id="aw"/><path fill="#3a414a" d="M117-194c89-4 53 116 60 194h-32v-121c0-31-8-49-39-48C34-167 62-67 57 0H25l-1-190h30c1 10-1 24 2 32 11-22 29-35 61-36" id="ax"/><path fill="#3a414a" d="M85-194c31 0 48 13 60 33l-1-100h32l1 261h-30c-2-10 0-23-3-31C134-8 116 4 85 4 32 4 16-35 15-94c0-66 23-100 70-100zm9 24c-40 0-46 34-46 75 0 40 6 74 45 74 42 0 51-32 51-76 0-42-9-74-50-73" id="ay"/><g id="e"><use transform="matrix(0.05,0,0,0.05,0,0)" xlink:href="#aw"/><use transform="matrix(0.05,0,0,0.05,12,0)" xlink:href="#an"/><use transform="matrix(0.05,0,0,0.05,22,0)" xlink:href="#ax"/><use transform="matrix(0.05,0,0,0.05,32,0)" xlink:href="#ay"/></g><path fill="#3a414a" d="M232-93c-1 65-40 97-104 97C67 4 28-28 28-90v-158h33c8 89-33 224 67 224 102 0 64-133 71-224h33v155" id="az"/><g id="f"><use transform="matrix(0.05,0,0,0.05,0,0)" xlink:href="#az"/><use transform="matrix(0.05,0,0,0.05,12.950000000000001,0)" xlink:href="#aq"/><use transform="matrix(0.05,0,0,0.05,21.950000000000003,0)" xlink:href="#an"/><use transform="matrix(0.05,0,0,0.05,31.950000000000003,0)" xlink:href="#am"/></g><path fill="#3a414a" d="M30-248c118-7 216 8 213 122C240-48 200 0 122 0H30v-248zM63-27c89 8 146-16 146-99s-60-101-146-95v194" id="aA"/><path fill="#3a414a" d="M141-36C126-15 110 5 73 4 37 3 15-17 15-53c-1-64 63-63 125-63 3-35-9-54-41-54-24 1-41 7-42 31l-33-3c5-37 33-52 76-52 45 0 72 20 72 64v82c-1 20 7 32 28 27v20c-31 9-61-2-59-35zM48-53c0 20 12 33 32 33 41-3 63-29 60-74-43 2-92-5-92 41" id="aB"/><g id="g"><use transform="matrix(0.05,0,0,0.05,0,0)" xlink:href="#aA"/><use transform="matrix(0.05,0,0,0.05,12.950000000000001,0)" xlink:href="#aB"/><use transform="matrix(0.05,0,0,0.05,22.950000000000003,0)" xlink:href="#ar"/><use transform="matrix(0.05,0,0,0.05,27.950000000000003,0)" xlink:href="#aB"/></g><path d="M205 0l-28-72H64L36 0H1l101-248h38L239 0h-34zm-38-99l-47-123c-12 45-31 82-46 123h93" id="aC"/><path d="M24 0v-261h32V0H24" id="aD"/><path d="M117-194c89-4 53 116 60 194h-32v-121c0-31-8-49-39-48C34-167 62-67 57 0H25l-1-190h30c1 10-1 24 2 32 11-22 29-35 61-36" id="aE"/><path d="M24-231v-30h32v30H24zM24 0v-190h32V0H24" id="aF"/><g id="h"><use transform="matrix(0.05,0,0,0.05,0,0)" xlink:href="#aC"/><use transform="matrix(0.05,0,0,0.05,12,0)" xlink:href="#aD"/><use transform="matrix(0.05,0,0,0.05,15.949999999999998,0)" xlink:href="#au"/><use transform="matrix(0.05,0,0,0.05,20.95,0)" xlink:href="#ah"/><use transform="matrix(0.05,0,0,0.05,30.950000000000003,0)" xlink:href="#ai"/><use transform="matrix(0.05,0,0,0.05,36.9,0)" xlink:href="#aE"/><use transform="matrix(0.05,0,0,0.05,46.9,0)" xlink:href="#at"/><use transform="matrix(0.05,0,0,0.05,56.900000000000006,0)" xlink:href="#au"/><use transform="matrix(0.05,0,0,0.05,61.900000000000006,0)" xlink:href="#aF"/><use transform="matrix(0.05,0,0,0.05,65.85,0)" xlink:href="#ak"/><use transform="matrix(0.05,0,0,0.05,74.85,0)" xlink:href="#ah"/></g><path d="M190 0L58-211 59 0H30v-248h39L202-35l-2-213h31V0h-41" id="aG"/><path d="M206 0h-36l-40-164L89 0H53L-1-190h32L70-26l43-164h34l41 164 42-164h31" id="aH"/><g id="i"><use transform="matrix(0.05,0,0,0.05,0,0)" xlink:href="#aG"/><use transform="matrix(0.05,0,0,0.05,12.950000000000001,0)" xlink:href="#ah"/><use transform="matrix(0.05,0,0,0.05,22.950000000000003,0)" xlink:href="#aH"/></g><g id="j"><use transform="matrix(0.05,0,0,0.05,0,0)" xlink:href="#af"/><use transform="matrix(0.05,0,0,0.05,12.950000000000001,0)" xlink:href="#ag"/><use transform="matrix(0.05,0,0,0.05,21.950000000000003,0)" xlink:href="#ah"/><use transform="matrix(0.05,0,0,0.05,31.950000000000003,0)" xlink:href="#ai"/></g><path d="M140-251c81 0 123 46 123 126C263-46 219 4 140 4 59 4 17-45 17-125s42-126 123-126zm0 227c63 0 89-41 89-101s-29-99-89-99c-61 0-89 39-89 99S79-25 140-24" id="aI"/><path d="M85-194c31 0 48 13 60 33l-1-100h32l1 261h-30c-2-10 0-23-3-31C134-8 116 4 85 4 32 4 16-35 15-94c0-66 23-100 70-100zm9 24c-40 0-46 34-46 75 0 40 6 74 45 74 42 0 51-32 51-76 0-42-9-74-50-73" id="aJ"/><g id="k"><use transform="matrix(0.05,0,0,0.05,0,0)" xlink:href="#aI"/><use transform="matrix(0.05,0,0,0.05,14,0)" xlink:href="#aD"/><use transform="matrix(0.05,0,0,0.05,17.95,0)" xlink:href="#aJ"/></g><g id="l"><use transform="matrix(0.05,0,0,0.05,0,0)" xlink:href="#az"/><use transform="matrix(0.05,0,0,0.05,12.950000000000001,0)" xlink:href="#aq"/><use transform="matrix(0.05,0,0,0.05,21.950000000000003,0)" xlink:href="#an"/><use transform="matrix(0.05,0,0,0.05,31.950000000000003,0)" xlink:href="#am"/></g><path fill="#3a414a" d="M212-179c-10-28-35-45-73-45-59 0-87 40-87 99 0 60 29 101 89 101 43 0 62-24 78-52l27 14C228-24 195 4 139 4 59 4 22-46 18-125c-6-104 99-153 187-111 19 9 31 26 39 46" id="aK"/><g id="m"><use transform="matrix(0.05,0,0,0.05,0,0)" xlink:href="#aK"/><use transform="matrix(0.05,0,0,0.05,12.950000000000001,0)" xlink:href="#am"/><use transform="matrix(0.05,0,0,0.05,18.900000000000002,0)" xlink:href="#an"/><use transform="matrix(0.05,0,0,0.05,28.900000000000002,0)" xlink:href="#aB"/><use transform="matrix(0.05,0,0,0.05,38.900000000000006,0)" xlink:href="#ar"/><use transform="matrix(0.05,0,0,0.05,43.900000000000006,0)" xlink:href="#an"/><use transform="matrix(0.05,0,0,0.05,53.900000000000006,0)" xlink:href="#ay"/></g><path fill="#3a414a" d="M84 4C-5 8 30-112 23-190h32v120c0 31 7 50 39 49 72-2 45-101 50-169h31l1 190h-30c-1-10 1-25-2-33-11 22-28 36-60 37" id="aL"/><path fill="#3a414a" d="M96-169c-40 0-48 33-48 73s9 75 48 75c24 0 41-14 43-38l32 2c-6 37-31 61-74 61-59 0-76-41-82-99-10-93 101-131 147-64 4 7 5 14 7 22l-32 3c-4-21-16-35-41-35" id="aM"/><g id="n"><use transform="matrix(0.05,0,0,0.05,0,0)" xlink:href="#aw"/><use transform="matrix(0.05,0,0,0.05,12,0)" xlink:href="#aL"/><use transform="matrix(0.05,0,0,0.05,22,0)" xlink:href="#aM"/><use transform="matrix(0.05,0,0,0.05,31,0)" xlink:href="#aM"/><use transform="matrix(0.05,0,0,0.05,40,0)" xlink:href="#an"/><use transform="matrix(0.05,0,0,0.05,50,0)" xlink:href="#aq"/><use transform="matrix(0.05,0,0,0.05,59,0)" xlink:href="#aq"/></g><path fill="#3a414a" d="M205 0l-28-72H64L36 0H1l101-248h38L239 0h-34zm-38-99l-47-123c-12 45-31 82-46 123h93" id="aN"/><path fill="#3a414a" d="M24 0v-261h32V0H24" id="aO"/><path fill="#3a414a" d="M179-190L93 31C79 59 56 82 12 73V49c39 6 53-20 64-50L1-190h34L92-34l54-156h33" id="aP"/><g id="o"><use transform="matrix(0.05,0,0,0.05,0,0)" xlink:href="#aN"/><use transform="matrix(0.05,0,0,0.05,12,0)" xlink:href="#aO"/><use transform="matrix(0.05,0,0,0.05,15.949999999999998,0)" xlink:href="#am"/><use transform="matrix(0.05,0,0,0.05,21.9,0)" xlink:href="#an"/><use transform="matrix(0.05,0,0,0.05,31.899999999999995,0)" xlink:href="#aB"/><use transform="matrix(0.05,0,0,0.05,41.9,0)" xlink:href="#ay"/><use transform="matrix(0.05,0,0,0.05,51.900000000000006,0)" xlink:href="#aP"/></g><path fill="#3a414a" d="M30 0v-248h187v28H63v79h144v27H63v87h162V0H30" id="aQ"/><path fill="#3a414a" d="M141 0L90-78 38 0H4l68-98-65-92h35l48 74 47-74h35l-64 92 68 98h-35" id="aR"/><g id="p"><use transform="matrix(0.05,0,0,0.05,0,0)" xlink:href="#aQ"/><use transform="matrix(0.05,0,0,0.05,12,0)" xlink:href="#aR"/><use transform="matrix(0.05,0,0,0.05,21,0)" xlink:href="#ap"/><use transform="matrix(0.05,0,0,0.05,24.95,0)" xlink:href="#aq"/><use transform="matrix(0.05,0,0,0.05,33.95,0)" xlink:href="#ar"/><use transform="matrix(0.05,0,0,0.05,38.95,0)" xlink:href="#aq"/></g><path fill="#3a414a" d="M63-220v92h138v28H63V0H30v-248h175v28H63" id="aS"/><g id="q"><use transform="matrix(0.05,0,0,0.05,0,0)" xlink:href="#aS"/><use transform="matrix(0.05,0,0,0.05,10.950000000000001,0)" xlink:href="#aB"/><use transform="matrix(0.05,0,0,0.05,20.950000000000003,0)" xlink:href="#ap"/><use transform="matrix(0.05,0,0,0.05,24.900000000000002,0)" xlink:href="#aO"/><use transform="matrix(0.05,0,0,0.05,28.85,0)" xlink:href="#aL"/><use transform="matrix(0.05,0,0,0.05,38.85,0)" xlink:href="#am"/><use transform="matrix(0.05,0,0,0.05,44.800000000000004,0)" xlink:href="#an"/></g><path fill="#3a414a" d="M100-194c62-1 85 37 85 99 1 63-27 99-86 99S16-35 15-95c0-66 28-99 85-99zM99-20c44 1 53-31 53-75 0-43-8-75-51-75s-53 32-53 75 10 74 51 75" id="aT"/><g id="r"><use transform="matrix(0.05,0,0,0.05,0,0)" xlink:href="#al"/><use transform="matrix(0.05,0,0,0.05,5,0)" xlink:href="#aO"/><use transform="matrix(0.05,0,0,0.05,8.95,0)" xlink:href="#aT"/><use transform="matrix(0.05,0,0,0.05,18.95,0)" xlink:href="#ao"/><use transform="matrix(0.05,0,0,0.05,28.950000000000003,0)" xlink:href="#ap"/><use transform="matrix(0.05,0,0,0.05,32.9,0)" xlink:href="#ax"/></g><path fill="#3a414a" d="M137 0h-34L2-248h35l83 218 83-218h36" id="aU"/><path fill="#3a414a" d="M101-234c-31-9-42 10-38 44h38v23H63V0H32v-167H5v-23h27c-7-52 17-82 69-68v24" id="aV"/><g id="s"><use transform="matrix(0.05,0,0,0.05,0,0)" xlink:href="#aU"/><use transform="matrix(0.05,0,0,0.05,11,0)" xlink:href="#an"/><use transform="matrix(0.05,0,0,0.05,21,0)" xlink:href="#am"/><use transform="matrix(0.05,0,0,0.05,26.950000000000003,0)" xlink:href="#ap"/><use transform="matrix(0.05,0,0,0.05,30.899999999999995,0)" xlink:href="#aV"/><use transform="matrix(0.05,0,0,0.05,35.9,0)" xlink:href="#aP"/></g><g id="t"><use transform="matrix(0.05,0,0,0.05,0,0)" xlink:href="#af"/><use transform="matrix(0.05,0,0,0.05,12.950000000000001,0)" xlink:href="#ag"/><use transform="matrix(0.05,0,0,0.05,21.950000000000003,0)" xlink:href="#ah"/><use transform="matrix(0.05,0,0,0.05,31.950000000000003,0)" xlink:href="#ai"/></g><path d="M33 0v-248h34V0H33" id="aW"/><path d="M101-234c-31-9-42 10-38 44h38v23H63V0H32v-167H5v-23h27c-7-52 17-82 69-68v24" id="aX"/><path d="M100-194c62-1 85 37 85 99 1 63-27 99-86 99S16-35 15-95c0-66 28-99 85-99zM99-20c44 1 53-31 53-75 0-43-8-75-51-75s-53 32-53 75 10 74 51 75" id="aY"/><g id="u"><use transform="matrix(0.05,0,0,0.05,0,0)" xlink:href="#aW"/><use transform="matrix(0.05,0,0,0.05,5,0)" xlink:href="#aE"/><use transform="matrix(0.05,0,0,0.05,15,0)" xlink:href="#aX"/><use transform="matrix(0.05,0,0,0.05,20,0)" xlink:href="#aY"/></g><path d="M212-179c-10-28-35-45-73-45-59 0-87 40-87 99 0 60 29 101 89 101 43 0 62-24 78-52l27 14C228-24 195 4 139 4 59 4 22-46 18-125c-6-104 99-153 187-111 19 9 31 26 39 46" id="aZ"/><path d="M96-169c-40 0-48 33-48 73s9 75 48 75c24 0 41-14 43-38l32 2c-6 37-31 61-74 61-59 0-76-41-82-99-10-93 101-131 147-64 4 7 5 14 7 22l-32 3c-4-21-16-35-41-35" id="ba"/><g id="v"><use transform="matrix(0.05,0,0,0.05,0,0)" xlink:href="#aZ"/><use transform="matrix(0.05,0,0,0.05,12.950000000000001,0)" xlink:href="#aY"/><use transform="matrix(0.05,0,0,0.05,22.950000000000003,0)" xlink:href="#ai"/><use transform="matrix(0.05,0,0,0.05,28.900000000000002,0)" xlink:href="#ai"/><use transform="matrix(0.05,0,0,0.05,34.85,0)" xlink:href="#ah"/><use transform="matrix(0.05,0,0,0.05,44.85,0)" xlink:href="#ba"/><use transform="matrix(0.05,0,0,0.05,53.85,0)" xlink:href="#au"/></g><path d="M26 75v-336h71v23H56V52h41v23H26" id="bb"/><path d="M30 0v-248h187v28H63v79h144v27H63v87h162V0H30" id="bc"/><path d="M3 75V52h41v-290H3v-23h71V75H3" id="bd"/><g id="w"><use transform="matrix(0.05,0,0,0.05,0,0)" xlink:href="#bb"/><use transform="matrix(0.05,0,0,0.05,5,0)" xlink:href="#bc"/><use transform="matrix(0.05,0,0,0.05,17,0)" xlink:href="#aD"/><use transform="matrix(0.05,0,0,0.05,20.95,0)" xlink:href="#ag"/><use transform="matrix(0.05,0,0,0.05,29.950000000000003,0)" xlink:href="#ah"/><use transform="matrix(0.05,0,0,0.05,39.95,0)" xlink:href="#bd"/></g><g id="x"><use transform="matrix(0.05,0,0,0.05,0,0)" xlink:href="#aQ"/><use transform="matrix(0.05,0,0,0.05,12,0)" xlink:href="#aR"/><use transform="matrix(0.05,0,0,0.05,21,0)" xlink:href="#ap"/><use transform="matrix(0.05,0,0,0.05,24.95,0)" xlink:href="#aq"/><use transform="matrix(0.05,0,0,0.05,33.95,0)" xlink:href="#ar"/><use transform="matrix(0.05,0,0,0.05,38.95,0)" xlink:href="#aq"/></g><g id="y"><use transform="matrix(0.05,0,0,0.05,0,0)" xlink:href="#aB"/><use transform="matrix(0.05,0,0,0.05,10,0)" xlink:href="#ax"/><use transform="matrix(0.05,0,0,0.05,20,0)" xlink:href="#ay"/></g><path fill="#3a414a" d="M33 0v-248h34V0H33" id="be"/><path fill="#3a414a" d="M210-169c-67 3-38 105-44 169h-31v-121c0-29-5-50-35-48C34-165 62-65 56 0H25l-1-190h30c1 10-1 24 2 32 10-44 99-50 107 0 11-21 27-35 58-36 85-2 47 119 55 194h-31v-121c0-29-5-49-35-48" id="bf"/><g id="z"><use transform="matrix(0.05,0,0,0.05,0,0)" xlink:href="#be"/><use transform="matrix(0.05,0,0,0.05,5,0)" xlink:href="#ax"/><use transform="matrix(0.05,0,0,0.05,15,0)" xlink:href="#aV"/><use transform="matrix(0.05,0,0,0.05,20,0)" xlink:href="#aT"/><use transform="matrix(0.05,0,0,0.05,30,0)" xlink:href="#am"/><use transform="matrix(0.05,0,0,0.05,35.95,0)" xlink:href="#bf"/><use transform="matrix(0.05,0,0,0.05,50.900000000000006,0)" xlink:href="#aB"/><use transform="matrix(0.05,0,0,0.05,60.900000000000006,0)" xlink:href="#ar"/><use transform="matrix(0.05,0,0,0.05,65.9,0)" xlink:href="#ap"/><use transform="matrix(0.05,0,0,0.05,69.85000000000001,0)" xlink:href="#aT"/><use transform="matrix(0.05,0,0,0.05,79.85000000000001,0)" xlink:href="#ax"/></g><g id="A"><use transform="matrix(0.05,0,0,0.05,0,0)" xlink:href="#ap"/><use transform="matrix(0.05,0,0,0.05,3.95,0)" xlink:href="#aq"/></g><g id="B"><use transform="matrix(0.05,0,0,0.05,0,0)" xlink:href="#aM"/><use transform="matrix(0.05,0,0,0.05,9,0)" xlink:href="#aT"/><use transform="matrix(0.05,0,0,0.05,19,0)" xlink:href="#am"/><use transform="matrix(0.05,0,0,0.05,24.95,0)" xlink:href="#am"/><use transform="matrix(0.05,0,0,0.05,30.899999999999995,0)" xlink:href="#an"/><use transform="matrix(0.05,0,0,0.05,40.9,0)" xlink:href="#aM"/><use transform="matrix(0.05,0,0,0.05,49.9,0)" xlink:href="#ar"/></g><path fill="#3a414a" d="M127-220V0H93v-220H8v-28h204v28h-85" id="bg"/><path fill="#3a414a" d="M143 0L79-87 56-68V0H24v-261h32v163l83-92h37l-77 82L181 0h-38" id="bh"/><g id="C"><use transform="matrix(0.05,0,0,0.05,0,0)" xlink:href="#bg"/><use transform="matrix(0.05,0,0,0.05,8.950000000000001,0)" xlink:href="#aT"/><use transform="matrix(0.05,0,0,0.05,18.950000000000003,0)" xlink:href="#bh"/><use transform="matrix(0.05,0,0,0.05,27.950000000000003,0)" xlink:href="#an"/><use transform="matrix(0.05,0,0,0.05,37.95,0)" xlink:href="#ax"/></g><g id="D"><use transform="matrix(0.05,0,0,0.05,0,0)" xlink:href="#ay"/><use transform="matrix(0.05,0,0,0.05,10,0)" xlink:href="#aT"/><use transform="matrix(0.05,0,0,0.05,20,0)" xlink:href="#an"/><use transform="matrix(0.05,0,0,0.05,30,0)" xlink:href="#aq"/></g><g id="E"><use transform="matrix(0.05,0,0,0.05,0,0)" xlink:href="#ax"/><use transform="matrix(0.05,0,0,0.05,10,0)" xlink:href="#aT"/><use transform="matrix(0.05,0,0,0.05,20,0)" xlink:href="#ar"/></g><g id="F"><use transform="matrix(0.05,0,0,0.05,0,0)" xlink:href="#an"/><use transform="matrix(0.05,0,0,0.05,10,0)" xlink:href="#aR"/><use transform="matrix(0.05,0,0,0.05,19,0)" xlink:href="#ap"/><use transform="matrix(0.05,0,0,0.05,22.95,0)" xlink:href="#aq"/><use transform="matrix(0.05,0,0,0.05,31.950000000000003,0)" xlink:href="#ar"/></g><g id="G"><use transform="matrix(0.05,0,0,0.05,0,0)" xlink:href="#aT"/><use transform="matrix(0.05,0,0,0.05,10,0)" xlink:href="#am"/></g><g id="H"><use transform="matrix(0.05,0,0,0.05,0,0)" xlink:href="#ap"/><use transform="matrix(0.05,0,0,0.05,3.95,0)" xlink:href="#ax"/><use transform="matrix(0.05,0,0,0.05,13.949999999999998,0)" xlink:href="#aV"/><use transform="matrix(0.05,0,0,0.05,18.95,0)" xlink:href="#aT"/><use transform="matrix(0.05,0,0,0.05,28.950000000000003,0)" xlink:href="#am"/><use transform="matrix(0.05,0,0,0.05,34.9,0)" xlink:href="#bf"/><use transform="matrix(0.05,0,0,0.05,49.85,0)" xlink:href="#aB"/><use transform="matrix(0.05,0,0,0.05,59.85,0)" xlink:href="#ar"/><use transform="matrix(0.05,0,0,0.05,64.85,0)" xlink:href="#ap"/><use transform="matrix(0.05,0,0,0.05,68.8,0)" xlink:href="#aT"/><use transform="matrix(0.05,0,0,0.05,78.8,0)" xlink:href="#ax"/></g><g id="I"><use transform="matrix(0.05,0,0,0.05,0,0)" xlink:href="#ap"/><use transform="matrix(0.05,0,0,0.05,3.95,0)" xlink:href="#ax"/><use transform="matrix(0.05,0,0,0.05,13.949999999999998,0)" xlink:href="#aM"/><use transform="matrix(0.05,0,0,0.05,22.95,0)" xlink:href="#aT"/><use transform="matrix(0.05,0,0,0.05,32.95,0)" xlink:href="#am"/><use transform="matrix(0.05,0,0,0.05,38.900000000000006,0)" xlink:href="#am"/><use transform="matrix(0.05,0,0,0.05,44.85000000000001,0)" xlink:href="#an"/><use transform="matrix(0.05,0,0,0.05,54.85,0)" xlink:href="#aM"/><use transform="matrix(0.05,0,0,0.05,63.85,0)" xlink:href="#ar"/></g><path fill="#3a414a" d="M106-169C34-169 62-67 57 0H25v-261h32l-1 103c12-21 28-36 61-36 89 0 53 116 60 194h-32v-121c2-32-8-49-39-48" id="bi"/><g id="J"><use transform="matrix(0.05,0,0,0.05,0,0)" xlink:href="#al"/><use transform="matrix(0.05,0,0,0.05,5,0)" xlink:href="#aq"/><use transform="matrix(0.05,0,0,0.05,14,0)" xlink:href="#bi"/><use transform="matrix(0.05,0,0,0.05,24,0)" xlink:href="#aT"/><use transform="matrix(0.05,0,0,0.05,34,0)" xlink:href="#am"/><use transform="matrix(0.05,0,0,0.05,39.95,0)" xlink:href="#ar"/><use transform="matrix(0.05,0,0,0.05,44.95,0)" xlink:href="#an"/><use transform="matrix(0.05,0,0,0.05,54.95,0)" xlink:href="#ax"/></g><g id="K"><use transform="matrix(0.05,0,0,0.05,0,0)" xlink:href="#bg"/><use transform="matrix(0.05,0,0,0.05,8.950000000000001,0)" xlink:href="#aT"/><use transform="matrix(0.05,0,0,0.05,18.950000000000003,0)" xlink:href="#bh"/><use transform="matrix(0.05,0,0,0.05,27.950000000000003,0)" xlink:href="#an"/><use transform="matrix(0.05,0,0,0.05,37.95,0)" xlink:href="#ax"/></g><g id="L"><use transform="matrix(0.05,0,0,0.05,0,0)" xlink:href="#aK"/><use transform="matrix(0.05,0,0,0.05,12.950000000000001,0)" xlink:href="#am"/><use transform="matrix(0.05,0,0,0.05,18.900000000000002,0)" xlink:href="#an"/><use transform="matrix(0.05,0,0,0.05,28.900000000000002,0)" xlink:href="#aB"/><use transform="matrix(0.05,0,0,0.05,38.900000000000006,0)" xlink:href="#ar"/><use transform="matrix(0.05,0,0,0.05,43.900000000000006,0)" xlink:href="#an"/></g><path fill="#3a414a" d="M233-177c-1 41-23 64-60 70L243 0h-38l-65-103H63V0H30v-248c88 3 205-21 203 71zM63-129c60-2 137 13 137-47 0-61-80-42-137-45v92" id="bj"/><path fill="#3a414a" d="M30 0v-248h33v221h125V0H30" id="bk"/><g id="M"><use transform="matrix(0.05,0,0,0.05,0,0)" xlink:href="#az"/><use transform="matrix(0.05,0,0,0.05,12.950000000000001,0)" xlink:href="#bj"/><use transform="matrix(0.05,0,0,0.05,25.900000000000002,0)" xlink:href="#bk"/></g><g id="N"><use transform="matrix(0.05,0,0,0.05,0,0)" xlink:href="#am"/><use transform="matrix(0.05,0,0,0.05,5.95,0)" xlink:href="#an"/><use transform="matrix(0.05,0,0,0.05,15.949999999999998,0)" xlink:href="#aM"/><use transform="matrix(0.05,0,0,0.05,24.95,0)" xlink:href="#aT"/><use transform="matrix(0.05,0,0,0.05,34.95,0)" xlink:href="#am"/><use transform="matrix(0.05,0,0,0.05,40.900000000000006,0)" xlink:href="#ay"/></g><g id="O"><use transform="matrix(0.05,0,0,0.05,0,0)" xlink:href="#ap"/><use transform="matrix(0.05,0,0,0.05,3.95,0)" xlink:href="#aV"/></g><g id="P"><use transform="matrix(0.05,0,0,0.05,0,0)" xlink:href="#an"/><use transform="matrix(0.05,0,0,0.05,10,0)" xlink:href="#aR"/><use transform="matrix(0.05,0,0,0.05,19,0)" xlink:href="#ap"/><use transform="matrix(0.05,0,0,0.05,22.95,0)" xlink:href="#aq"/><use transform="matrix(0.05,0,0,0.05,31.950000000000003,0)" xlink:href="#ar"/><use transform="matrix(0.05,0,0,0.05,36.95,0)" xlink:href="#aq"/></g><g id="Q"><use transform="matrix(0.05,0,0,0.05,0,0)" xlink:href="#bj"/><use transform="matrix(0.05,0,0,0.05,12.950000000000001,0)" xlink:href="#an"/><use transform="matrix(0.05,0,0,0.05,22.950000000000003,0)" xlink:href="#ar"/><use transform="matrix(0.05,0,0,0.05,27.950000000000003,0)" xlink:href="#aL"/><use transform="matrix(0.05,0,0,0.05,37.95,0)" xlink:href="#am"/><use transform="matrix(0.05,0,0,0.05,43.900000000000006,0)" xlink:href="#ax"/></g><g id="R"><use transform="matrix(0.05,0,0,0.05,0,0)" xlink:href="#am"/><use transform="matrix(0.05,0,0,0.05,5.95,0)" xlink:href="#an"/><use transform="matrix(0.05,0,0,0.05,15.949999999999998,0)" xlink:href="#aM"/><use transform="matrix(0.05,0,0,0.05,24.95,0)" xlink:href="#aT"/><use transform="matrix(0.05,0,0,0.05,34.95,0)" xlink:href="#am"/><use transform="matrix(0.05,0,0,0.05,40.900000000000006,0)" xlink:href="#ay"/></g><g id="S"><use transform="matrix(0.05,0,0,0.05,0,0)" xlink:href="#aw"/><use transform="matrix(0.05,0,0,0.05,12,0)" xlink:href="#bi"/><use transform="matrix(0.05,0,0,0.05,22,0)" xlink:href="#aT"/><use transform="matrix(0.05,0,0,0.05,32,0)" xlink:href="#am"/><use transform="matrix(0.05,0,0,0.05,37.95,0)" xlink:href="#ar"/></g><g id="T"><use transform="matrix(0.05,0,0,0.05,0,0)" xlink:href="#aK"/><use transform="matrix(0.05,0,0,0.05,12.950000000000001,0)" xlink:href="#aT"/><use transform="matrix(0.05,0,0,0.05,22.950000000000003,0)" xlink:href="#ay"/><use transform="matrix(0.05,0,0,0.05,32.95,0)" xlink:href="#an"/></g><path fill="#3a414a" d="M39-94c74 12-11 154 75 146v23c-44 4-70-10-70-52C44-23 55-84 6-82v-22c81 4-7-162 84-157h24v23c-82-15-2 131-75 144" id="bl"/><path fill="#3a414a" d="M-5 72V49h209v23H-5" id="bm"/><path fill="#3a414a" d="M76-40C78 24 84 88 6 75V52C86 64 9-79 80-94c-40-6-34-59-34-106 1-29-11-41-40-38v-23c44-4 70 10 70 52 0 47-12 108 38 105v22c-26 1-39 14-38 42" id="bn"/><g id="U"><use transform="matrix(0.05,0,0,0.05,0,0)" xlink:href="#al"/><use transform="matrix(0.05,0,0,0.05,5,0)" xlink:href="#bl"/><use transform="matrix(0.05,0,0,0.05,11,0)" xlink:href="#aq"/><use transform="matrix(0.05,0,0,0.05,20,0)" xlink:href="#bi"/><use transform="matrix(0.05,0,0,0.05,30,0)" xlink:href="#aT"/><use transform="matrix(0.05,0,0,0.05,40,0)" xlink:href="#am"/><use transform="matrix(0.05,0,0,0.05,45.95,0)" xlink:href="#ar"/><use transform="matrix(0.05,0,0,0.05,50.95,0)" xlink:href="#bm"/><use transform="matrix(0.05,0,0,0.05,60.95,0)" xlink:href="#aM"/><use transform="matrix(0.05,0,0,0.05,69.95,0)" xlink:href="#aT"/><use transform="matrix(0.05,0,0,0.05,79.95,0)" xlink:href="#ay"/><use transform="matrix(0.05,0,0,0.05,89.95,0)" xlink:href="#an"/><use transform="matrix(0.05,0,0,0.05,99.95,0)" xlink:href="#bn"/></g><g id="V"><use transform="matrix(0.05,0,0,0.05,0,0)" xlink:href="#aS"/><use transform="matrix(0.05,0,0,0.05,10.950000000000001,0)" xlink:href="#an"/><use transform="matrix(0.05,0,0,0.05,20.950000000000003,0)" xlink:href="#ar"/><use transform="matrix(0.05,0,0,0.05,25.950000000000003,0)" xlink:href="#aM"/><use transform="matrix(0.05,0,0,0.05,34.95,0)" xlink:href="#bi"/></g><g id="W"><use transform="matrix(0.05,0,0,0.05,0,0)" xlink:href="#bk"/><use transform="matrix(0.05,0,0,0.05,10,0)" xlink:href="#aT"/><use transform="matrix(0.05,0,0,0.05,20,0)" xlink:href="#ax"/><use transform="matrix(0.05,0,0,0.05,30,0)" xlink:href="#ao"/></g><g id="X"><use transform="matrix(0.05,0,0,0.05,0,0)" xlink:href="#az"/><use transform="matrix(0.05,0,0,0.05,12.950000000000001,0)" xlink:href="#bj"/><use transform="matrix(0.05,0,0,0.05,25.900000000000002,0)" xlink:href="#bk"/></g><path d="M233-177c-1 41-23 64-60 70L243 0h-38l-65-103H63V0H30v-248c88 3 205-21 203 71zM63-129c60-2 137 13 137-47 0-61-80-42-137-45v92" id="bo"/><path d="M30 0v-248h33v221h125V0H30" id="bp"/><g id="Y"><use transform="matrix(0.05,0,0,0.05,0,0)" xlink:href="#af"/><use transform="matrix(0.05,0,0,0.05,12.950000000000001,0)" xlink:href="#bo"/><use transform="matrix(0.05,0,0,0.05,25.900000000000002,0)" xlink:href="#bp"/></g><path d="M141 0L90-78 38 0H4l68-98-65-92h35l48 74 47-74h35l-64 92 68 98h-35" id="bq"/><g id="Z"><use transform="matrix(0.05,0,0,0.05,0,0)" xlink:href="#ah"/><use transform="matrix(0.05,0,0,0.05,10,0)" xlink:href="#bq"/><use transform="matrix(0.05,0,0,0.05,19,0)" xlink:href="#aF"/><use transform="matrix(0.05,0,0,0.05,22.95,0)" xlink:href="#ag"/><use transform="matrix(0.05,0,0,0.05,31.950000000000003,0)" xlink:href="#au"/><use transform="matrix(0.05,0,0,0.05,36.95,0)" xlink:href="#ag"/></g><g id="aa"><use transform="matrix(0.05,0,0,0.05,0,0)" xlink:href="#aQ"/><use transform="matrix(0.05,0,0,0.05,12,0)" xlink:href="#am"/><use transform="matrix(0.05,0,0,0.05,17.95,0)" xlink:href="#am"/><use transform="matrix(0.05,0,0,0.05,23.9,0)" xlink:href="#aT"/><use transform="matrix(0.05,0,0,0.05,33.9,0)" xlink:href="#am"/></g><g id="ab"><use transform="matrix(0.05,0,0,0.05,0,0)" xlink:href="#bj"/><use transform="matrix(0.05,0,0,0.05,12.950000000000001,0)" xlink:href="#an"/><use transform="matrix(0.05,0,0,0.05,22.950000000000003,0)" xlink:href="#ay"/><use transform="matrix(0.05,0,0,0.05,32.95,0)" xlink:href="#ap"/><use transform="matrix(0.05,0,0,0.05,36.900000000000006,0)" xlink:href="#am"/><use transform="matrix(0.05,0,0,0.05,42.85000000000001,0)" xlink:href="#an"/><use transform="matrix(0.05,0,0,0.05,52.85,0)" xlink:href="#aM"/><use transform="matrix(0.05,0,0,0.05,61.85,0)" xlink:href="#ar"/></g><g id="ac"><use transform="matrix(0.05,0,0,0.05,0,0)" xlink:href="#ar"/><use transform="matrix(0.05,0,0,0.05,5,0)" xlink:href="#aT"/></g><path fill="#3a414a" d="M190 0L58-211 59 0H30v-248h39L202-35l-2-213h31V0h-41" id="br"/><g id="ad"><use transform="matrix(0.05,0,0,0.05,0,0)" xlink:href="#br"/><use transform="matrix(0.05,0,0,0.05,12.950000000000001,0)" xlink:href="#aT"/><use transform="matrix(0.05,0,0,0.05,22.950000000000003,0)" xlink:href="#ar"/></g><g id="ae"><use transform="matrix(0.05,0,0,0.05,0,0)" xlink:href="#aS"/><use transform="matrix(0.05,0,0,0.05,10.950000000000001,0)" xlink:href="#aT"/><use transform="matrix(0.05,0,0,0.05,20.950000000000003,0)" xlink:href="#aL"/><use transform="matrix(0.05,0,0,0.05,30.950000000000003,0)" xlink:href="#ax"/><use transform="matrix(0.05,0,0,0.05,40.95,0)" xlink:href="#ay"/></g></defs></g></svg>